<?xml version="1.0" standalone="no"?>
<!DOCTYPE svg PUBLIC "-//W3C//DTD SVG 1.1//EN" "http://www.w3.org/Graphics/SVG/1.1/DTD/svg11.dtd" >
<svg>
<metadata>
Created by FontForge 20110222 at Thu Oct  9 22:47:56 2014
 By deploy user
Copyright (c) 2011-2012, Carolina Giovagnoli (huertatipografica.com.ar), with Reserved Font Name 'Andada'
</metadata>
<defs>
<font id="Andada-Regular" horiz-adv-x="360" >
  <font-face 
    font-family="Andada"
    font-weight="400"
    font-stretch="normal"
    units-per-em="1000"
    panose-1="2 0 0 0 0 0 0 0 0 0"
    ascent="800"
    descent="-200"
    x-height="497"
    cap-height="710"
    bbox="-222 -259 1063 997"
    underline-thickness="50"
    underline-position="-50"
    unicode-range="U+0020-FB02"
  />
<missing-glyph horiz-adv-x="224" 
 />
    <glyph glyph-name="Idieresis" unicode="&#xa8;I" horiz-adv-x="363" 
d="M270 884q54 0 54 -60q0 -59 -54 -59t-54 59q0 28 14 44t40 16zM94 884q54 0 54 -60q0 -59 -54 -59t-54 59q0 28 14 44t40 16zM308 710l4 -59l-78 -7q-7 -49 -7 -106v-371q0 -57 7 -106l90 -7l-7 -59q-66 5 -146 5l-118 -5l-5 50l79 16q9 59 9 76v431q0 18 -9 76l-77 12
l5 54q96 -5 116 -5z" />
    <glyph glyph-name="Odieresis" unicode="&#xa8;O" horiz-adv-x="740" 
d="M698 352q0 -168 -84.5 -267.5t-243.5 -99.5t-243.5 99.5t-84.5 267.5t84.5 268t243.5 100t243.5 -100t84.5 -268zM149 352q0 -138 57 -226t164 -88t164 88t57 226t-57 226.5t-164 88.5t-164 -88.5t-57 -226.5zM488 884q54 0 54 -60q0 -59 -54 -59t-54 59q0 28 14 44
t40 16zM252 884q54 0 54 -60q0 -59 -54 -59t-54 59q0 28 14 44t40 16z" />
    <glyph glyph-name="Yacute" unicode="&#xb4;Y" horiz-adv-x="663" 
d="M645 661l-68 -17q-36 -47 -63 -99l-140 -272v-106q0 -57 7 -106l90 -7l-7 -59q-66 5 -146 5l-118 -5l-5 50l79 16q9 59 9 76v120l-155 299q-9 18 -23 39.5t-23 33.5l-10 12l-66 10l5 54h109l147 5l4 -49l-79 -20q11 -49 43 -108l101 -189l115 234l28 63l-76 10l5 54h90
l143 5zM451 898l30 -73q-132 -32 -151 -38l-88 -37l-20 48z" />
    <glyph glyph-name="idieresis" unicode="&#xa8;i" horiz-adv-x="301" 
d="M222 713q54 0 54 -60q0 -59 -54 -59t-54 59q0 28 14 44t40 16zM46 713q54 0 54 -60q0 -59 -54 -59t-54 59q0 28 14 44t40 16zM288 54l-7 -59q-49 5 -129 5l-111 -5l-5 50l76 16q10 56 10 76v216l-10 76l-76 16l5 53q72 -4 92 -4h58l19 -18q-7 -103 -7 -153v-156l7 -106z
" />
    <glyph glyph-name="odieresis" unicode="&#xa8;o" horiz-adv-x="540" 
d="M500 246q0 -117 -59.5 -186.5t-170.5 -69.5t-170.5 69.5t-59.5 186.5q0 118 59.5 187.5t170.5 69.5q113 0 171.5 -69t58.5 -188zM406 246q0 87 -32 143.5t-104 56.5t-104 -56.5t-32 -143.5t32 -143t104 -56t104 56t32 143zM396 713q54 0 54 -60q0 -59 -54 -59t-54 59
q0 28 14 44t40 16zM160 713q54 0 54 -60q0 -59 -54 -59t-54 59q0 28 14 44t40 16z" />
    <glyph glyph-name="yacute" unicode="&#xb4;y" horiz-adv-x="539" 
d="M279 104l87 232q14 39 27 97l-73 12l5 52q67 -3 87 -3l115 5l3 -58l-53 -8q-36 -73 -52 -114l-206 -554l-161 11l8 58l40 -1q14 0 67 10q25 35 38 68l32 89l-143 333q-15 37 -51 100l-49 12l5 52q62 -3 82 -3l137 5l3 -58l-72 -7q13 -57 25 -85zM356 755l47 -60
q-106 -60 -121 -71l-73 -60l-33 41z" />
    <glyph glyph-name="Itilde" unicode="&#x7e;I" horiz-adv-x="363" 
d="M308 710l4 -59l-78 -7q-7 -49 -7 -106v-371q0 -57 7 -106l90 -7l-7 -59q-66 5 -146 5l-118 -5l-5 50l79 16q9 59 9 76v431q0 18 -9 76l-77 12l5 54q96 -5 116 -5zM314 882l36 -21q-5 -11 -13 -27.5t-30 -43.5t-40 -27q-20 0 -82 20.5t-82 20.5q-12 0 -25.5 -13.5
t-20.5 -26.5l-7 -14l-36 21q5 11 13 28t29.5 45t39.5 28q20 0 82.5 -20.5t82.5 -20.5q12 0 25.5 12.5t20.5 25.5z" />
    <glyph glyph-name="itilde" unicode="&#x7e;i" horiz-adv-x="301" 
d="M238 723l36 -21q-5 -11 -13 -27.5t-30 -43.5t-39 -27q-18 0 -58 20.5t-57 20.5q-12 0 -25.5 -13.5t-20.5 -27.5l-7 -13l-36 21q5 11 13 28t29.5 45t39.5 28q17 0 57 -20.5t58 -20.5q12 0 25.5 13t20.5 25zM280 54l-7 -59q-49 5 -129 5l-111 -5l-5 50l76 16q10 56 10 76
v216l-10 76l-76 16l5 53q72 -4 92 -4h58l19 -18q-7 -103 -7 -153v-156l7 -106z" />
    <glyph glyph-name="Utilde" unicode="&#x7e;U" horiz-adv-x="727" 
d="M704 710l4 -59l-79 -7q-7 -52 -7 -111v-267q0 -131 -66.5 -206t-192.5 -75t-192 75t-66 206v297q0 13 -9 81l-79 12l5 54q96 -5 116 -5l144 5l4 -59l-79 -7q-7 -52 -7 -111v-267q0 -99 44 -158t128 -59q87 0 132.5 59.5t45.5 157.5v297q0 11 -10 81l-78 12l5 54
q86 -5 106 -5zM497 882l36 -21q-5 -11 -13 -27.5t-30 -43.5t-40 -27q-20 0 -82 20.5t-82 20.5q-12 0 -25.5 -13.5t-20.5 -26.5l-7 -14l-36 21q5 11 13 28t29.5 45t39.5 28q20 0 82.5 -20.5t82.5 -20.5q12 0 25 12.5t21 25.5z" />
    <glyph glyph-name="utilde" unicode="&#x7e;u" horiz-adv-x="592" 
d="M324 445l5 53q67 -4 87 -4h58l19 -18q-7 -103 -7 -153v-156q0 -22 2.5 -48.5t5.5 -42.5l2 -15l69 -7l-7 -59q-49 5 -129 5l-13 78q-51 -88 -155 -88q-96 0 -129 56.5t-33 170.5v136l-10 76l-66 16l5 53q62 -4 82 -4h58l19 -18q-7 -103 -7 -153v-140q0 -129 99 -129
q59 0 92.5 46t33.5 110v143l-10 76zM401 723l36 -21q-5 -11 -13 -27.5t-30 -43.5t-40 -27q-20 0 -77 20.5t-77 20.5q-12 0 -25 -13.5t-21 -27.5l-7 -13l-36 21q5 11 13 28t29.5 45t39.5 28q20 0 77.5 -20.5t77.5 -20.5q12 0 25 13t21 25z" />
    <glyph glyph-name="Etilde" unicode="&#x7e;E" horiz-adv-x="588" 
d="M44 656l5 54q96 -5 116 -5h224l114 10l19 -18l7 -136l-58 -5q-3 24 -11 54q-1 10 -20 34q-55 5 -81 5h-131q-7 -73 -7 -111v-142q34 -2 43 -2h73l60 9l9 66l46 -5q-1 -64 -1 -84l3 -109l-48 -6l-9 67q-60 6 -80 6h-53q-18 0 -43 -3v-168q0 -43 7 -110h144q38 0 87 9
q19 26 21 37q1 4 7.5 31t7.5 36l55 -5l-15 -151l-19 -18q-94 4 -114 4h-237l-118 -5l-5 50l79 16q9 59 9 76v431q0 18 -9 76zM421 898l36 -21q-5 -11 -13 -27.5t-30 -43.5t-40 -27q-20 0 -77 20.5t-77 20.5q-12 0 -25 -13.5t-21 -26.5l-7 -14l-36 21q5 11 13 28t29.5 45
t39.5 28q20 0 77.5 -20.5t77.5 -20.5q12 0 25 12.5t21 25.5z" />
    <glyph glyph-name="etilde" unicode="&#x7e;e" horiz-adv-x="478" 
d="M258 503q192 0 192 -233l-17 -33h-299q2 -74 37.5 -128t98.5 -54q38 0 75 10.5t55 20.5l19 10l28 -46q-7 -7 -21 -17t-60 -26.5t-96 -16.5q-111 0 -170.5 69.5t-59.5 185.5q0 117 55.5 187.5t162.5 70.5zM254 451q-105 0 -119 -164l222 17q1 15 1 20q0 56 -26.5 91.5
t-77.5 35.5zM388 723l36 -21q-5 -11 -13 -27.5t-30 -43.5t-40 -27q-20 0 -77 20.5t-77 20.5q-12 0 -25.5 -13.5t-20.5 -27.5l-7 -13l-36 21q5 11 13 28t29.5 45t39.5 28q20 0 77.5 -20.5t77.5 -20.5q12 0 25.5 13t20.5 25z" />
    <glyph glyph-name="Ytilde" unicode="&#x7e;Y" horiz-adv-x="663" 
d="M645 661l-68 -17q-36 -47 -63 -99l-140 -272v-106q0 -57 7 -106l90 -7l-7 -59q-66 5 -146 5l-118 -5l-5 50l79 16q9 59 9 76v120l-155 299q-9 18 -23 39.5t-23 33.5l-10 12l-66 10l5 54h109l147 5l4 -49l-79 -20q11 -49 43 -108l101 -189l115 234l28 63l-76 10l5 54h90
l143 5zM443 882l36 -21q-5 -11 -13 -27.5t-30 -43.5t-40 -27q-20 0 -82 20.5t-82 20.5q-12 0 -25 -13.5t-21 -26.5l-7 -14l-36 21q5 11 13 28t29.5 45t39.5 28q20 0 82.5 -20.5t82.5 -20.5q12 0 25 12.5t21 25.5z" />
    <glyph glyph-name="ytilde" unicode="&#x7e;y" horiz-adv-x="539" 
d="M279 104l87 232q14 39 27 97l-73 12l5 52q67 -3 87 -3l115 5l3 -58l-53 -8q-36 -73 -52 -114l-206 -554l-161 11l8 58l40 -1q14 0 67 10q25 35 38 68l32 89l-143 333q-15 37 -51 100l-49 12l5 52q62 -3 82 -3l137 5l3 -58l-72 -7q13 -57 25 -85zM377 723l36 -21
q-5 -11 -13 -27.5t-30 -43.5t-40 -27q-20 0 -77 20.5t-77 20.5q-12 0 -25 -13.5t-21 -27.5l-7 -13l-36 21q5 11 13 28t29.5 45t39.5 28q20 0 77.5 -20.5t77.5 -20.5q12 0 25 13t21 25z" />
    <glyph glyph-name="fi" unicode="fi" horiz-adv-x="608" 
d="M298 770q13 0 31 -2.5t30 -5.5l12 -2l-11 -135l-53 3v36q0 14 -13 53h-3q-56 0 -72 -36t-16 -115l2 -72h293l19 -18q-7 -103 -7 -153v-156l7 -106l78 -7l-7 -59q-49 5 -129 5l-111 -5l-5 50l76 16q10 56 10 76v216l-10 76q-39 11 -70 11h-146v-273l7 -106l98 -7l-7 -59
q-69 5 -149 5l-111 -5l-5 50l76 16q10 56 10 76v303h-77l-3 42q46 14 80 29v86q0 80 45.5 126.5t130.5 46.5zM460 720q28 0 43.5 -17t15.5 -48q0 -29 -15.5 -46.5t-43.5 -17.5t-43.5 17.5t-15.5 46.5t15.5 47t43.5 18z" />
    <glyph glyph-name="fl" unicode="fl" horiz-adv-x="616" 
d="M595 54l-7 -59q-59 5 -139 5l-101 -5l-5 50l76 16q10 56 10 76v478q0 19 -11 85q-68 17 -120 17q-26 0 -44 -7.5t-28 -19t-15.5 -33t-6.5 -40.5t-1 -51l2 -72h138l-5 -54h-135v-273l7 -106l98 -7l-7 -59q-69 5 -149 5l-111 -5l-5 50l76 16q10 56 10 76v303h-77l-3 42
q9 3 28 8.5t30.5 10t21.5 10.5v86q0 80 45.5 126.5t130.5 46.5q32 0 84 -7t85 -7h31l19 -18q-7 -103 -7 -153v-418l7 -106z" />
    <glyph glyph-name="fj" unicode="fj" horiz-adv-x="598" 
d="M429 353l-10 76q-39 11 -70 11h-146v-273l7 -106l98 -7l-7 -59q-69 5 -149 5l-111 -5l-5 50l76 16q10 56 10 76v303h-77l-3 42q46 14 80 29v86q0 80 45.5 126.5t130.5 46.5q13 0 31 -2.5t30 -5.5l12 -2l-11 -135l-53 3v36q0 14 -13 53h-3q-56 0 -72 -36t-16 -115l2 -72
h293l19 -18q-7 -103 -7 -153v-333q0 -18 -30 -74t-60 -104l-31 -47l-36 21q76 195 76 235v332zM460 720q28 0 43.5 -17t15.5 -48q0 -29 -15.5 -46.5t-43.5 -17.5t-43.5 17.5t-15.5 46.5t15.5 47t43.5 18z" />
    <glyph glyph-name="Gtilde" unicode="&#x7e;G" horiz-adv-x="664" 
d="M376 720q78 0 220 -34l-11 -148l-58 6v45q0 9 -12 49q-81 24 -142 24q-112 0 -171 -86.5t-59 -222.5q0 -137 59 -223.5t171 -86.5q65 0 140 20q12 52 12 65v68l-10 71l-106 8l5 58h111l71 3l18 -17q-9 -103 -9 -153v-147q-142 -34 -229 -34q-162 0 -248 99.5t-86 267.5
t86 268t248 100zM512 872l36 -21q-5 -11 -13 -27.5t-30 -43.5t-40 -27q-20 0 -82 20.5t-82 20.5q-12 0 -25.5 -13.5t-20.5 -26.5l-7 -14l-36 21q5 11 13 28t29.5 45t39.5 28q20 0 82.5 -20.5t82.5 -20.5q12 0 25.5 12.5t20.5 25.5z" />
    <glyph glyph-name="gtilde" unicode="&#x7e;g" horiz-adv-x="505" 
d="M474 440l-80 6q46 -48 46 -124q0 -82 -53 -131.5t-140 -49.5q-37 0 -68 9q-27 -31 -27 -42q0 -15 18.5 -21.5t75.5 -13.5q169 -22 193 -30q45 -14 45 -87q0 -79 -74.5 -135t-179.5 -56q-198 0 -198 145q0 29 91 101q-51 21 -51 73q0 20 72 80q-90 48 -90 158
q0 82 53 131.5t140 49.5q57 0 105 -24l122 19v-58zM161 -1q-43 -53 -43 -78q0 -51 34 -75t106 -24q62 0 101.5 28.5t39.5 74.5q0 23 -8.5 32.5t-30.5 12.5l-130 17q-40 5 -69 12zM247 452q-106 0 -106 -130t106 -130t106 130t-106 130zM380 723l36 -21q-5 -11 -13 -27.5
t-30 -43.5t-40 -27q-20 0 -77 20.5t-77 20.5q-12 0 -25.5 -13.5t-20.5 -27.5l-7 -13l-36 21q5 11 13 28t29.5 45t39.5 28q20 0 77.5 -20.5t77.5 -20.5q12 0 25.5 13t20.5 25z" />
    <glyph glyph-name=".notdef" horiz-adv-x="224" 
 />
    <glyph glyph-name=".null" horiz-adv-x="0" 
 />
    <glyph glyph-name="nonmarkingreturn" horiz-adv-x="333" 
 />
    <glyph glyph-name="space" unicode=" " horiz-adv-x="224" 
 />
    <glyph glyph-name="exclam" unicode="!" horiz-adv-x="229" 
d="M129 -10q-28 0 -43.5 17t-15.5 48q0 29 15.5 46.5t43.5 17.5t43.5 -17.5t15.5 -46.5t-15.5 -47t-43.5 -18zM166 223l-7 -6q-18 3 -72 3q1 36 1 66l-9 427l90 7l19 -18q-25 -237 -25 -394z" />
    <glyph glyph-name="quotedbl" unicode="&#x22;" horiz-adv-x="299" 
d="M35 756h89l-13 -243l-58 3l1 94zM175 756h89l-13 -243l-58 3l1 94z" />
    <glyph glyph-name="numbersign" unicode="#" horiz-adv-x="570" 
d="M395 219l132 2v-71h-143l-26 -165l-60 10l24 155h-110l-26 -165l-60 10l24 155h-118v66l129 1l19 121l-128 -1v71h139l26 164l60 -10l-25 -154h111l26 164l60 -10l-25 -154h123v-66l-133 -2zM241 339l-19 -121l111 1l19 121z" />
    <glyph glyph-name="dollar" unicode="$" horiz-adv-x="521" 
d="M261 -92l-35 3l3 80q-49 3 -93.5 15t-65.5 22l-20 11l15 150l62 -6l-1 -54q0 -8 10 -58q50 -19 96 -23l10 244l-30 14q-71 34 -114.5 76.5t-43.5 110.5q0 80 55.5 124t145.5 44h2l4 98l34 -3l-4 -97q55 -5 147 -28l-15 -144l-54 6l1 47q0 4 -13 49q-35 14 -68 18
l-10 -228l29 -15l48 -27t42 -29t39 -37.5t23.5 -44.5t10.5 -58q0 -82 -58 -128.5t-149 -49.5zM373 158q0 38 -25.5 65t-72.5 52l-9 -227q50 4 78.5 32.5t28.5 77.5zM147 510q0 -36 25 -62t74 -52l9 213h-3q-46 0 -75.5 -26t-29.5 -73z" />
    <glyph glyph-name="percent" unicode="%" horiz-adv-x="785" 
d="M341 493v-1q0 -75 -39.5 -124t-110.5 -49t-110.5 49t-39.5 125q0 75 39.5 124t110.5 49t110.5 -49t39.5 -124zM116 492q0 -50 17.5 -85t57.5 -35t57.5 35t17.5 86q0 50 -17.5 85t-57.5 35t-57.5 -35t-17.5 -86zM723 163v-1q0 -75 -39.5 -124t-110.5 -49t-110.5 49
t-39.5 125q0 75 39.5 124t110.5 49t110.5 -49t39.5 -124zM498 162q0 -50 17.5 -85t57.5 -35t57.5 35t17.5 86q0 50 -17.5 85t-57.5 35t-57.5 -35t-17.5 -86zM195 -49l-51 32l434 738l50 -32z" />
    <glyph glyph-name="ampersand" unicode="&#x26;" horiz-adv-x="725" 
d="M304 662q34 0 83 -10.5t75 -20.5l-13 -140l-55 3q2 39 2 46l-10 48q-32 25 -82 25q-42 0 -68 -25t-26 -66q0 -34 21 -74t65.5 -89.5t82 -86t101.5 -95.5q16 42 16 102q0 17 -9 57l-68 6l6 58h91l122 5l5 -53l-77 -16q-5 -35 -5 -69q0 -76 -32 -135l30 -28q3 -3 58 -43
l79 -7l-7 -59q-49 5 -129 5h-21l-8 25l-46 46q-81 -81 -209 -81q-96 0 -161 54.5t-65 145.5q0 122 125 196q-53 75 -53 136q0 72 49.5 106t132.5 34zM211 339q-72 -55 -72 -142q0 -63 38.5 -105t99.5 -42q107 0 164 62q-19 18 -59.5 55.5t-63.5 59.5t-54 54t-53 58z" />
    <glyph glyph-name="quotesingle" unicode="'" horiz-adv-x="159" 
d="M35 756h89l-13 -243l-58 3l1 94z" />
    <glyph glyph-name="parenleft" unicode="(" horiz-adv-x="271" 
d="M132 317q0 -158 59 -314q4 -9 21.5 -37t33.5 -52l15 -23l-32 -26q-179 179 -179 452t179 452l32 -26q-62 -91 -70 -112q-59 -156 -59 -314z" />
    <glyph glyph-name="parenright" unicode=")" horiz-adv-x="271" 
d="M139 317q0 158 -59 314q-4 9 -21.5 37l-32.5 52l-16 23l32 26q179 -179 179 -452t-179 -452l-32 26q62 91 70 112q59 156 59 314z" />
    <glyph glyph-name="asterisk" unicode="*" horiz-adv-x="409" 
d="M43 499l97 70l-48 38l-48 27l17 40l109 -50q9 56 9 61v56l43 5l12 -119q53 21 56 23l49 28l26 -35l-98 -70q38 -32 48 -37l49 -28l-17 -40l-110 49q-8 -50 -8 -61v-55l-43 -5l-12 119q-44 -17 -57 -23l-48 -28z" />
    <glyph glyph-name="plus" unicode="+" horiz-adv-x="560" 
d="M314 220l3 -220h-75v220l-220 -2v75h220v218h70l2 -218h223v-70z" />
    <glyph glyph-name="comma" unicode="," horiz-adv-x="220" 
d="M105 -10q-26 2 -40.5 22t-14.5 48q0 30 16.5 49.5t45.5 19.5q63 0 63 -89q0 -60 -34.5 -111.5t-96.5 -64.5l-10 32q71 30 71 94z" />
    <glyph glyph-name="hyphen" unicode="-" horiz-adv-x="282" 
d="M32 216l-2 75h222l-5 -75h-215z" />
    <glyph glyph-name="period" unicode="." horiz-adv-x="213" 
d="M104 129q30 0 47 -18.5t17 -51.5q0 -31 -17 -50t-47 -19t-47 19t-17 50t17 50.5t47 19.5z" />
    <glyph glyph-name="slash" unicode="/" horiz-adv-x="376" 
d="M71 -67l-64 20l311 820l63 -20z" />
    <glyph glyph-name="zero" unicode="0" horiz-adv-x="580" 
d="M50 326q0 147 59 241.5t181 94.5t181 -94.5t59 -241.5t-59 -241.5t-181 -94.5t-181 94.5t-59 241.5zM431 326q0 276 -141 276t-141 -276t141 -276t141 276z" />
    <glyph glyph-name="one" unicode="1" horiz-adv-x="389" 
d="M337 54l-7 -59q-53 5 -133 5l-135 -5l-5 50l99 16q9 59 9 76v387l-114 -59l-27 42q117 92 137 108q5 4 16.5 18.5t20.5 26.5l10 12l47 -12q-7 -184 -7 -234v-259q0 -57 7 -106z" />
    <glyph glyph-name="two" unicode="2" horiz-adv-x="515" 
d="M243 662q93 0 146.5 -42.5t53.5 -118.5q0 -88 -62 -170.5t-252 -257.5h188q10 0 84 8q4 9 7 16.5l5 12.5t2 6l5 47l55 -4l-9 -142l-19 -20q-97 3 -121 3h-276l-14 73q146 147 207 216t83 110t22 87q0 53 -32 86.5t-83 33.5q-52 0 -100 -28q-10 -32 -10 -51l2 -45l-55 -3
l-13 147q91 36 186 36z" />
    <glyph glyph-name="three" unicode="3" horiz-adv-x="470" 
d="M188 662q97 0 148 -42t51 -121q0 -55 -31 -97.5t-88 -66.5q71 -20 109 -63t38 -104q0 -102 -106.5 -178t-277.5 -95l-18 53q138 22 222.5 83t84.5 135q0 55 -37.5 89t-99.5 34l-69 -3l-14 48q193 24 193 151q0 59 -28 91t-80 32q-45 0 -79 -22q-10 -40 -10 -50l2 -45
l-55 -3l-13 145q84 29 158 29z" />
    <glyph glyph-name="four" unicode="4" horiz-adv-x="529" 
d="M365 739l69 -51q-124 -131 -139 -154l-187 -280l200 3v142l78 27v-164l92 6v-67h-92v-34q0 -57 7 -106l83 -7l-7 -59q-50 5 -130 5l-138 -5l-5 50l103 16q9 63 9 76v64h-259l-44 53z" />
    <glyph glyph-name="five" unicode="5" horiz-adv-x="462" 
d="M157 652l243 10l6 -67q-178 -23 -208 -23h-64q-9 -127 -12 -217q41 9 82 9q104 0 163.5 -48.5t59.5 -139.5q0 -119 -101.5 -191.5t-265.5 -89.5l-18 53q131 19 210.5 73t79.5 145q0 64 -37.5 97.5t-108.5 33.5q-41 0 -96 -13l-37 21l17 329l19 18h68z" />
    <glyph glyph-name="six" unicode="6" horiz-adv-x="522" 
d="M289 403q97 0 152.5 -53.5t55.5 -149.5q0 -91 -64 -151t-157 -60q-110 0 -170.5 70.5t-60.5 186.5q0 81 26.5 160t77.5 149t134 121t187 71l12 -51q-94 -27 -163.5 -77.5t-107 -113t-55 -127t-17.5 -132.5q0 -80 35 -140t102 -60q58 0 92 45.5t34 108.5t-31.5 103.5
t-90.5 40.5l-65 -5l-6 48q47 16 80 16z" />
    <glyph glyph-name="seven" unicode="7" horiz-adv-x="506" 
d="M69 641l19 20q98 -9 122 -9h267l16 -39l-286 -718l-78 25l214 502q8 17 44 157h-168q-22 0 -85 -6q-12 -25 -14 -34l-5 -50l-55 4z" />
    <glyph glyph-name="eight" unicode="8" horiz-adv-x="520" 
d="M62 521q0 74 58 117.5t140 43.5q81 0 139.5 -44t58.5 -119q0 -96 -122 -171q67 -36 105.5 -79t38.5 -107q0 -82 -63 -127t-157 -45t-157 44.5t-63 129.5q0 102 141 183q-56 32 -87.5 72.5t-31.5 101.5zM131 164q0 -57 36.5 -92t92.5 -35q54 0 91.5 34.5t37.5 88.5
q0 27 -10.5 49t-36 42.5t-44 32t-56.5 32.5q-6 2 -9 4q-102 -72 -102 -156zM371 519q0 49 -32 82.5t-79 33.5q-44 0 -77.5 -33.5t-33.5 -78.5q0 -22 8.5 -42t18 -32.5t33 -29t36 -23.5t43.5 -24l1 -1q82 68 82 148z" />
    <glyph glyph-name="nine" unicode="9" horiz-adv-x="525" 
d="M239 248q-94 0 -154 55t-60 146q0 92 63.5 152.5t157.5 60.5q111 0 172.5 -72t61.5 -189q0 -84 -24.5 -162.5t-73.5 -148.5t-131.5 -122.5t-188.5 -74.5l-14 52q95 30 163 81.5t104 115t51.5 127t15.5 132.5q0 81 -35.5 142.5t-102.5 61.5q-58 0 -90 -45t-32 -111
q0 -58 35.5 -100t90.5 -42q41 0 62 3l7 -47q-35 -15 -78 -15z" />
    <glyph glyph-name="colon" unicode=":" horiz-adv-x="203" 
d="M99 472q28 0 43.5 -17t15.5 -48q0 -29 -15.5 -46.5t-43.5 -17.5t-43.5 17.5t-15.5 46.5t15.5 47t43.5 18zM99 119q28 0 43.5 -17t15.5 -48q0 -29 -15.5 -46.5t-43.5 -17.5t-43.5 17.5t-15.5 46.5t15.5 47t43.5 18z" />
    <glyph glyph-name="semicolon" unicode=";" horiz-adv-x="220" 
d="M111 472q28 0 43.5 -17t15.5 -48q0 -29 -15.5 -46.5t-43.5 -17.5t-43.5 17.5t-15.5 46.5t15.5 47t43.5 18zM105 -10q-26 2 -40.5 22t-14.5 48q0 30 16.5 49.5t45.5 19.5q63 0 63 -89q0 -60 -34.5 -111.5t-96.5 -64.5l-10 32q71 30 71 94z" />
    <glyph glyph-name="less" unicode="&#x3c;" horiz-adv-x="560" 
d="M102 247l302 266l53 -53l-253 -212l254 -210l-53 -53z" />
    <glyph glyph-name="equal" unicode="=" horiz-adv-x="560" 
d="M507 312l-455 -5v71h455v-66zM52 185l455 5v-71h-455v66z" />
    <glyph glyph-name="greater" unicode="&#x3e;" horiz-adv-x="560" 
d="M156 513l302 -266l-303 -262l-53 53l254 210l-253 212z" />
    <glyph glyph-name="question" unicode="?" horiz-adv-x="403" 
d="M155 -10q-28 0 -43.5 17t-15.5 48q0 29 15.5 46.5t43.5 17.5t43.5 -17.5t15.5 -46.5t-15.5 -47t-43.5 -18zM316 511q0 69 -32 114t-93 45q-50 0 -84 -26q-6 -21 -6 -58l2 -36h-58l-12 138q85 39 157 39q102 0 161 -57.5t59 -159.5q0 -91 -63 -145t-159 -54l4 -88l-7 -6
q-18 3 -68 3l-4 3v129l26 24q30 -4 51 -4q59 0 92.5 38.5t33.5 100.5z" />
    <glyph glyph-name="at" unicode="@" horiz-adv-x="912" 
d="M610 -4l-18 14l-13 69q-20 -37 -68 -63t-101 -26q-62 0 -98.5 36t-36.5 97q0 95 115 124q39 10 179 31v33q0 138 -94 138q-55 0 -93 -19q-9 -45 -9 -47v-36l-58 -3l-11 135q90 24 181 24q95 0 130 -51.5t35 -160.5v-154l12 -91q45 10 75.5 51t42 89.5t11.5 100.5
q0 149 -88.5 240t-241.5 91q-81 0 -143 -28.5t-96.5 -70.5t-56 -97.5t-28 -100.5t-6.5 -89q0 -86 18.5 -154t57 -120.5t104.5 -80.5t155 -28q16 0 63 10t87 20l39 10l16 -31q-153 -71 -205 -71q-97 0 -173 27t-122.5 70t-77 102.5t-42 119.5t-11.5 126q0 67 14 128t46 118
t79.5 98t120 66t161.5 25q189 0 300 -101t111 -279q0 -109 -70.5 -195t-191.5 -96zM436 54q50 0 87.5 32t45.5 81v60q-105 -17 -143 -27q-63 -16 -63 -72q0 -35 19 -54.5t54 -19.5z" />
    <glyph glyph-name="A" unicode="A" horiz-adv-x="664" 
d="M660 54l-5 -54h-101l-143 -5l-4 49l73 20l-27 108l-21 60h-220l-32 -105l-10 -63l70 -10l-5 -54h-86l-135 -5l-4 49l63 17l43 99l179 545l58 10l206 -566l39 -85zM318 557l-88 -275l182 4z" />
    <glyph glyph-name="B" unicode="B" horiz-adv-x="598" 
d="M332 715q81 0 135.5 -46t54.5 -126q0 -65 -38.5 -111.5t-100.5 -61.5v-7q77 -12 123.5 -58.5t46.5 -121.5q0 -85 -58.5 -136.5t-145.5 -51.5q-24 0 -88.5 2t-103.5 3l-104 -5l-5 50l73 16q9 59 9 76v431q0 18 -9 76l-71 12l5 54q74 -4 102 -5q28 0 85.5 5t89.5 5z
M228 655q-7 -45 -7 -117v-371q0 -72 6 -108q50 -6 91 -6q61 0 97.5 36t36.5 102q0 72 -48 109t-120 37h-11l7 57h7q62 0 102 36t40 101q0 59 -32.5 94.5t-85.5 35.5q-33 0 -83 -6z" />
    <glyph glyph-name="C" unicode="C" horiz-adv-x="610" 
d="M569 170l6 -151q-134 -34 -216 -34q-154 0 -235.5 99.5t-81.5 267.5t81.5 268t235.5 100q73 0 207 -34l-10 -148l-59 4v47q0 10 -12 50q-69 23 -126 23q-104 0 -159 -86.5t-55 -222.5t55 -223t158 -87q65 0 136 22q14 46 14 56l2 47z" />
    <glyph glyph-name="D" unicode="D" horiz-adv-x="721" 
d="M334 715q165 0 255 -97t90 -266q0 -162 -92.5 -260t-252.5 -98q-18 0 -77 3t-92 3l-118 -5l-5 50l79 16q9 59 9 76v431q0 18 -9 76l-77 12l5 54q64 -3 98 -5q26 1 88 5.5t99 4.5zM335 655q-65 0 -107 -5q-7 -66 -7 -112v-371q0 -82 7 -110q52 -4 107 -4q120 0 182.5 84
t62.5 215q0 133 -62.5 218t-182.5 85z" />
    <glyph glyph-name="E" unicode="E" horiz-adv-x="588" 
d="M44 656l5 54q96 -5 116 -5h224l114 10l19 -18l7 -136l-58 -5q-3 24 -11 54q-1 10 -20 34q-55 5 -81 5h-131q-7 -73 -7 -111v-142q34 -2 43 -2h73l60 9l9 66l46 -5q-1 -64 -1 -84l3 -109l-48 -6l-9 67q-60 6 -80 6h-53q-18 0 -43 -3v-168q0 -43 7 -110h144q38 0 87 9
q19 26 21 37q1 4 7.5 31t7.5 36l55 -5l-15 -151l-19 -18q-94 4 -114 4h-237l-118 -5l-5 50l79 16q9 59 9 76v431q0 18 -9 76z" />
    <glyph glyph-name="F" unicode="F" horiz-adv-x="552" 
d="M503 715l19 -18l7 -136l-58 -5q-3 24 -11 54q-1 10 -20 34q-55 5 -81 5h-131q-7 -73 -7 -111v-150q34 -2 43 -2h73l60 9l9 66l46 -5q-1 -64 -1 -84l3 -109l-48 -6l-9 67q-60 6 -80 6h-53q-18 0 -43 -3v-160q0 -57 7 -106l100 -7l-7 -59q-76 5 -156 5l-118 -5l-5 50l79 16
q9 59 9 76v431q0 18 -9 76l-77 12l5 54q96 -5 116 -5h224z" />
    <glyph glyph-name="G" unicode="G" horiz-adv-x="666" 
d="M376 720q78 0 220 -34l-11 -148l-58 6v45q0 9 -12 49q-81 24 -142 24q-112 0 -171 -86.5t-59 -222.5q0 -137 59 -223.5t171 -86.5q65 0 140 20q12 52 12 65v68l-10 71l-106 8l5 58h111l71 3l18 -17q-9 -103 -9 -153v-147q-142 -34 -229 -34q-162 0 -248 99.5t-86 267.5
t86 268t248 100z" />
    <glyph glyph-name="H" unicode="H" horiz-adv-x="773" 
d="M724 710l4 -59l-78 -7q-7 -49 -7 -106v-371q0 -57 7 -106l90 -7l-7 -59q-66 5 -146 5l-118 -5l-5 50l79 16q9 59 9 76v190h-331v-160q0 -57 7 -106l90 -7l-7 -59q-66 5 -146 5l-118 -5l-5 50l79 16q9 59 9 76v431q0 18 -9 76l-77 12l5 54q96 -5 116 -5l137 5l4 -59
l-78 -7q-7 -49 -7 -106v-160l331 5v185q0 18 -9 76l-77 12l5 54q96 -5 116 -5z" />
    <glyph glyph-name="I" unicode="I" horiz-adv-x="363" 
d="M308 710l4 -59l-78 -7q-7 -49 -7 -106v-371q0 -57 7 -106l90 -7l-7 -59q-66 5 -146 5l-118 -5l-5 50l79 16q9 59 9 76v431q0 18 -9 76l-77 12l5 54q96 -5 116 -5z" />
    <glyph glyph-name="J" unicode="J" horiz-adv-x="332" 
d="M302 651l-78 -7q-7 -49 -7 -106v-548q0 -27 -137 -190l-34 22q80 169 80 189v557q0 18 -9 76l-77 12l5 54q96 -5 116 -5l137 5z" />
    <glyph glyph-name="K" unicode="K" horiz-adv-x="698" 
d="M688 54l-7 -59q-61 5 -141 5l-128 -5l-5 50l59 14q-44 71 -70 105l-165 189l182 224l39 68l-54 11l5 54q86 -5 106 -5l127 5l4 -59l-76 -7q-52 -48 -102 -98l-132 -176q24 -28 66.5 -76t78 -89t66.5 -76q16 -18 77 -68zM302 710l4 -59l-78 -7q-7 -49 -7 -106v-371
q0 -57 7 -106l90 -7l-7 -59q-66 5 -146 5l-118 -5l-5 50l79 16q9 59 9 76v431q0 18 -9 76l-77 12l5 54q96 -5 116 -5z" />
    <glyph glyph-name="L" unicode="L" horiz-adv-x="534" 
d="M302 710l4 -59l-78 -7q-7 -49 -7 -106v-371q0 -57 7 -110h118q38 0 87 9q20 28 21 37q12 47 15 67l55 -5l-15 -151l-19 -18q-94 4 -114 4h-211l-118 -5l-5 50l79 16q9 59 9 76v431q0 18 -9 76l-77 12l5 54q96 -5 116 -5z" />
    <glyph glyph-name="M" unicode="M" horiz-adv-x="928" 
d="M674 705h26l155 5l4 -59l-80 -7q-3 -18 -3 -75l34 -437q1 -7 16 -71l81 -7l-6 -59q-66 5 -146 5l-119 -5l-5 50l78 16q5 75 5 101l-27 422l-219 -584h-36l-219 584l-24 -422q0 -21 5 -101l81 -7l-7 -59q-51 5 -129 5l-107 -5l-5 50l78 16l7 31q8 30 10 40l26 437
q0 47 -4 75l-82 12l5 54l138 -4h56l19 -21q43 -132 52 -156l133 -354l136 362l53 148z" />
    <glyph glyph-name="N" unicode="N" horiz-adv-x="761" 
d="M741 710l5 -53l-79 -16q-15 -71 -15 -113v-231l-1 -304h-60l-394 563v-389q0 -57 7 -106l81 -7l-7 -59q-43 5 -123 5l-108 -5l-5 50l79 16q9 59 9 76v431q0 8 -9 76l-80 12l5 54q96 -5 116 -5l44 1l20 -21q82 -133 97 -155l262 -367v395q0 29 -9 83l-79 6l6 60l82 -2z
" />
    <glyph glyph-name="O" unicode="O" horiz-adv-x="740" 
d="M698 352q0 -168 -84.5 -267.5t-243.5 -99.5t-243.5 99.5t-84.5 267.5t84.5 268t243.5 100t243.5 -100t84.5 -268zM149 352q0 -138 57 -226t164 -88t164 88t57 226t-57 226.5t-164 88.5t-164 -88.5t-57 -226.5z" />
    <glyph glyph-name="P" unicode="P" horiz-adv-x="586" 
d="M333 715q105 0 164 -54t59 -159q0 -98 -70.5 -154.5t-175.5 -56.5q-61 0 -89 1v-125q0 -57 7 -106l94 -7l-7 -59q-70 5 -150 5l-118 -5l-5 50l79 16q9 59 9 76v431q0 18 -9 76l-77 12l5 54q65 -4 99 -5q26 0 93.5 5t91.5 5zM221 538v-193q52 -4 69 -4q80 0 126 41t46 120
t-45.5 121t-125.5 42q-20 0 -63 -5q-7 -61 -7 -122z" />
    <glyph glyph-name="Q" unicode="Q" horiz-adv-x="745" 
d="M669 -224l-262 211q-24 -2 -37 -2q-159 0 -243.5 99.5t-84.5 267.5t84.5 268t243.5 100t243.5 -100t84.5 -268q0 -134 -55 -226.5t-160 -124.5l87 -61q7 -5 46.5 -23t75.5 -33l36 -16zM149 352q0 -138 57 -226t164 -88t164 88t57 226t-57 226.5t-164 88.5t-164 -88.5
t-57 -226.5z" />
    <glyph glyph-name="R" unicode="R" horiz-adv-x="646" 
d="M332 715q105 0 163 -52.5t58 -154.5q0 -71 -40 -120.5t-106 -71.5q75 -143 106 -185q9 -15 49 -70l72 -7l-7 -59q-78 5 -158 5q-42 92 -55 116l-98 185h-7q-61 0 -88 1v-135q0 -57 7 -106l90 -7l-7 -59q-66 5 -146 5l-118 -5l-5 50l79 16q9 59 9 76v431q0 13 -9 76
l-77 12l5 54q67 -3 100 -5q21 1 89 5.5t94 4.5zM290 665q-11 0 -61 -6q-8 -50 -8 -121v-183q50 -4 68 -4q79 0 124.5 39.5t45.5 116.5t-45 117.5t-124 40.5z" />
    <glyph glyph-name="S" unicode="S" horiz-adv-x="559" 
d="M65 192l66 -6v-48q0 -18 11 -66q68 -27 130 -27q61 0 96.5 32.5t35.5 92.5q0 38 -25.5 69t-63 50.5t-82 43.5t-82 47.5t-63 63.5t-25.5 91q0 87 60.5 136t156.5 49q74 0 202 -32l-14 -151l-59 6v44q0 6 -13 56q-51 22 -119 22q-49 0 -81.5 -29t-32.5 -82q0 -32 19 -58
t49.5 -45t67.5 -37.5t74 -39.5t67.5 -46t49.5 -62.5t19 -83.5q0 -96 -67 -146.5t-172 -50.5q-60 0 -115 13.5t-80 26.5l-25 13z" />
    <glyph glyph-name="T" unicode="T" horiz-adv-x="595" 
d="M585 553l-58 -5q-5 39 -11 62q-1 10 -20 34q-55 5 -81 5h-65q-7 -70 -7 -111v-371q0 -57 7 -106l90 -7l-7 -59q-66 5 -146 5l-118 -5l-5 50l79 16q9 59 9 76v431q0 7 -1.5 22.5t-4 34t-3.5 24.5h-63q-26 0 -81 -5q-19 -24 -20 -34q-6 -23 -11 -62l-58 5l7 144l19 18
q94 -10 114 -10h295l114 10l19 -18z" />
    <glyph glyph-name="U" unicode="U" horiz-adv-x="727" 
d="M704 710l4 -59l-79 -7q-7 -52 -7 -111v-267q0 -131 -66.5 -206t-192.5 -75t-192 75t-66 206v297q0 13 -9 81l-79 12l5 54q96 -5 116 -5l144 5l4 -59l-79 -7q-7 -52 -7 -111v-267q0 -99 44 -158t128 -59q87 0 132.5 59.5t45.5 157.5v297q0 11 -10 81l-78 12l5 54
q86 -5 106 -5z" />
    <glyph glyph-name="V" unicode="V" horiz-adv-x="693" 
d="M323 0l-215 556q-6 16 -17 37.5t-19 34.5l-7 13l-66 10l5 54h109l147 5l4 -49l-79 -20q8 -51 30 -108l147 -385l149 430l11 63l-76 10l5 54h90l143 5l4 -49l-68 -17q-27 -45 -46 -99l-190 -545h-61z" />
    <glyph glyph-name="W" unicode="W" horiz-adv-x="1011" 
d="M1009 661l-68 -17q-34 -60 -46 -99l-164 -545h-61l-167 506l-152 -506h-61l-183 556q-6 19 -16 40t-17 33l-7 12l-66 10l5 54h109l147 5l4 -49l-79 -20q12 -57 27 -108l115 -385l158 537h53l169 -537l123 430l11 63l-76 10l5 54h90l143 5z" />
    <glyph glyph-name="X" unicode="X" horiz-adv-x="718" 
d="M306 355l-144 203q-21 29 -62 83l-81 10l7 55q69 -1 89 -1l187 5l5 -47l-79 -22q29 -70 41 -86l95 -133l97 156q9 15 33 63l-78 10l7 55q52 -1 80 -1l172 5l5 -47l-69 -16q-62 -57 -79 -78l-129 -201l169 -236q22 -28 61 -68l79 -10l-7 -55q-65 1 -80 1l-184 -5l-5 47
l66 18q-25 56 -45 82l-113 159l-114 -169q-11 -17 -35 -68l80 -10l-7 -55q-58 1 -80 1l-165 -5l-5 47l61 17q82 86 96 105z" />
    <glyph glyph-name="Y" unicode="Y" horiz-adv-x="663" 
d="M645 661l-68 -17q-36 -47 -63 -99l-140 -272v-106q0 -57 7 -106l90 -7l-7 -59q-66 5 -146 5l-118 -5l-5 50l79 16q9 59 9 76v120l-155 299q-9 18 -23 39.5t-23 33.5l-10 12l-66 10l5 54h109l147 5l4 -49l-79 -20q11 -49 43 -108l101 -189l115 234l28 63l-76 10l5 54h90
l143 5z" />
    <glyph glyph-name="Z" unicode="Z" horiz-adv-x="557" 
d="M399 646h-183q-31 0 -86 -5l-16 -34q-9 -34 -13 -84l-58 5l7 169l19 18q94 -10 114 -10h331l7 -56l-108 -155l-191 -303l-73 -132h203q38 0 88 9q18 24 20 35q10 38 15 77l55 -5l-15 -161l-19 -18q-94 4 -114 4h-348l-7 57q82 114 112 162l190 301z" />
    <glyph glyph-name="bracketleft" unicode="[" horiz-adv-x="265" 
d="M85 90v461l-10 192l19 19l158 4l3 -43l-84 -12q-14 -60 -14 -110v-561q0 -22 3.5 -49.5t7.5 -44.5l3 -16l84 -12l-3 -43q-89 4 -158 4l-19 19q10 172 10 192z" />
    <glyph glyph-name="backslash" unicode="\" horiz-adv-x="398" 
d="M381 -47l-64 -20l-310 820l63 20z" />
    <glyph glyph-name="bracketright" unicode="]" horiz-adv-x="265" 
d="M180 551v-461l10 -192l-19 -19l-158 -4l-3 43l84 12q14 60 14 110v561q0 22 -3.5 49.5t-6.5 43.5l-4 17l-84 12l3 43q89 -4 158 -4l19 -19q-10 -172 -10 -192z" />
    <glyph glyph-name="asciicircum" unicode="^" horiz-adv-x="560" 
d="M280 615l-207 -302l-63 44l270 371l270 -371l-63 -44z" />
    <glyph glyph-name="underscore" unicode="_" horiz-adv-x="504" 
d="M2 -232l-2 75h504l-5 -75h-497z" />
    <glyph glyph-name="grave" unicode="`" 
d="M293 605l-33 -41l-73 60l-121 71l47 60z" />
    <glyph glyph-name="a" unicode="a" horiz-adv-x="516" 
d="M363 0l-14 79q-19 -38 -64.5 -63.5t-94.5 -25.5q-67 0 -106 34.5t-39 93.5q0 111 134 133l160 27v33q0 138 -94 138q-53 0 -95 -20l-7 -42v-41l-58 -3l-11 136q90 24 181 24q89 0 127 -48.5t38 -163.5v-124q0 -22 2.5 -48.5t5.5 -42.5l2 -15l69 -7l-7 -59q-49 5 -129 5z
M339 227l-143 -27q-30 -5 -46.5 -23t-16.5 -44q0 -38 19 -58.5t54 -20.5q50 0 87.5 32t45.5 81v60z" />
    <glyph glyph-name="b" unicode="b" horiz-adv-x="554" 
d="M10 707l5 53q72 -4 92 -4h58l19 -18q-7 -103 -7 -153v-158q50 76 139 76q96 0 147 -69t51 -178q0 -111 -63 -188.5t-167 -77.5q-99 0 -196 36q8 91 8 111v478l-10 76zM301 442q-59 0 -91.5 -50t-32.5 -118v-107q0 -63 7 -109q46 -12 94 -12q52 0 85 30t46 74.5t13 103.5
q0 188 -121 188z" />
    <glyph glyph-name="c" unicode="c" horiz-adv-x="466" 
d="M270 503q11 0 21.5 -1t19 -1.5t20 -3.5t17 -4t19 -5t18.5 -5.5t21 -7t21 -7.5l-10 -125l-58 3v36q0 10 -7 34q-36 30 -82 30q-70 0 -103 -58t-33 -142q0 -83 33 -137t103 -54q35 0 70 9t52 18l18 9l28 -47q-7 -6 -21 -15t-58 -24t-90 -15q-112 0 -170.5 69t-58.5 187
t59 187.5t171 69.5z" />
    <glyph glyph-name="d" unicode="d" horiz-adv-x="563" 
d="M536 54l-7 -59q-49 5 -129 5l-14 80q-15 -34 -59.5 -62t-84.5 -28q-94 0 -147.5 68.5t-53.5 188.5q0 119 56.5 187.5t153.5 68.5q58 0 125 -24v136l-10 76l-88 16l5 53q84 -4 104 -4h58l19 -18q-7 -103 -7 -153v-418q0 -22 2.5 -48.5t4.5 -42.5l3 -15zM376 207v199
q-55 36 -115 36q-61 0 -94.5 -51.5t-33.5 -144.5q0 -89 31 -140.5t85 -51.5q60 0 93.5 40.5t33.5 112.5z" />
    <glyph glyph-name="e" unicode="e" horiz-adv-x="478" 
d="M258 503q192 0 192 -233l-17 -33h-299q2 -74 37.5 -128t98.5 -54q38 0 75 10.5t55 20.5l19 10l28 -46q-7 -7 -21 -17t-60 -26.5t-96 -16.5q-111 0 -170.5 69.5t-59.5 185.5q0 117 55.5 187.5t162.5 70.5zM254 451q-105 0 -119 -164l222 17q1 15 1 20q0 56 -26.5 91.5
t-77.5 35.5z" />
    <glyph glyph-name="f" unicode="f" horiz-adv-x="351" 
d="M298 770q18 0 44 -2.5t42 -5.5l17 -2l-11 -135l-53 3v36q0 10 -12 52q-4 0 -14 0.5t-13 0.5q-26 0 -44 -7.5t-28 -19t-15.5 -33t-6.5 -40.5t-1 -51v-72h140l-5 -54h-135v-273l7 -106l98 -7l-7 -59q-69 5 -149 5l-111 -5l-5 50l76 16q10 56 10 76v303h-77l-3 42
q9 3 28 8.5t30.5 10t21.5 10.5v86q0 80 45.5 126.5t130.5 46.5z" />
    <glyph glyph-name="g" unicode="g" horiz-adv-x="505" 
d="M474 440l-80 6q46 -48 46 -124q0 -82 -53 -131.5t-140 -49.5q-37 0 -68 9q-27 -31 -27 -42q0 -15 18.5 -21.5t75.5 -13.5q169 -22 193 -30q45 -14 45 -87q0 -79 -74.5 -135t-179.5 -56q-198 0 -198 145q0 29 91 101q-51 21 -51 73q0 20 72 80q-90 48 -90 158
q0 82 53 131.5t140 49.5q57 0 105 -24l122 19v-58zM161 -1q-43 -53 -43 -78q0 -51 34 -75t106 -24q62 0 101.5 28.5t39.5 74.5q0 23 -8.5 32.5t-30.5 12.5l-130 17q-40 5 -69 12zM247 452q-106 0 -106 -130t106 -130t106 130t-106 130z" />
    <glyph glyph-name="h" unicode="h" horiz-adv-x="594" 
d="M20 707l5 53q72 -4 92 -4h58l19 -18q-7 -72 -7 -153v-158q51 76 143 76q97 0 133 -56.5t36 -170.5v-109l7 -106l78 -7l-7 -59q-49 5 -129 5l-102 -5l-5 50l67 16q10 44 10 76v139q0 166 -103 166q-58 0 -92.5 -46.5t-35.5 -121.5v-107q0 -58 6 -106l78 -7l-7 -59
q-49 5 -129 5l-111 -5l-5 50l77 16q10 45 10 76v478l-10 76z" />
    <glyph glyph-name="i" unicode="i" horiz-adv-x="301" 
d="M288 54l-7 -59q-49 5 -129 5l-111 -5l-5 50l76 16q10 56 10 76v216l-10 76l-76 16l5 53q72 -4 92 -4h58l19 -18q-7 -103 -7 -153v-156l7 -106zM163 720q28 0 43.5 -17t15.5 -48q0 -29 -15.5 -46.5t-43.5 -17.5t-43.5 17.5t-15.5 46.5t15.5 47t43.5 18z" />
    <glyph glyph-name="j" unicode="j" horiz-adv-x="279" 
d="M25 445l5 53q72 -4 92 -4h58l19 -18q-7 -103 -7 -153v-333q0 -18 -30 -74t-60 -104l-31 -47l-36 21q76 195 76 235v332l-10 76zM141 720q28 0 43.5 -17t15.5 -48q0 -29 -15.5 -46.5t-43.5 -17.5t-43.5 17.5t-15.5 46.5t15.5 47t43.5 18z" />
    <glyph glyph-name="k" unicode="k" horiz-adv-x="572" 
d="M20 707l5 53q72 -4 92 -4h58l19 -18q-7 -72 -7 -153v-418q0 -58 6 -106l78 -7l-7 -59q-49 5 -129 5l-111 -5l-5 50l77 16q10 45 10 76v478l-10 76zM363 437l-43 8l5 52q67 -3 87 -3l127 5l3 -58l-75 -8q-74 -40 -99 -67l-81 -87l137 -150q2 -3 90 -69l63 -6l-7 -59
q-49 5 -129 5l-102 -2l-5 50l57 11l-51 56l-142 150z" />
    <glyph glyph-name="l" unicode="l" horiz-adv-x="293" 
d="M20 707l5 53q72 -4 92 -4h58l19 -18q-7 -72 -7 -153v-418q0 -58 6 -106l78 -7l-7 -59q-49 5 -129 5l-111 -5l-5 50l77 16q10 45 10 76v478l-10 76z" />
    <glyph glyph-name="m" unicode="m" horiz-adv-x="890" 
d="M344 503q109 0 139 -95q23 41 63.5 68t93.5 27q89 0 122 -56.5t33 -170.5v-109l7 -106l78 -7l-7 -59q-49 5 -129 5l-102 -5l-5 50l67 16q10 44 10 76v139q0 166 -91 166q-54 0 -88 -44t-36 -115v-7v-109l7 -106l78 -7l-7 -59q-49 5 -129 5l-102 -5l-5 50l67 16
q10 44 10 76v139q0 166 -91 166q-56 0 -89.5 -47t-34.5 -121v-107l7 -106l78 -7l-7 -59q-49 5 -129 5l-111 -5l-5 50l76 16q8 48 10 71v221l-10 76l-76 16l5 53q72 -4 92 -4h36l19 -18l6 -64q20 39 59 65t91 26z" />
    <glyph glyph-name="n" unicode="n" horiz-adv-x="610" 
d="M36 445l5 53q72 -4 92 -4h36l19 -18l6 -64q20 38 59.5 64.5t92.5 26.5q97 0 133 -56.5t36 -170.5v-109l7 -106l78 -7l-7 -59q-49 5 -129 5l-102 -5l-5 50l67 16q10 44 10 76v139q0 166 -103 166q-58 0 -92.5 -46.5t-35.5 -121.5v-107l7 -106l78 -7l-7 -59q-49 5 -129 5
l-111 -5l-5 50l76 16q8 48 10 71v221l-10 76z" />
    <glyph glyph-name="o" unicode="o" horiz-adv-x="540" 
d="M500 246q0 -117 -59.5 -186.5t-170.5 -69.5t-170.5 69.5t-59.5 186.5q0 118 59.5 187.5t170.5 69.5q113 0 171.5 -69t58.5 -188zM406 246q0 87 -32 143.5t-104 56.5t-104 -56.5t-32 -143.5t32 -143t104 -56t104 56t32 143z" />
    <glyph glyph-name="p" unicode="p" horiz-adv-x="559" 
d="M314 503q98 0 151.5 -64.5t53.5 -182.5q0 -115 -65 -190.5t-165 -75.5q-51 0 -107 25v-76l7 -106l98 -7l-7 -59q-68 5 -148 5l-102 -5l-5 50l66 16q10 48 10 71v449l-10 76l-76 16l5 53q72 -4 92 -4h36l19 -18l6 -64q16 37 58 64t83 27zM306 442q-56 0 -90 -43.5
t-34 -114.5v-198q52 -36 101 -36q71 0 108.5 52.5t37.5 151.5q0 188 -123 188z" />
    <glyph glyph-name="q" unicode="q" horiz-adv-x="543" 
d="M530 -174l-7 -59q-68 5 -148 5l-102 -5l-5 50l97 16q10 56 10 76v153q-22 -30 -61 -51t-73 -21q-94 0 -147.5 68.5t-53.5 188.5q0 115 58 185.5t152 70.5q50 0 91.5 -7t122.5 -29q-8 -95 -8 -145v-383l7 -106zM248 54q58 0 91.5 38.5t35.5 107.5v152q0 26 -7 79
q-55 11 -108 11q-58 0 -93 -53.5t-35 -142.5t31 -140.5t85 -51.5z" />
    <glyph glyph-name="r" unicode="r" horiz-adv-x="422" 
d="M188 476l6 -66q57 93 161 93q16 0 33 -2.5t26 -4.5l9 -3l-10 -165l-58 3v53q0 8 -14 50h-4q-128 -1 -134 -150v-117l7 -106l98 -7l-7 -59q-69 5 -149 5l-111 -5l-5 50l76 16q10 56 10 76v216l-10 76l-76 16l5 53q72 -4 92 -4h36z" />
    <glyph glyph-name="s" unicode="s" horiz-adv-x="422" 
d="M210 503q68 0 150 -17l-12 -143l-58 3v36q0 11 -14 57q-28 12 -67 12q-37 0 -59 -17.5t-22 -47.5q0 -28 26.5 -49.5t63.5 -38t74.5 -35t64 -51t26.5 -76.5q0 -146 -176 -146q-44 0 -85.5 10t-60.5 20l-19 9l11 136l58 -3v-38q0 -16 15 -59q31 -24 84 -24q91 0 91 76
q0 29 -26 50.5t-63 38t-74.5 35t-63.5 51.5t-26 78q0 62 45.5 97.5t116.5 35.5z" />
    <glyph glyph-name="t" unicode="t" horiz-adv-x="344" 
d="M314 83l28 -41q-67 -52 -118 -52q-69 0 -96.5 40t-27.5 126v284h-77l-3 42q9 3 28 8.5t30.5 10t21.5 10.5l46 90l35 -4v-103h140l-5 -54h-135v-308q0 -78 54 -78q16 0 35.5 7t31.5 15z" />
    <glyph glyph-name="u" unicode="u" horiz-adv-x="592" 
d="M324 445l5 53q67 -4 87 -4h58l19 -18q-7 -103 -7 -153v-156q0 -22 2.5 -48.5t5.5 -42.5l2 -15l69 -7l-7 -59q-49 5 -129 5l-13 78q-51 -88 -155 -88q-96 0 -129 56.5t-33 170.5v136l-10 76l-66 16l5 53q62 -4 82 -4h58l19 -18q-7 -103 -7 -153v-140q0 -129 99 -129
q59 0 92.5 46t33.5 110v143l-10 76z" />
    <glyph glyph-name="v" unicode="v" horiz-adv-x="530" 
d="M521 441l-55 -6q-31 -69 -50 -116l-115 -319h-67q-123 322 -131 344q-15 43 -41 90l-61 11l5 52q69 -3 89 -3l130 5l3 -58l-60 -7q19 -72 24 -85l86 -246l83 248q4 11 20 83l-75 11l5 52q64 -3 84 -3l123 5z" />
    <glyph glyph-name="w" unicode="w" horiz-adv-x="800" 
d="M796 441l-45 -6q-31 -69 -50 -116l-115 -319h-68l-118 335l-114 -335h-67q-123 322 -131 344q-15 43 -41 90l-41 11l5 52q49 -3 69 -3l150 5l3 -58l-80 -7q19 -72 24 -85l86 -246l127 391h39l134 -391l83 248q4 11 20 83l-85 11l5 52q74 -3 94 -3q36 0 64 1t38 3l11 1z
" />
    <glyph glyph-name="x" unicode="x" horiz-adv-x="543" 
d="M186 434l29 -47l59 -85l55 85l25 46l-64 12l5 52q57 -3 77 -3l127 5l3 -58l-61 -8l-68 -80l-62 -95l81 -109l88 -90l61 -5l-7 -59q-53 5 -133 5l-102 -5l-5 50l62 15l-32 55l-62 86l-60 -86l-31 -54l63 -7l-7 -59q-33 5 -113 5l-97 -5l-5 50l62 16l81 88l68 97l-78 107
l-73 82l-43 10l5 52q62 -3 82 -3l127 5l3 -58z" />
    <glyph glyph-name="y" unicode="y" horiz-adv-x="539" 
d="M279 104l87 232q14 39 27 97l-73 12l5 52q67 -3 87 -3l115 5l3 -58l-53 -8q-36 -73 -52 -114l-206 -554l-161 11l8 58l40 -1q14 0 67 10q25 35 38 68l32 89l-143 333q-15 37 -51 100l-49 12l5 52q62 -3 82 -3l137 5l3 -58l-72 -7q13 -57 25 -85z" />
    <glyph glyph-name="z" unicode="z" horiz-adv-x="460" 
d="M54 478l18 19q75 -3 95 -3h242l7 -58l-86 -109l-122 -185q-13 -20 -50 -90h125q11 0 59 6q15 30 22 51q0 1 1 6.5t2.5 15.5t2.5 18l58 -6l-9 -127l-18 -19q-90 3 -110 3h-243l-7 58q80 88 95 110l124 184q18 28 50 90h-122q-9 0 -53 -6q-22 -40 -24 -62l-4 -39l-58 4z
" />
    <glyph glyph-name="braceleft" unicode="{" horiz-adv-x="272" 
d="M107 261q-7 14 -33.5 29.5t-38.5 15.5l4 29q9 0 35 15.5t33 29.5q0 53 -7.5 143.5t-15.5 154.5l-7 64l20 20l162 4l3 -43l-87 -12q-8 -90 -8 -110q0 -30 4.5 -122t4.5 -122q-9 -8 -23 -16t-23 -12l-10 -4v-9q36 -14 56 -32q0 -30 -4.5 -122t-4.5 -122l8 -110l87 -12
l-3 -43q-93 4 -162 4l-20 20q30 242 30 362z" />
    <glyph glyph-name="bar" unicode="|" horiz-adv-x="279" 
d="M172 -122l-65 9v873l65 -8v-874z" />
    <glyph glyph-name="braceright" unicode="}" horiz-adv-x="272" 
d="M165 380q7 -14 33.5 -29.5t38.5 -15.5l-4 -29q-9 0 -35 -15.5t-33 -29.5q0 -53 7.5 -143.5t15.5 -154.5l7 -64l-20 -20l-162 -4l-3 43l87 12q8 90 8 110q0 30 -4.5 122t-4.5 122q9 8 23 16t23 12l10 4v9q-36 14 -56 32q0 30 4.5 122t4.5 122l-8 110l-87 12l3 43
q93 -4 162 -4l20 -20q-30 -242 -30 -362z" />
    <glyph glyph-name="asciitilde" unicode="~" horiz-adv-x="560" 
d="M473 312l40 -33q-2 -4 -6.5 -11t-17.5 -25t-25.5 -32t-29 -25t-30.5 -11q-31 0 -125 30t-120 30q-13 0 -31 -13.5t-30 -27.5l-11 -14l-40 33q2 4 6.5 11t17.5 25t25.5 32t29 25t30.5 11q37 0 128.5 -30t116.5 -30q13 0 31 13.5t30 27.5z" />
    <glyph glyph-name="nbspace" unicode="&#xa0;" horiz-adv-x="224" 
 />
    <glyph glyph-name="exclamdown" unicode="&#xa1;" horiz-adv-x="229" 
d="M100 503q28 0 43.5 -17t15.5 -48q0 -29 -15.5 -46.5t-43.5 -17.5t-43.5 17.5t-15.5 46.5t15.5 47t43.5 18zM63 270l7 6q18 -3 72 -3q-1 -36 -1 -66l9 -427l-90 -7l-19 18q25 237 25 394z" />
    <glyph glyph-name="cent" unicode="&#xa2;" horiz-adv-x="483" 
d="M268 -42l-35 3l4 107q-97 10 -147 78t-50 177q0 115 56 184t162 73l5 109l34 -3l-4 -107q37 -2 134 -34l-10 -125l-58 3v36q0 9 -7 34q-30 24 -62 29l-15 -390q33 0 67 9t51 18l17 9l28 -47q-7 -6 -20.5 -15t-57 -24t-88.5 -15zM134 323q0 -73 26 -125t80 -63l16 387
q-43 -4 -71.5 -34.5t-39.5 -72t-11 -92.5z" />
    <glyph glyph-name="sterling" unicode="&#xa3;" horiz-adv-x="571" 
d="M52 237l-2 35l102 4v72l-105 -5l-2 35l107 4v113q0 79 56 123t145 44q68 0 188 -32l-14 -147l-59 6v40q0 8 -12 56q-47 22 -104 22q-52 0 -80.5 -25.5t-28.5 -72.5v-123l212 10l2 -34l-214 -10v-72l217 10l2 -34l-219 -10v-79l7 -110h128q38 0 87 9q18 25 21 37
q12 47 15 67l55 -5l-15 -151l-19 -18q-94 4 -114 4h-221l-118 -5l-5 50l79 16q9 59 9 76v104z" />
    <glyph glyph-name="yen" unicode="&#xa5;" horiz-adv-x="645" 
d="M117 237l-1 35l150 6l-42 70l-110 -5l-2 35l92 4l-85 141q-42 48 -60 67l-54 9l7 54h99l154 5l5 -47l-78 -22q35 -78 42 -90l92 -153l118 199q3 5 19 45l-74 9l7 54h80l155 5l5 -47l-69 -19l-71 -79l-73 -122l101 5l1 -34l-123 -6l-38 -64v-9l163 7l2 -34l-165 -8v-81
l7 -110l78 -6l-6 -55q-88 4 -159 4l-95 -4l-5 52l77 9q10 60 10 80v107z" />
    <glyph glyph-name="brokenbar" unicode="&#xa6;" horiz-adv-x="279" 
d="M172 392l-65 8v360l65 -8v-360zM107 212l65 -7v-327l-65 9v325z" />
    <glyph glyph-name="section" unicode="&#xa7;" horiz-adv-x="537" 
d="M147 411l28 -17q-16 -19 -16 -43q0 -30 23 -54t57 -39.5t74 -35.5t74 -40.5t57 -55.5t23 -80q0 -78 -55 -119.5t-141 -41.5q-49 0 -94 11t-66 22l-21 11l12 136l55 -5v-39q0 -14 9 -54q51 -22 106 -22q43 0 68.5 23.5t25.5 67.5q0 38 -29 66t-70 47t-82.5 38.5
t-70.5 51.5t-29 74q0 25 19 53.5t43 44.5zM397 209l-29 17q18 21 18 46q0 34 -31.5 60t-76.5 45t-90 40.5t-76.5 59.5t-31.5 91q0 71 50 111.5t128 40.5q62 0 166 -26l-12 -131l-47 5v33q0 7 -12 45q-46 19 -97 19q-34 0 -56.5 -21.5t-22.5 -59.5q0 -33 29 -59.5t70.5 -46.5
t82.5 -41.5t70 -54t29 -74.5q0 -25 -18.5 -53t-42.5 -46z" />
    <glyph glyph-name="dieresis" unicode="&#xa8;" 
d="M298 713q54 0 54 -60q0 -59 -54 -59t-54 59q0 28 14 44t40 16zM62 713q54 0 54 -60q0 -59 -54 -59t-54 59q0 28 14 44t40 16z" />
    <glyph glyph-name="copyright" unicode="&#xa9;" horiz-adv-x="845" 
d="M567 49q-89 -20 -137 -20q-100 0 -152.5 59.5t-52.5 160.5t53 161t152 60q43 0 132 -20l-7 -101l-41 3v32q0 7 -7 28q-44 11 -76 11q-59 0 -91 -48.5t-32 -124.5t32 -125t91 -49q39 0 81 10q9 20 9 32l1 33l42 1zM788 250q0 -149 -107.5 -257t-258.5 -108
q-150 0 -257.5 106t-107.5 259q0 151 107.5 258t257.5 107q153 0 259.5 -106t106.5 -259zM743 250q0 132 -94.5 226.5t-226.5 94.5q-133 0 -227 -93.5t-94 -227.5q0 -132 94.5 -226.5t226.5 -94.5q133 0 227 94.5t94 226.5z" />
    <glyph glyph-name="ordfeminine" unicode="&#xaa;" horiz-adv-x="331" 
d="M214 450l-6 46q-28 -52 -91 -52q-42 0 -66.5 22.5t-24.5 60.5q0 70 82 83l93 15v19q0 68 -51 68q-32 0 -54 -11l-5 -25l1 -28l-42 -2l-9 95q59 16 113 16q118 0 118 -118v-78l6 -68l40 -4l-4 -42q-31 3 -100 3zM201 589l-64 -11q-36 -8 -36 -39q0 -42 39 -42q22 0 39 14
t22 37v41z" />
    <glyph glyph-name="guillemotleft" unicode="&#xab;" horiz-adv-x="416" 
d="M25 242l153 222l37 -25l-107 -197l107 -197l-37 -25zM188 242l150 218l36 -25l-104 -193l104 -193l-36 -25z" />
    <glyph glyph-name="logicalnot" unicode="&#xac;" horiz-adv-x="560" 
d="M55 307h455v-238h-71l2 171l-386 -4v71z" />
    <glyph glyph-name="registered" unicode="&#xae;" horiz-adv-x="845" 
d="M788 250q0 -149 -107.5 -257t-258.5 -108q-150 0 -257.5 106t-107.5 259q0 151 107.5 258t257.5 107q153 0 259.5 -106t106.5 -259zM743 250q0 132 -94.5 226.5t-226.5 94.5q-133 0 -227 -93.5t-94 -227.5q0 -132 94.5 -226.5t226.5 -94.5q133 0 227 94.5t94 226.5z
M560 350q0 -80 -79 -112q41 -80 61 -106q6 -11 30 -43l41 -5l-4 -37h-107l-12 33q-17 41 -18 43l-54 103h-53v-74q0 -20 3 -62l44 -6l-4 -37h-44l-114 -3l-6 33l50 13h1q0 3 1.5 12.5t2.5 18.5t1 13v251q0 5 -2.5 24t-2.5 20h-1l-47 4l4 34h49q15 0 62 3t63 3q64 0 99.5 -31
t35.5 -92zM400 260h11q85 7 85 89q0 44 -25.5 67t-70.5 23q-6 0 -32 -4q-3 -45 -3 -67v-106q13 -2 35 -2z" />
    <glyph glyph-name="macron" unicode="&#xaf;" 
d="M336 596h-317v53h322z" />
    <glyph glyph-name="degree" unicode="&#xb0;" 
d="M331 517q0 -69 -40.5 -109t-110.5 -40q-69 0 -109.5 40t-40.5 109t40.5 109t109.5 40q70 0 110.5 -40t40.5 -109zM107 517q0 -43 18.5 -70.5t55.5 -27.5t55 28t18 70t-18 70t-55 28t-55.5 -27.5t-18.5 -70.5z" />
    <glyph glyph-name="plusminus" unicode="&#xb1;" horiz-adv-x="560" 
d="M312 304l2 -195h-70v194l-192 -2v70h192v191h65l2 -191h196v-65zM52 66l455 5v-71h-455v66z" />
    <glyph glyph-name="two.sups" unicode="&#xb2;" horiz-adv-x="338" 
d="M155 854q64 0 99.5 -27t35.5 -75q0 -51 -36.5 -98.5t-146.5 -142.5h92q5 0 14.5 1t22 2.5t19.5 2.5q8 19 8 26l4 25l42 -3l-5 -105l-16 -12q-57 2 -70 2h-189l-9 54q119 109 154.5 153.5t35.5 85.5q0 29 -17.5 45.5t-46.5 16.5q-30 0 -58 -16q-6 -17 -6 -26l1 -27l-43 -3
l-6 99q58 22 121 22z" />
    <glyph glyph-name="three.sups" unicode="&#xb3;" horiz-adv-x="307" 
d="M19 836q54 18 105 18q133 0 133 -104q0 -64 -71 -97q40 -9 64 -36t24 -62q0 -64 -69.5 -111.5t-177.5 -57.5l-12 39q79 11 127.5 45.5t48.5 79.5q0 33 -19 51t-53 18l-41 -2l-9 39q109 15 109 93q0 60 -57 60q-23 0 -46 -10q-6 -25 -6 -30l1 -29l-43 -2z" />
    <glyph glyph-name="acute" unicode="&#xb4;" 
d="M246 755l47 -60q-106 -60 -121 -71l-73 -60l-33 41z" />
    <glyph glyph-name="mu" unicode="&#xb5;" horiz-adv-x="580" 
d="M396 491l6 6q26 -3 37 -3l46 3l6 -6q-7 -114 -7 -164v-190q0 -46 12 -67t52 -43l-19 -42q-4 2 -23 8.5t-26 9t-22 10t-22 14t-15.5 17.5t-12.5 24q-47 -78 -144 -78q-61 0 -99 43l5 -110l20 -129l-9 -8h-22l-58 -4l-9 8q-1 20 1 91t2 72v404l-7 134l6 6q30 -3 37 -3l46 3
l6 -6q-7 -114 -7 -164v-144q0 -129 101 -129q59 0 92.5 46t33.5 110v147z" />
    <glyph glyph-name="mu" unicode="&#x3bc;" horiz-adv-x="580" 
d="M396 491l6 6q26 -3 37 -3l46 3l6 -6q-7 -114 -7 -164v-190q0 -46 12 -67t52 -43l-19 -42q-4 2 -23 8.5t-26 9t-22 10t-22 14t-15.5 17.5t-12.5 24q-47 -78 -144 -78q-61 0 -99 43l5 -110l20 -129l-9 -8h-22l-58 -4l-9 8q-1 20 1 91t2 72v404l-7 134l6 6q30 -3 37 -3l46 3
l6 -6q-7 -114 -7 -164v-144q0 -129 101 -129q59 0 92.5 46t33.5 110v147z" />
    <glyph glyph-name="paragraph" unicode="&#xb6;" horiz-adv-x="556" 
d="M17 502q0 105 58.5 159t164.5 54q22 0 50 -3v-396l-27 -25q-105 0 -175.5 56.5t-70.5 154.5zM436 641h-1q-8 -64 -8 -73v-521l9 -119l-19 -18h-13l-164 -5l-5 47l96 22q9 40 9 103v610l19 18l151 5l5 -53z" />
    <glyph glyph-name="periodcentered" unicode="&#xb7;" horiz-adv-x="213" 
d="M104 369q30 0 47 -18.5t17 -51.5q0 -31 -17 -50t-47 -19t-47 19t-17 50t17 50.5t47 19.5z" />
    <glyph glyph-name="cedilla" unicode="&#xb8;" 
d="M208 10l-14 -69q45 -1 73 -24t28 -63t-31 -64.5t-76 -24.5t-83 18l13 35q35 -11 58 -11q24 0 39 12.5t15 34.5q0 43 -47 43l-21 -1l-11 10l9 104h48z" />
    <glyph glyph-name="one.sups" unicode="&#xb9;" horiz-adv-x="262" 
d="M238 494l-4 -47q-41 3 -103 3l-79 -3l-3 43l60 8l3 22q2 21 2 28v210l-71 -32l-20 33q74 56 86 66l30 35l49 -7q-5 -113 -5 -143v-144q0 -50 6 -68z" />
    <glyph glyph-name="ordmasculine" unicode="&#xba;" horiz-adv-x="345" 
d="M321 599q0 -74 -38.5 -115.5t-110.5 -41.5t-110 41.5t-38 115.5q0 75 38 116.5t110 41.5t110.5 -41.5t38.5 -116.5zM240 599q0 113 -68 113q-67 0 -67 -113q0 -112 67 -112q68 0 68 112z" />
    <glyph glyph-name="guillemotright" unicode="&#xbb;" horiz-adv-x="415" 
d="M391 241l-153 -222l-37 25l106 197l-106 197l37 25zM228 241l-150 -218l-36 25l104 193l-104 193l36 25z" />
    <glyph glyph-name="onequarter" unicode="&#xbc;" horiz-adv-x="739" 
d="M238 344l-4 -47q-41 3 -103 3l-79 -3l-3 43l60 8l3 22q2 21 2 28v210l-71 -32l-20 33q74 56 86 66l30 35l49 -7q-5 -113 -5 -143v-144q0 -50 6 -68zM534 721l50 -32l-433 -738l-51 32zM614 466l54 -43q-69 -70 -79 -84l-125 -173h114v71l66 24v-90l59 3v-54h-59v-21
q0 -11 1 -23t2.5 -19.5t1.5 -8.5l48 -4l-4 -47q-45 3 -105 3l-81 -3l-3 42l68 9q6 18 6 44v28h-154l-38 46z" />
    <glyph glyph-name="onehalf" unicode="&#xbd;" horiz-adv-x="760" 
d="M238 344l-4 -47q-41 3 -103 3l-79 -3l-3 43l60 8l3 22q2 21 2 28v210l-71 -32l-20 33q74 56 86 66l30 35l49 -7q-5 -113 -5 -143v-144q0 -50 6 -68zM534 721l50 -32l-433 -738l-51 32zM567 417q64 0 99.5 -28t35.5 -78q0 -52 -36.5 -101.5t-146.5 -148.5h92q5 0 14.5 1
t22 2.5t19.5 2.5q8 19 8 26l4 25l42 -3l-5 -105l-16 -12q-57 2 -70 2h-189l-9 54q119 114 154.5 160.5t35.5 88.5q0 30 -17.5 47.5t-46.5 17.5q-33 0 -61 -16q-6 -16 -6 -36l1 -27l-43 -3l-6 109q58 22 124 22z" />
    <glyph glyph-name="threequarters" unicode="&#xbe;" horiz-adv-x="754" 
d="M19 686q54 18 105 18q133 0 133 -104q0 -64 -71 -97q40 -9 64 -36t24 -62q0 -64 -69.5 -111.5t-177.5 -57.5l-12 39q79 11 127.5 45.5t48.5 79.5q0 33 -19 51t-53 18l-41 -2l-9 39q109 15 109 93q0 60 -57 60q-23 0 -46 -10q-6 -25 -6 -30l1 -29l-43 -2zM549 721l50 -32
l-433 -738l-51 32zM629 466l54 -43q-69 -70 -79 -84l-125 -173h114v71l66 24v-90l59 3v-54h-59v-21q0 -11 1.5 -23t2.5 -19.5t1 -8.5l48 -4l-4 -47q-45 3 -105 3l-81 -3l-3 42l68 9q6 18 6 44v28h-154l-38 46z" />
    <glyph glyph-name="questiondown" unicode="&#xbf;" horiz-adv-x="403" 
d="M266 503q28 0 43.5 -17t15.5 -48q0 -29 -15.5 -46.5t-43.5 -17.5t-43.5 17.5t-15.5 46.5t15.5 47t43.5 18zM105 -18q0 -69 32 -114t93 -45q50 0 84 26q6 21 6 58l-2 36h58l12 -138q-84 -39 -157 -39q-102 0 -161 57.5t-59 159.5q0 91 63 145t159 54l-4 88l7 6
q18 -3 68 -3l4 -3v-129l-26 -24q-30 4 -51 4q-59 0 -92.5 -38.5t-33.5 -100.5z" />
    <glyph glyph-name="Agrave" unicode="&#xc0;" horiz-adv-x="664" 
d="M660 54l-5 -54h-101l-143 -5l-4 49l73 20l-27 108l-21 60h-220l-32 -105l-10 -63l70 -10l-5 -54h-86l-135 -5l-4 49l63 17l43 99l179 545l58 10l206 -566l39 -85zM318 557l-88 -275l182 4zM182 825l30 73l229 -100l-20 -48l-88 37z" />
    <glyph glyph-name="Aacute" unicode="&#xc1;" horiz-adv-x="664" 
d="M660 54l-5 -54h-101l-143 -5l-4 49l73 20l-27 108l-21 60h-220l-32 -105l-10 -63l70 -10l-5 -54h-86l-135 -5l-4 49l63 17l43 99l179 545l58 10l206 -566l39 -85zM318 557l-88 -275l182 4zM451 898l30 -73q-132 -32 -151 -38l-88 -37l-20 48z" />
    <glyph glyph-name="Acircumflex" unicode="&#xc2;" horiz-adv-x="664" 
d="M660 54l-5 -54h-101l-143 -5l-4 49l73 20l-27 108l-21 60h-220l-32 -105l-10 -63l70 -10l-5 -54h-86l-135 -5l-4 49l63 17l43 99l179 545l58 10l206 -566l39 -85zM318 557l-88 -275l182 4zM332 893l174 -107l-23 -39l-88 41l-63 25l-63 -25l-88 -41l-23 39z" />
    <glyph glyph-name="Atilde" unicode="&#xc3;" horiz-adv-x="664" 
d="M660 54l-5 -54h-101l-143 -5l-4 49l73 20l-27 108l-21 60h-220l-32 -105l-10 -63l70 -10l-5 -54h-86l-135 -5l-4 49l63 17l43 99l179 545l58 10l206 -566l39 -85zM318 557l-88 -275l182 4zM464 882l36 -21q-5 -11 -13 -27.5t-30 -43.5t-40 -27q-20 0 -82 20.5t-82 20.5
q-12 0 -25.5 -13.5t-20.5 -26.5l-7 -14l-36 21q5 11 13 28t29.5 45t39.5 28q20 0 82.5 -20.5t82.5 -20.5q12 0 25.5 12.5t20.5 25.5z" />
    <glyph glyph-name="Adieresis" unicode="&#xc4;" horiz-adv-x="664" 
d="M660 54l-5 -54h-101l-143 -5l-4 49l73 20l-27 108l-21 60h-220l-32 -105l-10 -63l70 -10l-5 -54h-86l-135 -5l-4 49l63 17l43 99l179 545l58 10l206 -566l39 -85zM318 557l-88 -275l182 4zM450 884q54 0 54 -60q0 -59 -54 -59t-54 59q0 28 14 44t40 16zM214 884
q54 0 54 -60q0 -59 -54 -59t-54 59q0 28 14 44t40 16z" />
    <glyph glyph-name="Aring" unicode="&#xc5;" horiz-adv-x="664" 
d="M660 54l-5 -54h-101l-143 -5l-4 49l73 20l-27 108l-21 60h-220l-32 -105l-10 -63l70 -10l-5 -54h-86l-135 -5l-4 49l63 17l43 99l179 545l58 10l206 -566l39 -85zM332 916q44 0 66.5 -23t22.5 -63q0 -39 -22.5 -62t-66.5 -23t-67 23t-23 62q0 40 23 63t67 23zM318 557
l-88 -275l182 4zM332 878q-41 0 -41 -48q0 -47 41 -47q42 0 42 47q0 48 -42 48z" />
    <glyph glyph-name="AE" unicode="&#xc6;" horiz-adv-x="907" 
d="M820 697l7 -136l-58 -5q-3 24 -11 54q-1 9 -20 33q-55 5 -81 5h-181q7 -78 11 -107l24 -155q56 -4 76 -4h48l60 9l9 66l46 -5q-1 -60 -1 -80l3 -109l-48 -6l-9 67q-60 6 -80 6h-28q-15 0 -67 -4l24 -152l25 -117h122q37 0 87 9q17 24 21 37q12 47 15 67l55 -5l-15 -151
l-19 -18q-94 4 -114 4h-218l-118 -5l-5 50l82 16q0 36 -5 69l-18 118h-214l-69 -146q-2 -5 -6 -20t-6 -21l82 -7l-7 -59q-51 5 -131 5l-93 -5l-5 50l60 16q52 72 61 92l234 491l-78 12l5 54q96 -5 116 -5h299l114 10zM250 299l181 3l-39 254l-7 28z" />
    <glyph glyph-name="Ccedilla" unicode="&#xc7;" horiz-adv-x="610" 
d="M569 170l6 -151q-113 -29 -183 -33l-9 -45q45 -1 73 -24t28 -63t-31 -64.5t-76 -24.5t-83 18l13 35q35 -11 58 -11q24 0 39 12.5t15 34.5q0 43 -47 43l-21 -1l-11 10l7 80q-148 4 -226.5 102.5t-78.5 263.5q0 168 81.5 268t235.5 100q73 0 207 -34l-10 -148l-59 4v47
q0 10 -12 50q-69 23 -126 23q-104 0 -159 -86.5t-55 -222.5t55 -223t158 -87q65 0 136 22q14 46 14 56l2 47z" />
    <glyph glyph-name="Egrave" unicode="&#xc8;" horiz-adv-x="588" 
d="M44 656l5 54q96 -5 116 -5h224l114 10l19 -18l7 -136l-58 -5q-3 24 -11 54q-1 10 -20 34q-55 5 -81 5h-131q-7 -73 -7 -111v-142q34 -2 43 -2h73l60 9l9 66l46 -5q-1 -64 -1 -84l3 -109l-48 -6l-9 67q-60 6 -80 6h-53q-18 0 -43 -3v-168q0 -43 7 -110h144q38 0 87 9
q19 26 21 37q1 4 7.5 31t7.5 36l55 -5l-15 -151l-19 -18q-94 4 -114 4h-237l-118 -5l-5 50l79 16q9 59 9 76v431q0 18 -9 76zM144 825l30 73l229 -100l-20 -48l-88 37z" />
    <glyph glyph-name="Eacute" unicode="&#xc9;" horiz-adv-x="588" 
d="M44 656l5 54q96 -5 116 -5h224l114 10l19 -18l7 -136l-58 -5q-3 24 -11 54q-1 10 -20 34q-55 5 -81 5h-131q-7 -73 -7 -111v-142q34 -2 43 -2h73l60 9l9 66l46 -5q-1 -64 -1 -84l3 -109l-48 -6l-9 67q-60 6 -80 6h-53q-18 0 -43 -3v-168q0 -43 7 -110h144q38 0 87 9
q19 26 21 37q1 4 7.5 31t7.5 36l55 -5l-15 -151l-19 -18q-94 4 -114 4h-237l-118 -5l-5 50l79 16q9 59 9 76v431q0 18 -9 76zM413 898l30 -73q-132 -32 -151 -38l-88 -37l-20 48z" />
    <glyph glyph-name="Ecircumflex" unicode="&#xca;" horiz-adv-x="588" 
d="M44 656l5 54q96 -5 116 -5h224l114 10l19 -18l7 -136l-58 -5q-3 24 -11 54q-1 10 -20 34q-55 5 -81 5h-131q-7 -73 -7 -111v-142q34 -2 43 -2h73l60 9l9 66l46 -5q-1 -64 -1 -84l3 -109l-48 -6l-9 67q-60 6 -80 6h-53q-18 0 -43 -3v-168q0 -43 7 -110h144q38 0 87 9
q19 26 21 37q1 4 7.5 31t7.5 36l55 -5l-15 -151l-19 -18q-94 4 -114 4h-237l-118 -5l-5 50l79 16q9 59 9 76v431q0 18 -9 76zM294 893l174 -107l-23 -39l-88 41l-63 25l-63 -25l-88 -41l-23 39z" />
    <glyph glyph-name="Edieresis" unicode="&#xcb;" horiz-adv-x="588" 
d="M44 656l5 54q96 -5 116 -5h224l114 10l19 -18l7 -136l-58 -5q-3 24 -11 54q-1 10 -20 34q-55 5 -81 5h-131q-7 -73 -7 -111v-142q34 -2 43 -2h73l60 9l9 66l46 -5q-1 -64 -1 -84l3 -109l-48 -6l-9 67q-60 6 -80 6h-53q-18 0 -43 -3v-168q0 -43 7 -110h144q38 0 87 9
q19 26 21 37q1 4 7.5 31t7.5 36l55 -5l-15 -151l-19 -18q-94 4 -114 4h-237l-118 -5l-5 50l79 16q9 59 9 76v431q0 18 -9 76zM412 884q54 0 54 -60q0 -59 -54 -59t-54 59q0 28 14 44t40 16zM176 884q54 0 54 -60q0 -59 -54 -59t-54 59q0 28 14 44t40 16z" />
    <glyph glyph-name="Igrave" unicode="&#xcc;" horiz-adv-x="363" 
d="M308 710l4 -59l-78 -7q-7 -49 -7 -106v-371q0 -57 7 -106l90 -7l-7 -59q-66 5 -146 5l-118 -5l-5 50l79 16q9 59 9 76v431q0 18 -9 76l-77 12l5 54q96 -5 116 -5zM32 825l30 73l229 -100l-20 -48l-88 37z" />
    <glyph glyph-name="Iacute" unicode="&#xcd;" horiz-adv-x="363" 
d="M308 710l4 -59l-78 -7q-7 -49 -7 -106v-371q0 -57 7 -106l90 -7l-7 -59q-66 5 -146 5l-118 -5l-5 50l79 16q9 59 9 76v431q0 18 -9 76l-77 12l5 54q96 -5 116 -5zM301 898l30 -73q-132 -32 -151 -38l-88 -37l-20 48z" />
    <glyph glyph-name="Icircumflex" unicode="&#xce;" horiz-adv-x="363" 
d="M308 710l4 -59l-78 -7q-7 -49 -7 -106v-371q0 -57 7 -106l90 -7l-7 -59q-66 5 -146 5l-118 -5l-5 50l79 16q9 59 9 76v431q0 18 -9 76l-77 12l5 54q96 -5 116 -5zM182 893l174 -107l-23 -39l-88 41l-63 25l-63 -25l-88 -41l-23 39z" />
    <glyph glyph-name="Eth" unicode="&#xd0;" horiz-adv-x="721" 
d="M44 656l5 54q64 -3 98 -5q26 1 88 5.5t99 4.5q165 0 255 -97t90 -266q0 -162 -92.5 -260t-252.5 -98q-18 0 -77 3t-92 3l-118 -5l-5 50l79 16q9 59 9 76v200h-88v43h88v188q0 18 -9 76zM221 337v-170q0 -82 7 -110q52 -4 107 -4q120 0 182.5 84t62.5 215q0 133 -62.5 218
t-182.5 85q-65 0 -107 -5q-7 -66 -7 -112v-158h143l-5 -43h-138z" />
    <glyph glyph-name="Ntilde" unicode="&#xd1;" horiz-adv-x="761" 
d="M741 710l5 -53l-79 -16q-15 -71 -15 -113v-231l-1 -304h-60l-394 563v-389q0 -57 7 -106l81 -7l-7 -59q-43 5 -123 5l-108 -5l-5 50l79 16q9 59 9 76v431q0 8 -9 76l-80 12l5 54q96 -5 116 -5l44 1l20 -21q82 -133 97 -155l262 -367v395q0 29 -9 83l-79 6l6 60l82 -2z
M513 882l36 -21q-5 -11 -13 -27.5t-30 -43.5t-40 -27q-20 0 -82 20.5t-82 20.5q-12 0 -25 -13.5t-21 -26.5l-7 -14l-36 21q5 11 13 28t29.5 45t39.5 28q20 0 82.5 -20.5t82.5 -20.5q12 0 25 12.5t21 25.5z" />
    <glyph glyph-name="Ograve" unicode="&#xd2;" horiz-adv-x="740" 
d="M698 352q0 -168 -84.5 -267.5t-243.5 -99.5t-243.5 99.5t-84.5 267.5t84.5 268t243.5 100t243.5 -100t84.5 -268zM149 352q0 -138 57 -226t164 -88t164 88t57 226t-57 226.5t-164 88.5t-164 -88.5t-57 -226.5zM220 825l30 73l229 -100l-20 -48l-88 37z" />
    <glyph glyph-name="Oacute" unicode="&#xd3;" horiz-adv-x="740" 
d="M698 352q0 -168 -84.5 -267.5t-243.5 -99.5t-243.5 99.5t-84.5 267.5t84.5 268t243.5 100t243.5 -100t84.5 -268zM149 352q0 -138 57 -226t164 -88t164 88t57 226t-57 226.5t-164 88.5t-164 -88.5t-57 -226.5zM489 898l30 -73q-132 -32 -151 -38l-88 -37l-20 48z" />
    <glyph glyph-name="Ocircumflex" unicode="&#xd4;" horiz-adv-x="740" 
d="M698 352q0 -168 -84.5 -267.5t-243.5 -99.5t-243.5 99.5t-84.5 267.5t84.5 268t243.5 100t243.5 -100t84.5 -268zM149 352q0 -138 57 -226t164 -88t164 88t57 226t-57 226.5t-164 88.5t-164 -88.5t-57 -226.5zM370 893l174 -107l-23 -39l-88 41l-63 25l-63 -25l-88 -41
l-23 39z" />
    <glyph glyph-name="Otilde" unicode="&#xd5;" horiz-adv-x="740" 
d="M698 352q0 -168 -84.5 -267.5t-243.5 -99.5t-243.5 99.5t-84.5 267.5t84.5 268t243.5 100t243.5 -100t84.5 -268zM149 352q0 -138 57 -226t164 -88t164 88t57 226t-57 226.5t-164 88.5t-164 -88.5t-57 -226.5zM502 882l36 -21q-5 -11 -13 -27.5t-30 -43.5t-40 -27
q-20 0 -82 20.5t-82 20.5q-12 0 -25.5 -13.5t-20.5 -26.5l-7 -14l-36 21q5 11 13 28t29.5 45t39.5 28q20 0 82.5 -20.5t82.5 -20.5q12 0 25.5 12.5t20.5 25.5z" />
    <glyph glyph-name="multiply" unicode="&#xd7;" horiz-adv-x="538" 
d="M268 299l156 158l53 -53l-156 -156l157 -154l-53 -53l-156 155l-157 -156l-50 50l155 158l-157 157l50 50z" />
    <glyph glyph-name="Oslash" unicode="&#xd8;" horiz-adv-x="740" 
d="M698 352q0 -168 -84.5 -267.5t-243.5 -99.5q-84 0 -150 30l-80 -151l-40 23l79 151q-137 93 -137 314q0 168 84.5 268t243.5 100q85 0 152 -31l78 149l42 -23l-79 -150q135 -96 135 -313zM149 352q0 -156 68 -242l272 517q-51 40 -119 40q-107 0 -164 -88.5t-57 -226.5z
M591 352q0 154 -67 240l-272 -516q51 -38 118 -38q107 0 164 88t57 226z" />
    <glyph glyph-name="Ugrave" unicode="&#xd9;" horiz-adv-x="727" 
d="M704 710l4 -59l-79 -7q-7 -52 -7 -111v-267q0 -131 -66.5 -206t-192.5 -75t-192 75t-66 206v297q0 13 -9 81l-79 12l5 54q96 -5 116 -5l144 5l4 -59l-79 -7q-7 -52 -7 -111v-267q0 -99 44 -158t128 -59q87 0 132.5 59.5t45.5 157.5v297q0 11 -10 81l-78 12l5 54
q86 -5 106 -5zM215 825l30 73l229 -100l-20 -48l-88 37z" />
    <glyph glyph-name="Uacute" unicode="&#xda;" horiz-adv-x="727" 
d="M704 710l4 -59l-79 -7q-7 -52 -7 -111v-267q0 -131 -66.5 -206t-192.5 -75t-192 75t-66 206v297q0 13 -9 81l-79 12l5 54q96 -5 116 -5l144 5l4 -59l-79 -7q-7 -52 -7 -111v-267q0 -99 44 -158t128 -59q87 0 132.5 59.5t45.5 157.5v297q0 11 -10 81l-78 12l5 54
q86 -5 106 -5zM484 898l30 -73q-132 -32 -151 -38l-88 -37l-20 48z" />
    <glyph glyph-name="Ucircumflex" unicode="&#xdb;" horiz-adv-x="727" 
d="M704 710l4 -59l-79 -7q-7 -52 -7 -111v-267q0 -131 -66.5 -206t-192.5 -75t-192 75t-66 206v297q0 13 -9 81l-79 12l5 54q96 -5 116 -5l144 5l4 -59l-79 -7q-7 -52 -7 -111v-267q0 -99 44 -158t128 -59q87 0 132.5 59.5t45.5 157.5v297q0 11 -10 81l-78 12l5 54
q86 -5 106 -5zM365 893l174 -107l-23 -39l-88 41l-63 25l-63 -25l-88 -41l-23 39z" />
    <glyph glyph-name="Udieresis" unicode="&#xdc;" horiz-adv-x="727" 
d="M704 710l4 -59l-79 -7q-7 -52 -7 -111v-267q0 -131 -66.5 -206t-192.5 -75t-192 75t-66 206v297q0 13 -9 81l-79 12l5 54q96 -5 116 -5l144 5l4 -59l-79 -7q-7 -52 -7 -111v-267q0 -99 44 -158t128 -59q87 0 132.5 59.5t45.5 157.5v297q0 11 -10 81l-78 12l5 54
q86 -5 106 -5zM483 884q54 0 54 -60q0 -59 -54 -59t-54 59q0 28 14 44t40 16zM247 884q54 0 54 -60q0 -59 -54 -59t-54 59q0 28 14 44t40 16z" />
    <glyph glyph-name="Thorn" unicode="&#xde;" horiz-adv-x="585" 
d="M306 651l-78 -7q-4 -24 -6 -77q76 6 110 6q106 0 164.5 -54t58.5 -159q0 -98 -70.5 -154.5t-175.5 -56.5q-32 0 -88 2q1 -57 7 -90l90 -7l-7 -59q-66 5 -146 5l-118 -5l-5 50l79 16q9 59 9 76v431q0 18 -9 76l-77 12l5 54q96 -5 116 -5l137 5zM221 517v-313q42 -5 68 -5
q80 0 126 41t46 120t-45.5 121t-125.5 42q-17 0 -69 -6z" />
    <glyph glyph-name="germandbls" unicode="&#xdf;" horiz-adv-x="625" 
d="M34 45l79 16q9 59 9 76v303h-77l-3 42q9 3 28 8.5t30.5 10t21.5 10.5v66q0 93 53.5 143t148.5 50q87 0 146.5 -42t59.5 -119q0 -40 -15.5 -70t-38 -48.5t-44.5 -34t-37.5 -35.5t-15.5 -44t24 -44.5t58.5 -38t68.5 -37.5t58 -52.5t24 -72.5q0 -142 -163 -142q-40 0 -79 10
t-58 20l-19 9l11 136l58 -3v-38q0 -12 12 -60q26 -23 74 -23q79 0 79 76q0 29 -23.5 51.5t-57.5 39t-68 36t-57.5 51.5t-23.5 75q0 37 17 65t40.5 45t47.5 33.5t41 40t17 55.5q0 47 -38.5 74.5t-97.5 27.5q-73 0 -97 -39.5t-24 -125.5v-379q0 -63 6 -167h-52l-118 -5z" />
    <glyph glyph-name="agrave" unicode="&#xe0;" horiz-adv-x="516" 
d="M363 0l-14 79q-19 -38 -64.5 -63.5t-94.5 -25.5q-67 0 -106 34.5t-39 93.5q0 111 134 133l160 27v33q0 138 -94 138q-53 0 -95 -20l-7 -42v-41l-58 -3l-11 136q90 24 181 24q89 0 127 -48.5t38 -163.5v-124q0 -22 2.5 -48.5t5.5 -42.5l2 -15l69 -7l-7 -59q-49 5 -129 5z
M339 227l-143 -27q-30 -5 -46.5 -23t-16.5 -44q0 -38 19 -58.5t54 -20.5q50 0 87.5 32t45.5 81v60zM341 605l-33 -41l-73 60l-121 71l47 60z" />
    <glyph glyph-name="aacute" unicode="&#xe1;" horiz-adv-x="516" 
d="M363 0l-14 79q-19 -38 -64.5 -63.5t-94.5 -25.5q-67 0 -106 34.5t-39 93.5q0 111 134 133l160 27v33q0 138 -94 138q-53 0 -95 -20l-7 -42v-41l-58 -3l-11 136q90 24 181 24q89 0 127 -48.5t38 -163.5v-124q0 -22 2.5 -48.5t5.5 -42.5l2 -15l69 -7l-7 -59q-49 5 -129 5z
M339 227l-143 -27q-30 -5 -46.5 -23t-16.5 -44q0 -38 19 -58.5t54 -20.5q50 0 87.5 32t45.5 81v60zM334 755l47 -60q-106 -60 -121 -71l-73 -60l-33 41z" />
    <glyph glyph-name="acircumflex" unicode="&#xe2;" horiz-adv-x="516" 
d="M363 0l-14 79q-19 -38 -64.5 -63.5t-94.5 -25.5q-67 0 -106 34.5t-39 93.5q0 111 134 133l160 27v33q0 138 -94 138q-53 0 -95 -20l-7 -42v-41l-58 -3l-11 136q90 24 181 24q89 0 127 -48.5t38 -163.5v-124q0 -22 2.5 -48.5t5.5 -42.5l2 -15l69 -7l-7 -59q-49 5 -129 5z
M339 227l-143 -27q-30 -5 -46.5 -23t-16.5 -44q0 -38 19 -58.5t54 -20.5q50 0 87.5 32t45.5 81v60zM248 765l166 -169l-33 -32l-74 61l-59 43q-10 -7 -24.5 -17.5t-23 -16.5t-11.5 -9l-74 -61l-33 32z" />
    <glyph glyph-name="atilde" unicode="&#xe3;" horiz-adv-x="516" 
d="M363 0l-14 79q-19 -38 -64.5 -63.5t-94.5 -25.5q-67 0 -106 34.5t-39 93.5q0 111 134 133l160 27v33q0 138 -94 138q-53 0 -95 -20l-7 -42v-41l-58 -3l-11 136q90 24 181 24q89 0 127 -48.5t38 -163.5v-124q0 -22 2.5 -48.5t5.5 -42.5l2 -15l69 -7l-7 -59q-49 5 -129 5z
M339 227l-143 -27q-30 -5 -46.5 -23t-16.5 -44q0 -38 19 -58.5t54 -20.5q50 0 87.5 32t45.5 81v60zM375 723l36 -21q-5 -11 -13 -27.5t-30 -43.5t-40 -27q-20 0 -77 20.5t-77 20.5q-12 0 -25 -13.5t-21 -27.5l-7 -13l-36 21q5 11 13 28t29.5 45t39.5 28q20 0 77.5 -20.5
t77.5 -20.5q12 0 25 13t21 25z" />
    <glyph glyph-name="adieresis" unicode="&#xe4;" horiz-adv-x="516" 
d="M363 0l-14 79q-19 -38 -64.5 -63.5t-94.5 -25.5q-67 0 -106 34.5t-39 93.5q0 111 134 133l160 27v33q0 138 -94 138q-53 0 -95 -20l-7 -42v-41l-58 -3l-11 136q90 24 181 24q89 0 127 -48.5t38 -163.5v-124q0 -22 2.5 -48.5t5.5 -42.5l2 -15l69 -7l-7 -59q-49 5 -129 5z
M339 227l-143 -27q-30 -5 -46.5 -23t-16.5 -44q0 -38 19 -58.5t54 -20.5q50 0 87.5 32t45.5 81v60zM366 713q54 0 54 -60q0 -59 -54 -59t-54 59q0 28 14 44t40 16zM130 713q54 0 54 -60q0 -59 -54 -59t-54 59q0 28 14 44t40 16z" />
    <glyph glyph-name="aring" unicode="&#xe5;" horiz-adv-x="516" 
d="M363 0l-14 79q-19 -38 -64.5 -63.5t-94.5 -25.5q-67 0 -106 34.5t-39 93.5q0 111 134 133l160 27v33q0 138 -94 138q-53 0 -95 -20l-7 -42v-41l-58 -3l-11 136q90 24 181 24q89 0 127 -48.5t38 -163.5v-124q0 -22 2.5 -48.5t5.5 -42.5l2 -15l69 -7l-7 -59q-49 5 -129 5z
M339 227l-143 -27q-30 -5 -46.5 -23t-16.5 -44q0 -38 19 -58.5t54 -20.5q50 0 87.5 32t45.5 81v60zM248 751q44 0 66.5 -23t22.5 -63q0 -39 -22.5 -62t-66.5 -23t-67 23t-23 62q0 40 23 63t67 23zM248 713q-41 0 -41 -48q0 -47 41 -47q42 0 42 47q0 48 -42 48z" />
    <glyph glyph-name="ae" unicode="&#xe6;" horiz-adv-x="756" 
d="M80 344l-11 135q90 24 181 24q103 0 138 -65q59 64 150 64q176 0 190 -192l-15 -38l-299 -34q3 -82 43.5 -132.5t102.5 -50.5q35 0 70 10.5t52 20.5l17 10l28 -46q-8 -7 -23.5 -17t-61.5 -26.5t-92 -16.5q-134 0 -185 116q-68 -116 -180 -116q-67 0 -106 36t-39 97
q0 51 29.5 83t85.5 41l179 30v34q0 138 -94 138q-55 0 -93 -19l-9 -47v-36zM334 226l-143 -26q-34 -7 -48.5 -23.5t-14.5 -48.5q0 -35 19 -54.5t54 -19.5q56 0 94.5 46.5t38.5 114.5v11zM534 450q-51 0 -82 -42t-36 -119l222 31v2q0 61 -27.5 94.5t-76.5 33.5z" />
    <glyph glyph-name="ccedilla" unicode="&#xe7;" horiz-adv-x="466" 
d="M270 503q11 0 21.5 -1t19 -1.5t20 -3.5t17 -4t19 -5t18.5 -5.5t21 -7t21 -7.5l-10 -125l-58 3v36q0 10 -7 34q-36 30 -82 30q-70 0 -103 -58t-33 -142q0 -83 33 -137t103 -54q35 0 70 9t52 18l18 9l28 -47q-6 -5 -18 -13t-50.5 -22.5t-78.5 -17.5l-10 -50q45 -1 73 -24
t28 -63t-31 -64.5t-76 -24.5t-83 18l13 35q35 -11 58 -11q24 0 39 12.5t15 34.5q0 43 -47 43l-21 -1l-11 10l7 85q-100 7 -152.5 75t-52.5 180q0 118 59 187.5t171 69.5z" />
    <glyph glyph-name="egrave" unicode="&#xe8;" horiz-adv-x="478" 
d="M258 503q192 0 192 -233l-17 -33h-299q2 -74 37.5 -128t98.5 -54q38 0 75 10.5t55 20.5l19 10l28 -46q-7 -7 -21 -17t-60 -26.5t-96 -16.5q-111 0 -170.5 69.5t-59.5 185.5q0 117 55.5 187.5t162.5 70.5zM254 451q-105 0 -119 -164l222 17q1 15 1 20q0 56 -26.5 91.5
t-77.5 35.5zM354 605l-33 -41l-73 60l-121 71l47 60z" />
    <glyph glyph-name="eacute" unicode="&#xe9;" horiz-adv-x="478" 
d="M258 503q192 0 192 -233l-17 -33h-299q2 -74 37.5 -128t98.5 -54q38 0 75 10.5t55 20.5l19 10l28 -46q-7 -7 -21 -17t-60 -26.5t-96 -16.5q-111 0 -170.5 69.5t-59.5 185.5q0 117 55.5 187.5t162.5 70.5zM254 451q-105 0 -119 -164l222 17q1 15 1 20q0 56 -26.5 91.5
t-77.5 35.5zM347 755l47 -60q-106 -60 -121 -71l-73 -60l-33 41z" />
    <glyph glyph-name="ecircumflex" unicode="&#xea;" horiz-adv-x="478" 
d="M258 503q192 0 192 -233l-17 -33h-299q2 -74 37.5 -128t98.5 -54q38 0 75 10.5t55 20.5l19 10l28 -46q-7 -7 -21 -17t-60 -26.5t-96 -16.5q-111 0 -170.5 69.5t-59.5 185.5q0 117 55.5 187.5t162.5 70.5zM254 451q-105 0 -119 -164l222 17q1 15 1 20q0 56 -26.5 91.5
t-77.5 35.5zM261 765l166 -169l-33 -32l-74 61l-59 43q-10 -7 -24.5 -17.5t-23 -16.5t-11.5 -9l-74 -61l-33 32z" />
    <glyph glyph-name="edieresis" unicode="&#xeb;" horiz-adv-x="478" 
d="M258 503q192 0 192 -233l-17 -33h-299q2 -74 37.5 -128t98.5 -54q38 0 75 10.5t55 20.5l19 10l28 -46q-7 -7 -21 -17t-60 -26.5t-96 -16.5q-111 0 -170.5 69.5t-59.5 185.5q0 117 55.5 187.5t162.5 70.5zM254 451q-105 0 -119 -164l222 17q1 15 1 20q0 56 -26.5 91.5
t-77.5 35.5zM379 713q54 0 54 -60q0 -59 -54 -59t-54 59q0 28 14 44t40 16zM143 713q54 0 54 -60q0 -59 -54 -59t-54 59q0 28 14 44t40 16z" />
    <glyph glyph-name="igrave" unicode="&#xec;" horiz-adv-x="301" 
d="M288 54l-7 -59q-49 5 -129 5l-111 -5l-5 50l76 16q10 56 10 76v216l-10 76l-76 16l5 53q72 -4 92 -4h58l19 -18q-7 -103 -7 -153v-156l7 -106zM244 605l-33 -41l-73 60l-121 71l47 60z" />
    <glyph glyph-name="iacute" unicode="&#xed;" horiz-adv-x="301" 
d="M288 54l-7 -59q-49 5 -129 5l-111 -5l-5 50l76 16q10 56 10 76v216l-10 76l-76 16l5 53q72 -4 92 -4h58l19 -18q-7 -103 -7 -153v-156l7 -106zM237 755l47 -60q-106 -60 -121 -71l-73 -60l-33 41z" />
    <glyph glyph-name="icircumflex" unicode="&#xee;" horiz-adv-x="301" 
d="M298 54l-7 -59q-49 5 -129 5l-111 -5l-5 50l76 16q10 56 10 76v216l-10 76l-76 16l5 53q72 -4 92 -4h58l19 -18q-7 -103 -7 -153v-156l7 -106zM151 765l166 -169l-33 -32l-74 61l-59 43q-10 -7 -24.5 -17.5t-23 -16.5t-11.5 -9l-74 -61l-33 32z" />
    <glyph glyph-name="eth" unicode="&#xf0;" horiz-adv-x="543" 
d="M468 697l-106 -54q69 -76 104 -178t35 -213q0 -120 -60 -191t-171 -71q-106 0 -167.5 68t-61.5 178q0 109 60 178t157 69q29 0 70 -16l-8 -45q-26 4 -53 4q-65 0 -98 -54.5t-33 -135.5t32.5 -135t101.5 -54q72 0 104.5 57.5t32.5 146.5q0 233 -102 363l-124 -64l-22 35
l118 61q-46 46 -109 78l19 41q82 -32 144 -91l115 60z" />
    <glyph glyph-name="ntilde" unicode="&#xf1;" horiz-adv-x="610" 
d="M36 445l5 53q72 -4 92 -4h36l19 -18l6 -64q20 38 59.5 64.5t92.5 26.5q97 0 133 -56.5t36 -170.5v-109l7 -106l78 -7l-7 -59q-49 5 -129 5l-102 -5l-5 50l67 16q10 44 10 76v139q0 166 -103 166q-58 0 -92.5 -46.5t-35.5 -121.5v-107l7 -106l78 -7l-7 -59q-49 5 -129 5
l-111 -5l-5 50l76 16q8 48 10 71v221l-10 76zM462 723l36 -21q-5 -11 -13 -27.5t-30 -43.5t-40 -27q-20 0 -77 20.5t-77 20.5q-12 0 -25.5 -13.5t-20.5 -27.5l-7 -13l-36 21q5 11 13 28t29.5 45t39.5 28q20 0 77.5 -20.5t77.5 -20.5q12 0 25.5 13t20.5 25z" />
    <glyph glyph-name="ograve" unicode="&#xf2;" horiz-adv-x="540" 
d="M500 246q0 -117 -59.5 -186.5t-170.5 -69.5t-170.5 69.5t-59.5 186.5q0 118 59.5 187.5t170.5 69.5q113 0 171.5 -69t58.5 -188zM406 246q0 87 -32 143.5t-104 56.5t-104 -56.5t-32 -143.5t32 -143t104 -56t104 56t32 143zM371 605l-33 -41l-73 60l-121 71l47 60z" />
    <glyph glyph-name="oacute" unicode="&#xf3;" horiz-adv-x="540" 
d="M500 246q0 -117 -59.5 -186.5t-170.5 -69.5t-170.5 69.5t-59.5 186.5q0 118 59.5 187.5t170.5 69.5q113 0 171.5 -69t58.5 -188zM406 246q0 87 -32 143.5t-104 56.5t-104 -56.5t-32 -143.5t32 -143t104 -56t104 56t32 143zM364 755l47 -60q-106 -60 -121 -71l-73 -60
l-33 41z" />
    <glyph glyph-name="ocircumflex" unicode="&#xf4;" horiz-adv-x="540" 
d="M500 246q0 -117 -59.5 -186.5t-170.5 -69.5t-170.5 69.5t-59.5 186.5q0 118 59.5 187.5t170.5 69.5q113 0 171.5 -69t58.5 -188zM406 246q0 87 -32 143.5t-104 56.5t-104 -56.5t-32 -143.5t32 -143t104 -56t104 56t32 143zM278 765l166 -169l-33 -32l-74 61l-59 43
q-10 -7 -24.5 -17.5t-23 -16.5t-11.5 -9l-74 -61l-33 32z" />
    <glyph glyph-name="otilde" unicode="&#xf5;" horiz-adv-x="540" 
d="M500 246q0 -117 -59.5 -186.5t-170.5 -69.5t-170.5 69.5t-59.5 186.5q0 118 59.5 187.5t170.5 69.5q113 0 171.5 -69t58.5 -188zM406 246q0 87 -32 143.5t-104 56.5t-104 -56.5t-32 -143.5t32 -143t104 -56t104 56t32 143zM405 723l36 -21q-5 -11 -13 -27.5t-30 -43.5
t-40 -27q-20 0 -77 20.5t-77 20.5q-12 0 -25 -13.5t-21 -27.5l-7 -13l-36 21q5 11 13 28t29.5 45t39.5 28q20 0 77.5 -20.5t77.5 -20.5q12 0 25 13t21 25z" />
    <glyph glyph-name="divide" unicode="&#xf7;" horiz-adv-x="560" 
d="M52 279l455 5v-71h-455v66zM287 488q28 0 43.5 -17t15.5 -48q0 -29 -15.5 -46.5t-43.5 -17.5t-43.5 17.5t-15.5 46.5t15.5 47t43.5 18zM287 135q28 0 43.5 -17t15.5 -48q0 -29 -15.5 -46.5t-43.5 -17.5t-43.5 17.5t-15.5 46.5t15.5 47t43.5 18z" />
    <glyph glyph-name="oslash" unicode="&#xf8;" horiz-adv-x="540" 
d="M122 -99l-39 20l55 105q-98 65 -98 220q0 118 59.5 187.5t170.5 69.5q61 0 108 -22l62 117l40 -20l-64 -120q84 -66 84 -212q0 -117 -59.5 -186.5t-170.5 -69.5q-48 0 -93 15zM134 246q0 -101 39 -154l173 329q-30 25 -76 25q-72 0 -104 -56.5t-32 -143.5zM406 246
q0 83 -29 137l-170 -321q25 -15 63 -15q72 0 104 56t32 143z" />
    <glyph glyph-name="ugrave" unicode="&#xf9;" horiz-adv-x="592" 
d="M324 445l5 53q67 -4 87 -4h58l19 -18q-7 -103 -7 -153v-156q0 -22 2.5 -48.5t5.5 -42.5l2 -15l69 -7l-7 -59q-49 5 -129 5l-13 78q-51 -88 -155 -88q-96 0 -129 56.5t-33 170.5v136l-10 76l-66 16l5 53q62 -4 82 -4h58l19 -18q-7 -103 -7 -153v-140q0 -129 99 -129
q59 0 92.5 46t33.5 110v143l-10 76zM367 605l-33 -41l-73 60l-121 71l47 60z" />
    <glyph glyph-name="uacute" unicode="&#xfa;" horiz-adv-x="592" 
d="M324 445l5 53q67 -4 87 -4h58l19 -18q-7 -103 -7 -153v-156q0 -22 2.5 -48.5t5.5 -42.5l2 -15l69 -7l-7 -59q-49 5 -129 5l-13 78q-51 -88 -155 -88q-96 0 -129 56.5t-33 170.5v136l-10 76l-66 16l5 53q62 -4 82 -4h58l19 -18q-7 -103 -7 -153v-140q0 -129 99 -129
q59 0 92.5 46t33.5 110v143l-10 76zM360 755l47 -60q-106 -60 -121 -71l-73 -60l-33 41z" />
    <glyph glyph-name="ucircumflex" unicode="&#xfb;" horiz-adv-x="592" 
d="M324 445l5 53q67 -4 87 -4h58l19 -18q-7 -103 -7 -153v-156q0 -22 2.5 -48.5t5.5 -42.5l2 -15l69 -7l-7 -59q-49 5 -129 5l-13 78q-51 -88 -155 -88q-96 0 -129 56.5t-33 170.5v136l-10 76l-66 16l5 53q62 -4 82 -4h58l19 -18q-7 -103 -7 -153v-140q0 -129 99 -129
q59 0 92.5 46t33.5 110v143l-10 76zM274 765l166 -169l-33 -32l-74 61l-59 43q-10 -7 -24.5 -17.5t-23 -16.5t-11.5 -9l-74 -61l-33 32z" />
    <glyph glyph-name="udieresis" unicode="&#xfc;" horiz-adv-x="592" 
d="M324 445l5 53q67 -4 87 -4h58l19 -18q-7 -103 -7 -153v-156q0 -22 2.5 -48.5t5.5 -42.5l2 -15l69 -7l-7 -59q-49 5 -129 5l-13 78q-51 -88 -155 -88q-96 0 -129 56.5t-33 170.5v136l-10 76l-66 16l5 53q62 -4 82 -4h58l19 -18q-7 -103 -7 -153v-140q0 -129 99 -129
q59 0 92.5 46t33.5 110v143l-10 76zM399 713q54 0 54 -60q0 -59 -54 -59t-54 59q0 28 14 44t40 16zM163 713q54 0 54 -60q0 -59 -54 -59t-54 59q0 28 14 44t40 16z" />
    <glyph glyph-name="thorn" unicode="&#xfe;" horiz-adv-x="545" 
d="M1 707l5 53q72 -4 92 -4h58l19 -18l-7 -140v-171q14 27 53.5 51.5t78.5 24.5q98 0 151.5 -64.5t53.5 -182.5q0 -115 -65 -190.5t-165 -75.5q-51 0 -107 25v-76l7 -106l98 -7l-7 -59q-68 5 -148 5l-102 -5l-5 50l66 16q10 48 10 71v711l-10 76zM292 442q-55 0 -89.5 -48
t-34.5 -120v-188q52 -36 101 -36q71 0 108.5 52.5t37.5 151.5q0 188 -123 188z" />
    <glyph glyph-name="ydieresis" unicode="&#xff;" horiz-adv-x="539" 
d="M279 104l87 232q14 39 27 97l-73 12l5 52q67 -3 87 -3l115 5l3 -58l-53 -8q-36 -73 -52 -114l-206 -554l-161 11l8 58l40 -1q14 0 67 10q25 35 38 68l32 89l-143 333q-15 37 -51 100l-49 12l5 52q62 -3 82 -3l137 5l3 -58l-72 -7q13 -57 25 -85zM388 713q54 0 54 -60
q0 -59 -54 -59t-54 59q0 28 14 44t40 16zM152 713q54 0 54 -60q0 -59 -54 -59t-54 59q0 28 14 44t40 16z" />
    <glyph glyph-name="Amacron" unicode="&#x100;" horiz-adv-x="664" 
d="M660 54l-5 -54h-101l-143 -5l-4 49l73 20l-27 108l-21 60h-220l-32 -105l-10 -63l70 -10l-5 -54h-86l-135 -5l-4 49l63 17l43 99l179 545l58 10l206 -566l39 -85zM318 557l-88 -275l182 4zM488 771h-317v53h322z" />
    <glyph glyph-name="amacron" unicode="&#x101;" horiz-adv-x="516" 
d="M363 0l-14 79q-19 -38 -64.5 -63.5t-94.5 -25.5q-67 0 -106 34.5t-39 93.5q0 111 134 133l160 27v33q0 138 -94 138q-53 0 -95 -20l-7 -42v-41l-58 -3l-11 136q90 24 181 24q89 0 127 -48.5t38 -163.5v-124q0 -22 2.5 -48.5t5.5 -42.5l2 -15l69 -7l-7 -59q-49 5 -129 5z
M339 227l-143 -27q-30 -5 -46.5 -23t-16.5 -44q0 -38 19 -58.5t54 -20.5q50 0 87.5 32t45.5 81v60zM404 596h-317v53h322z" />
    <glyph glyph-name="Abreve" unicode="&#x102;" horiz-adv-x="664" 
d="M660 54l-5 -54h-101l-143 -5l-4 49l73 20l-27 108l-21 60h-220l-32 -105l-10 -63l70 -10l-5 -54h-86l-135 -5l-4 49l63 17l43 99l179 545l58 10l206 -566l39 -85zM318 557l-88 -275l182 4zM398 898h56q0 -68 -36 -104t-103 -36t-103 36t-36 104h56q0 -38 23 -61t60 -23
t60 23t23 61z" />
    <glyph glyph-name="abreve" unicode="&#x103;" horiz-adv-x="516" 
d="M363 0l-14 79q-19 -38 -64.5 -63.5t-94.5 -25.5q-67 0 -106 34.5t-39 93.5q0 111 134 133l160 27v33q0 138 -94 138q-53 0 -95 -20l-7 -42v-41l-58 -3l-11 136q90 24 181 24q89 0 127 -48.5t38 -163.5v-124q0 -22 2.5 -48.5t5.5 -42.5l2 -15l69 -7l-7 -59q-49 5 -129 5z
M339 227l-143 -27q-30 -5 -46.5 -23t-16.5 -44q0 -38 19 -58.5t54 -20.5q50 0 87.5 32t45.5 81v60zM331 727h56q0 -68 -36 -104t-103 -36t-103 36t-36 104h56q0 -38 23 -61t60 -23t60 23t23 61z" />
    <glyph glyph-name="Aogonek" unicode="&#x104;" horiz-adv-x="664" 
d="M660 54l-5 -54h-145q-45 -6 -72.5 -37t-27.5 -65q0 -23 14.5 -38t41.5 -15q23 0 55 13l14 -33q-47 -22 -86 -22q-47 0 -75 22.5t-28 66.5q0 31 17.5 55.5t65.5 65.5q37 33 37 83q0 27 -13 76l-21 60h-220l-32 -105l-10 -63l70 -10l-5 -54h-86l-135 -5l-4 49l63 17l43 99
l179 545l58 10l206 -566l39 -85zM318 557l-88 -275l182 4z" />
    <glyph glyph-name="aogonek" unicode="&#x105;" horiz-adv-x="516" 
d="M363 0l-14 79q-19 -38 -64.5 -63.5t-94.5 -25.5q-67 0 -106 34.5t-39 93.5q0 111 134 133l160 27v33q0 138 -94 138q-53 0 -95 -20l-7 -42v-41l-58 -3l-11 136q90 24 181 24q89 0 127 -48.5t38 -163.5v-124q0 -22 2.5 -48.5t5.5 -42.5l2 -15l69 -7l-7 -59q-31 3 -82 5
q-51 -58 -51 -108q0 -47 55 -47q26 0 56 13l14 -33q-47 -22 -86 -22q-47 0 -75 22.5t-28 66.5q0 29 15 52t53 56zM339 227l-143 -27q-30 -5 -46.5 -23t-16.5 -44q0 -38 19 -58.5t54 -20.5q50 0 87.5 32t45.5 81v60z" />
    <glyph glyph-name="Cacute" unicode="&#x106;" horiz-adv-x="610" 
d="M569 170l6 -151q-134 -34 -216 -34q-154 0 -235.5 99.5t-81.5 267.5t81.5 268t235.5 100q73 0 207 -34l-10 -148l-59 4v47q0 10 -12 50q-69 23 -126 23q-104 0 -159 -86.5t-55 -222.5t55 -223t158 -87q65 0 136 22q14 46 14 56l2 47zM475 898l30 -73q-132 -32 -151 -38
l-88 -37l-20 48z" />
    <glyph glyph-name="cacute" unicode="&#x107;" horiz-adv-x="466" 
d="M270 503q11 0 21.5 -1t19 -1.5t20 -3.5t17 -4t19 -5t18.5 -5.5t21 -7t21 -7.5l-10 -125l-58 3v36q0 10 -7 34q-36 30 -82 30q-70 0 -103 -58t-33 -142q0 -83 33 -137t103 -54q35 0 70 9t52 18l18 9l28 -47q-7 -6 -21 -15t-58 -24t-90 -15q-112 0 -170.5 69t-58.5 187
t59 187.5t171 69.5zM359 755l47 -60q-106 -60 -121 -71l-73 -60l-33 41z" />
    <glyph glyph-name="Ccircumflex" unicode="&#x108;" horiz-adv-x="610" 
d="M569 170l6 -151q-134 -34 -216 -34q-154 0 -235.5 99.5t-81.5 267.5t81.5 268t235.5 100q73 0 207 -34l-10 -148l-59 4v47q0 10 -12 50q-69 23 -126 23q-104 0 -159 -86.5t-55 -222.5t55 -223t158 -87q65 0 136 22q14 46 14 56l2 47zM356 893l174 -107l-23 -39l-88 41
l-63 25l-63 -25l-88 -41l-23 39z" />
    <glyph glyph-name="ccircumflex" unicode="&#x109;" horiz-adv-x="466" 
d="M270 503q11 0 21.5 -1t19 -1.5t20 -3.5t17 -4t19 -5t18.5 -5.5t21 -7t21 -7.5l-10 -125l-58 3v36q0 10 -7 34q-36 30 -82 30q-70 0 -103 -58t-33 -142q0 -83 33 -137t103 -54q35 0 70 9t52 18l18 9l28 -47q-7 -6 -21 -15t-58 -24t-90 -15q-112 0 -170.5 69t-58.5 187
t59 187.5t171 69.5zM273 765l166 -169l-33 -32l-74 61l-59 43q-10 -7 -24.5 -17.5t-23 -16.5t-11.5 -9l-74 -61l-33 32z" />
    <glyph glyph-name="Cdotaccent" unicode="&#x10a;" horiz-adv-x="610" 
d="M569 170l6 -151q-134 -34 -216 -34q-154 0 -235.5 99.5t-81.5 267.5t81.5 268t235.5 100q73 0 207 -34l-10 -148l-59 4v47q0 10 -12 50q-69 23 -126 23q-104 0 -159 -86.5t-55 -222.5t55 -223t158 -87q65 0 136 22q14 46 14 56l2 47zM356 890q28 0 43.5 -17t15.5 -48
q0 -29 -15.5 -46.5t-43.5 -17.5t-43.5 17.5t-15.5 46.5t15.5 47t43.5 18z" />
    <glyph glyph-name="cdotaccent" unicode="&#x10b;" horiz-adv-x="466" 
d="M270 503q11 0 21.5 -1t19 -1.5t20 -3.5t17 -4t19 -5t18.5 -5.5t21 -7t21 -7.5l-10 -125l-58 3v36q0 10 -7 34q-36 30 -82 30q-70 0 -103 -58t-33 -142q0 -83 33 -137t103 -54q35 0 70 9t52 18l18 9l28 -47q-7 -6 -21 -15t-58 -24t-90 -15q-112 0 -170.5 69t-58.5 187
t59 187.5t171 69.5zM273 720q28 0 43.5 -17t15.5 -48q0 -29 -15.5 -46.5t-43.5 -17.5t-43.5 17.5t-15.5 46.5t15.5 47t43.5 18z" />
    <glyph glyph-name="Ccaron" unicode="&#x10c;" horiz-adv-x="610" 
d="M569 170l6 -151q-134 -34 -216 -34q-154 0 -235.5 99.5t-81.5 267.5t81.5 268t235.5 100q73 0 207 -34l-10 -148l-59 4v47q0 10 -12 50q-69 23 -126 23q-104 0 -159 -86.5t-55 -222.5t55 -223t158 -87q65 0 136 22q14 46 14 56l2 47zM507 893l23 -39l-174 -107l-174 107
l23 39l88 -41l63 -25l63 25z" />
    <glyph glyph-name="ccaron" unicode="&#x10d;" horiz-adv-x="466" 
d="M270 503q11 0 21.5 -1t19 -1.5t20 -3.5t17 -4t19 -5t18.5 -5.5t21 -7t21 -7.5l-10 -125l-58 3v36q0 10 -7 34q-36 30 -82 30q-70 0 -103 -58t-33 -142q0 -83 33 -137t103 -54q35 0 70 9t52 18l18 9l28 -47q-7 -6 -21 -15t-58 -24t-90 -15q-112 0 -170.5 69t-58.5 187
t59 187.5t171 69.5zM140 765l74 -61q4 -3 59 -43l59 43l74 61l33 -32l-166 -169l-166 169z" />
    <glyph glyph-name="Dcaron" unicode="&#x10e;" horiz-adv-x="721" 
d="M334 715q165 0 255 -97t90 -266q0 -162 -92.5 -260t-252.5 -98q-18 0 -77 3t-92 3l-118 -5l-5 50l79 16q9 59 9 76v431q0 18 -9 76l-77 12l5 54q64 -3 98 -5q26 1 88 5.5t99 4.5zM335 655q-65 0 -107 -5q-7 -66 -7 -112v-371q0 -82 7 -110q52 -4 107 -4q120 0 182.5 84
t62.5 215q0 133 -62.5 218t-182.5 85zM482 893l23 -39l-174 -107l-174 107l23 39l88 -41l63 -25l63 25z" />
    <glyph glyph-name="dcaron" unicode="&#x10f;" horiz-adv-x="616" 
d="M527 756h79l-13 -243l-58 3l1 94zM536 54l-7 -59q-49 5 -129 5l-14 80q-15 -34 -59.5 -62t-84.5 -28q-94 0 -147.5 68.5t-53.5 188.5q0 119 56.5 187.5t153.5 68.5q58 0 125 -24v136l-10 76l-88 16l5 53q84 -4 104 -4h58l19 -18q-7 -103 -7 -153v-418q0 -22 2.5 -48.5
t4.5 -42.5l3 -15zM376 207v199q-55 36 -115 36q-61 0 -94.5 -51.5t-33.5 -144.5q0 -89 31 -140.5t85 -51.5q60 0 93.5 40.5t33.5 112.5z" />
    <glyph glyph-name="Dcroat" unicode="&#x110;" horiz-adv-x="721" 
d="M44 656l5 54q64 -3 98 -5q26 1 88 5.5t99 4.5q165 0 255 -97t90 -266q0 -162 -92.5 -260t-252.5 -98q-18 0 -77 3t-92 3l-118 -5l-5 50l79 16q9 59 9 76v200h-88v43h88v188q0 18 -9 76zM221 337v-170q0 -82 7 -110q52 -4 107 -4q120 0 182.5 84t62.5 215q0 133 -62.5 218
t-182.5 85q-65 0 -107 -5q-7 -66 -7 -112v-158h143l-5 -43h-138z" />
    <glyph glyph-name="dcroat" unicode="&#x111;" horiz-adv-x="563" 
d="M536 54l-7 -59q-49 5 -129 5l-14 80q-15 -34 -59.5 -62t-84.5 -28q-94 0 -147.5 68.5t-53.5 188.5q0 119 56.5 187.5t153.5 68.5q58 0 125 -24v84h-110v44h110v8l-10 76l-88 16l5 53q84 -4 104 -4h58l19 -18q-6 -78 -7 -131h93v-44h-93v-396q0 -22 2.5 -48.5t4.5 -42.5
l3 -15zM376 207v199q-55 36 -115 36q-61 0 -94.5 -51.5t-33.5 -144.5q0 -89 31 -140.5t85 -51.5q60 0 93.5 40.5t33.5 112.5z" />
    <glyph glyph-name="Emacron" unicode="&#x112;" horiz-adv-x="588" 
d="M44 656l5 54q96 -5 116 -5h224l114 10l19 -18l7 -136l-58 -5q-3 24 -11 54q-1 10 -20 34q-55 5 -81 5h-131q-7 -73 -7 -111v-142q34 -2 43 -2h73l60 9l9 66l46 -5q-1 -64 -1 -84l3 -109l-48 -6l-9 67q-60 6 -80 6h-53q-18 0 -43 -3v-168q0 -43 7 -110h144q38 0 87 9
q19 26 21 37q1 4 7.5 31t7.5 36l55 -5l-15 -151l-19 -18q-94 4 -114 4h-237l-118 -5l-5 50l79 16q9 59 9 76v431q0 18 -9 76zM450 771h-317v53h322z" />
    <glyph glyph-name="emacron" unicode="&#x113;" horiz-adv-x="478" 
d="M258 503q192 0 192 -233l-17 -33h-299q2 -74 37.5 -128t98.5 -54q38 0 75 10.5t55 20.5l19 10l28 -46q-7 -7 -21 -17t-60 -26.5t-96 -16.5q-111 0 -170.5 69.5t-59.5 185.5q0 117 55.5 187.5t162.5 70.5zM254 451q-105 0 -119 -164l222 17q1 15 1 20q0 56 -26.5 91.5
t-77.5 35.5zM417 596h-317v53h322z" />
    <glyph glyph-name="Ebreve" unicode="&#x114;" horiz-adv-x="588" 
d="M44 656l5 54q96 -5 116 -5h224l114 10l19 -18l7 -136l-58 -5q-3 24 -11 54q-1 10 -20 34q-55 5 -81 5h-131q-7 -73 -7 -111v-142q34 -2 43 -2h73l60 9l9 66l46 -5q-1 -64 -1 -84l3 -109l-48 -6l-9 67q-60 6 -80 6h-53q-18 0 -43 -3v-168q0 -43 7 -110h144q38 0 87 9
q19 26 21 37q1 4 7.5 31t7.5 36l55 -5l-15 -151l-19 -18q-94 4 -114 4h-237l-118 -5l-5 50l79 16q9 59 9 76v431q0 18 -9 76zM377 898h56q0 -68 -36 -104t-103 -36t-103 36t-36 104h56q0 -38 23 -61t60 -23t60 23t23 61z" />
    <glyph glyph-name="ebreve" unicode="&#x115;" horiz-adv-x="478" 
d="M258 503q192 0 192 -233l-17 -33h-299q2 -74 37.5 -128t98.5 -54q38 0 75 10.5t55 20.5l19 10l28 -46q-7 -7 -21 -17t-60 -26.5t-96 -16.5q-111 0 -170.5 69.5t-59.5 185.5q0 117 55.5 187.5t162.5 70.5zM254 451q-105 0 -119 -164l222 17q1 15 1 20q0 56 -26.5 91.5
t-77.5 35.5zM344 727h56q0 -68 -36 -104t-103 -36t-103 36t-36 104h56q0 -38 23 -61t60 -23t60 23t23 61z" />
    <glyph glyph-name="Edotaccent" unicode="&#x116;" horiz-adv-x="588" 
d="M44 656l5 54q96 -5 116 -5h224l114 10l19 -18l7 -136l-58 -5q-3 24 -11 54q-1 10 -20 34q-55 5 -81 5h-131q-7 -73 -7 -111v-142q34 -2 43 -2h73l60 9l9 66l46 -5q-1 -64 -1 -84l3 -109l-48 -6l-9 67q-60 6 -80 6h-53q-18 0 -43 -3v-168q0 -43 7 -110h144q38 0 87 9
q19 26 21 37q1 4 7.5 31t7.5 36l55 -5l-15 -151l-19 -18q-94 4 -114 4h-237l-118 -5l-5 50l79 16q9 59 9 76v431q0 18 -9 76zM294 890q28 0 43.5 -17t15.5 -48q0 -29 -15.5 -46.5t-43.5 -17.5t-43.5 17.5t-15.5 46.5t15.5 47t43.5 18z" />
    <glyph glyph-name="edotaccent" unicode="&#x117;" horiz-adv-x="478" 
d="M258 503q192 0 192 -233l-17 -33h-299q2 -74 37.5 -128t98.5 -54q38 0 75 10.5t55 20.5l19 10l28 -46q-7 -7 -21 -17t-60 -26.5t-96 -16.5q-111 0 -170.5 69.5t-59.5 185.5q0 117 55.5 187.5t162.5 70.5zM254 451q-105 0 -119 -164l222 17q1 15 1 20q0 56 -26.5 91.5
t-77.5 35.5zM261 720q28 0 43.5 -17t15.5 -48q0 -29 -15.5 -46.5t-43.5 -17.5t-43.5 17.5t-15.5 46.5t15.5 47t43.5 18z" />
    <glyph glyph-name="Eogonek" unicode="&#x118;" horiz-adv-x="588" 
d="M44 656l5 54q96 -5 116 -5h224l114 10l19 -18l7 -136l-58 -5q-3 24 -11 54q-1 10 -20 34q-55 5 -81 5h-131q-7 -73 -7 -111v-142q34 -2 43 -2h73l60 9l9 66l46 -5q-1 -64 -1 -84l3 -109l-48 -6l-9 67q-60 6 -80 6h-53q-18 0 -43 -3v-168q0 -43 7 -110h144q38 0 87 9
q19 26 21 37q1 4 7.5 31t7.5 36l55 -5l-15 -151l-19 -18h-16q-62 0 -94 -31t-32 -67q0 -23 14.5 -38t41.5 -15q23 0 55 13l14 -33q-47 -22 -86 -22q-47 0 -75 22.5t-28 66.5q0 29 15 52t53 56h-213l-118 -5l-5 50l79 16q9 59 9 76v431q0 18 -9 76z" />
    <glyph glyph-name="eogonek" unicode="&#x119;" horiz-adv-x="478" 
d="M258 503q192 0 192 -233l-17 -33h-299q2 -74 37.5 -128t98.5 -54q38 0 75 10.5t55 20.5l19 10l28 -46q-121 -76 -121 -158q0 -47 54 -47q26 0 56 13l14 -33q-47 -22 -86 -22q-47 0 -75 22.5t-28 66.5q0 28 14 50.5t48 52.5q-27 -5 -53 -5q-111 0 -170.5 69.5t-59.5 185.5
q0 117 55.5 187.5t162.5 70.5zM254 451q-105 0 -119 -164l222 17q1 15 1 20q0 56 -26.5 91.5t-77.5 35.5z" />
    <glyph glyph-name="Ecaron" unicode="&#x11a;" horiz-adv-x="588" 
d="M44 656l5 54q96 -5 116 -5h224l114 10l19 -18l7 -136l-58 -5q-3 24 -11 54q-1 10 -20 34q-55 5 -81 5h-131q-7 -73 -7 -111v-142q34 -2 43 -2h73l60 9l9 66l46 -5q-1 -64 -1 -84l3 -109l-48 -6l-9 67q-60 6 -80 6h-53q-18 0 -43 -3v-168q0 -43 7 -110h144q38 0 87 9
q19 26 21 37q1 4 7.5 31t7.5 36l55 -5l-15 -151l-19 -18q-94 4 -114 4h-237l-118 -5l-5 50l79 16q9 59 9 76v431q0 18 -9 76zM445 893l23 -39l-174 -107l-174 107l23 39l88 -41l63 -25l63 25z" />
    <glyph glyph-name="ecaron" unicode="&#x11b;" horiz-adv-x="478" 
d="M258 503q192 0 192 -233l-17 -33h-299q2 -74 37.5 -128t98.5 -54q38 0 75 10.5t55 20.5l19 10l28 -46q-7 -7 -21 -17t-60 -26.5t-96 -16.5q-111 0 -170.5 69.5t-59.5 185.5q0 117 55.5 187.5t162.5 70.5zM254 451q-105 0 -119 -164l222 17q1 15 1 20q0 56 -26.5 91.5
t-77.5 35.5zM128 765l74 -61q4 -3 59 -43l59 43l74 61l33 -32l-166 -169l-166 169z" />
    <glyph glyph-name="Gcircumflex" unicode="&#x11c;" horiz-adv-x="664" 
d="M376 720q78 0 220 -34l-11 -148l-58 6v45q0 9 -12 49q-81 24 -142 24q-112 0 -171 -86.5t-59 -222.5q0 -137 59 -223.5t171 -86.5q65 0 140 20q12 52 12 65v68l-10 71l-106 8l5 58h111l71 3l18 -17q-9 -103 -9 -153v-147q-142 -34 -229 -34q-162 0 -248 99.5t-86 267.5
t86 268t248 100zM380 893l174 -107l-23 -39l-88 41l-63 25l-63 -25l-88 -41l-23 39z" />
    <glyph glyph-name="gcircumflex" unicode="&#x11d;" horiz-adv-x="505" 
d="M474 440l-80 6q46 -48 46 -124q0 -82 -53 -131.5t-140 -49.5q-37 0 -68 9q-27 -31 -27 -42q0 -15 18.5 -21.5t75.5 -13.5q169 -22 193 -30q45 -14 45 -87q0 -79 -74.5 -135t-179.5 -56q-198 0 -198 145q0 29 91 101q-51 21 -51 73q0 20 72 80q-90 48 -90 158
q0 82 53 131.5t140 49.5q57 0 105 -24l122 19v-58zM247 452q-106 0 -106 -130t106 -130t106 130t-106 130zM161 -1q-43 -53 -43 -78q0 -51 34 -75t106 -24q62 0 101.5 28.5t39.5 74.5q0 23 -8.5 32.5t-30.5 12.5l-130 17q-40 5 -69 12zM253 765l166 -169l-33 -32l-74 61
l-59 43q-10 -7 -24.5 -17.5t-23 -16.5t-11.5 -9l-74 -61l-33 32z" />
    <glyph glyph-name="Gbreve" unicode="&#x11e;" horiz-adv-x="664" 
d="M376 720q78 0 220 -34l-11 -148l-58 6v45q0 9 -12 49q-81 24 -142 24q-112 0 -171 -86.5t-59 -222.5q0 -137 59 -223.5t171 -86.5q65 0 140 20q12 52 12 65v68l-10 71l-106 8l5 58h111l71 3l18 -17q-9 -103 -9 -153v-147q-142 -34 -229 -34q-162 0 -248 99.5t-86 267.5
t86 268t248 100zM463 898h56q0 -68 -36 -104t-103 -36t-103 36t-36 104h56q0 -38 23 -61t60 -23t60 23t23 61z" />
    <glyph glyph-name="gbreve" unicode="&#x11f;" horiz-adv-x="505" 
d="M474 440l-80 6q46 -48 46 -124q0 -82 -53 -131.5t-140 -49.5q-37 0 -68 9q-27 -31 -27 -42q0 -15 18.5 -21.5t75.5 -13.5q169 -22 193 -30q45 -14 45 -87q0 -79 -74.5 -135t-179.5 -56q-198 0 -198 145q0 29 91 101q-51 21 -51 73q0 20 72 80q-90 48 -90 158
q0 82 53 131.5t140 49.5q57 0 105 -24l122 19v-58zM161 -1q-43 -53 -43 -78q0 -51 34 -75t106 -24q62 0 101.5 28.5t39.5 74.5q0 23 -8.5 32.5t-30.5 12.5l-130 17q-40 5 -69 12zM247 452q-106 0 -106 -130t106 -130t106 130t-106 130zM336 727h56q0 -68 -36 -104t-103 -36
t-103 36t-36 104h56q0 -38 23 -61t60 -23t60 23t23 61z" />
    <glyph glyph-name="Gdotaccent" unicode="&#x120;" horiz-adv-x="664" 
d="M376 720q78 0 220 -34l-11 -148l-58 6v45q0 9 -12 49q-81 24 -142 24q-112 0 -171 -86.5t-59 -222.5q0 -137 59 -223.5t171 -86.5q65 0 140 20q12 52 12 65v68l-10 71l-106 8l5 58h111l71 3l18 -17q-9 -103 -9 -153v-147q-142 -34 -229 -34q-162 0 -248 99.5t-86 267.5
t86 268t248 100zM380 890q28 0 43.5 -17t15.5 -48q0 -29 -15.5 -46.5t-43.5 -17.5t-43.5 17.5t-15.5 46.5t15.5 47t43.5 18z" />
    <glyph glyph-name="gdotaccent" unicode="&#x121;" horiz-adv-x="505" 
d="M474 440l-80 6q46 -48 46 -124q0 -82 -53 -131.5t-140 -49.5q-37 0 -68 9q-27 -31 -27 -42q0 -15 18.5 -21.5t75.5 -13.5q169 -22 193 -30q45 -14 45 -87q0 -79 -74.5 -135t-179.5 -56q-198 0 -198 145q0 29 91 101q-51 21 -51 73q0 20 72 80q-90 48 -90 158
q0 82 53 131.5t140 49.5q57 0 105 -24l122 19v-58zM161 -1q-43 -53 -43 -78q0 -51 34 -75t106 -24q62 0 101.5 28.5t39.5 74.5q0 23 -8.5 32.5t-30.5 12.5l-130 17q-40 5 -69 12zM247 452q-106 0 -106 -130t106 -130t106 130t-106 130zM253 720q28 0 43.5 -17t15.5 -48
q0 -29 -15.5 -46.5t-43.5 -17.5t-43.5 17.5t-15.5 46.5t15.5 47t43.5 18z" />
    <glyph glyph-name="Gcommaaccent" unicode="&#x122;" horiz-adv-x="664" 
d="M376 720q78 0 220 -34l-11 -148l-58 6v45q0 9 -12 49q-81 24 -142 24q-112 0 -171 -86.5t-59 -222.5q0 -137 59 -223.5t171 -86.5q65 0 140 20q12 52 12 65v68l-10 71l-106 8l5 58h111l71 3l18 -17q-9 -103 -9 -153v-147q-142 -34 -229 -34q-162 0 -248 99.5t-86 267.5
t86 268t248 100zM319 -116q0 27 15 42.5t35 15.5q52 0 52 -66q0 -24 -11.5 -58t-23.5 -56l-12 -21l-37 12q15 53 15 79q-33 13 -33 52z" />
    <glyph glyph-name="gcommaaccent" unicode="&#x123;" horiz-adv-x="505" 
d="M474 440l-80 6q46 -48 46 -124q0 -82 -53 -131.5t-140 -49.5q-37 0 -68 9q-27 -31 -27 -42q0 -15 18.5 -21.5t75.5 -13.5q169 -22 193 -30q45 -14 45 -87q0 -79 -74.5 -135t-179.5 -56q-198 0 -198 145q0 29 91 101q-51 21 -51 73q0 20 72 80q-90 48 -90 158
q0 82 53 131.5t140 49.5q57 0 105 -24l122 19v-58zM247 452q-106 0 -106 -130t106 -130t106 130t-106 130zM161 -1q-43 -53 -43 -78q0 -51 34 -75t106 -24q62 0 101.5 28.5t39.5 74.5q0 23 -8.5 32.5t-30.5 12.5l-130 17q-40 5 -69 12zM294 613q0 -27 -15 -42.5t-35 -15.5
q-52 0 -52 66q0 24 12 58t24 55l11 22l37 -12q-15 -53 -15 -79q33 -13 33 -52z" />
    <glyph glyph-name="Hcircumflex" unicode="&#x124;" horiz-adv-x="773" 
d="M724 710l4 -59l-78 -7q-7 -49 -7 -106v-371q0 -57 7 -106l90 -7l-7 -59q-66 5 -146 5l-118 -5l-5 50l79 16q9 59 9 76v190h-331v-160q0 -57 7 -106l90 -7l-7 -59q-66 5 -146 5l-118 -5l-5 50l79 16q9 59 9 76v431q0 18 -9 76l-77 12l5 54q96 -5 116 -5l137 5l4 -59
l-78 -7q-7 -49 -7 -106v-160l331 5v185q0 18 -9 76l-77 12l5 54q96 -5 116 -5zM387 893l174 -107l-23 -39l-88 41l-63 25l-63 -25l-88 -41l-23 39z" />
    <glyph glyph-name="hcircumflex" unicode="&#x125;" horiz-adv-x="594" 
d="M38 707l5 53q72 -4 92 -4h58l19 -18q-7 -72 -7 -153v-158q51 76 143 76q97 0 133 -56.5t36 -170.5v-109l7 -106l78 -7l-7 -59q-49 5 -129 5l-102 -5l-5 50l67 16q10 44 10 76v139q0 166 -103 166q-58 0 -92.5 -46.5t-35.5 -121.5v-107q0 -58 6 -106l78 -7l-7 -59
q-49 5 -129 5l-111 -5l-5 50l77 16q10 45 10 76v478l-10 76zM149 914l174 -107l-23 -39l-88 41l-63 25l-63 -25l-88 -41l-23 39z" />
    <glyph glyph-name="Hbar" unicode="&#x126;" horiz-adv-x="773" 
d="M724 710l4 -59l-78 -7q-7 -49 -7 -101h104v-44h-104v-332q0 -57 7 -106l90 -7l-7 -59q-66 5 -146 5l-118 -5l-5 50l79 16q9 59 9 76v190h-331v-160q0 -57 7 -106l90 -7l-7 -59q-66 5 -146 5l-118 -5l-5 50l79 16q9 59 9 76v362h-87v44h87v25q0 18 -9 76l-77 12l5 54
q96 -5 116 -5l137 5l4 -59l-78 -7q-7 -49 -7 -101h331v25q0 18 -9 76l-77 12l5 54q96 -5 116 -5zM221 378l331 5v116h-331v-121z" />
    <glyph glyph-name="hbar" unicode="&#x127;" horiz-adv-x="594" 
d="M20 707l5 53q72 -4 92 -4h58l19 -18q-5 -46 -7 -131h110v-44h-110v-136q51 76 143 76q97 0 133 -56.5t36 -170.5v-109l7 -106l78 -7l-7 -59q-49 5 -129 5l-102 -5l-5 50l67 16q10 44 10 76v139q0 166 -103 166q-58 0 -92.5 -46.5t-35.5 -121.5v-107q0 -58 6 -106l78 -7
l-7 -59q-49 5 -129 5l-111 -5l-5 50l77 16q10 45 10 76v426h-93v44h93v8l-10 76z" />
    <glyph glyph-name="Imacron" unicode="&#x12a;" horiz-adv-x="363" 
d="M279 771h-253v53h258zM281 710l4 -59l-78 -7q-7 -49 -7 -106v-371q0 -57 7 -106l90 -7l-7 -59q-66 5 -146 5l-118 -5l-5 50l79 16q9 59 9 76v431q0 18 -9 76l-77 12l5 54q96 -5 116 -5z" />
    <glyph glyph-name="imacron" unicode="&#x12b;" horiz-adv-x="301" 
d="M243 596h-253v53h258zM256 54l-7 -59q-49 5 -129 5l-111 -5l-5 50l76 16q10 56 10 76v216l-10 76l-76 16l5 53q72 -4 92 -4h58l19 -18q-7 -103 -7 -153v-156l7 -106z" />
    <glyph glyph-name="Ibreve" unicode="&#x12c;" horiz-adv-x="363" 
d="M308 710l4 -59l-78 -7q-7 -49 -7 -106v-371q0 -57 7 -106l90 -7l-7 -59q-66 5 -146 5l-118 -5l-5 50l79 16q9 59 9 76v431q0 18 -9 76l-77 12l5 54q96 -5 116 -5zM265 898h56q0 -68 -36 -104t-103 -36t-103 36t-36 104h56q0 -38 23 -61t60 -23t60 23t23 61z" />
    <glyph glyph-name="ibreve" unicode="&#x12d;" horiz-adv-x="301" 
d="M288 54l-7 -59q-49 5 -129 5l-111 -5l-5 50l76 16q10 56 10 76v216l-10 76l-76 16l5 53q72 -4 92 -4h58l19 -18q-7 -103 -7 -153v-156l7 -106zM234 727h56q0 -68 -36 -104t-103 -36t-103 36t-36 104h56q0 -38 23 -61t60 -23t60 23t23 61z" />
    <glyph glyph-name="Iogonek" unicode="&#x12e;" horiz-adv-x="363" 
d="M108 13q17 17 22 41t6 83v431q0 18 -9 76l-77 12l5 54q96 -5 116 -5l137 5l4 -59l-78 -7q-7 -49 -7 -106v-371q0 -57 7 -106l90 -7l-7 -59q-57 5 -128 5q-45 -6 -72.5 -37t-27.5 -65q0 -23 14.5 -38t41.5 -15q23 0 55 13l14 -33q-47 -22 -86 -22q-47 0 -75 22.5t-28 66.5
q0 8 1.5 16t3.5 13.5t7 14t8.5 13t12.5 14t13.5 14l17.5 17.5z" />
    <glyph glyph-name="iogonek" unicode="&#x12f;" horiz-adv-x="301" 
d="M94 16q17 19 22 42t6 80v215l-10 76l-76 16l5 53q72 -4 92 -4h58l19 -18q-7 -103 -7 -153v-156l7 -106l78 -7l-7 -59q-40 4 -106 5q-44 -6 -67 -36t-23 -66q0 -23 13 -38t38 -15q21 0 50 13l14 -33q-44 -22 -81 -22q-44 0 -71 22.5t-27 66.5q0 8 1.5 15.5t3 13.5t6 14
t7 13t10.5 15t12 14.5t15.5 18t17.5 20.5zM151 720q28 0 43.5 -17t15.5 -48q0 -29 -15.5 -46.5t-43.5 -17.5t-43.5 17.5t-15.5 46.5t15.5 47t43.5 18z" />
    <glyph glyph-name="Idotaccent" unicode="&#x130;" horiz-adv-x="363" 
d="M308 710l4 -59l-78 -7q-7 -49 -7 -106v-371q0 -57 7 -106l90 -7l-7 -59q-66 5 -146 5l-118 -5l-5 50l79 16q9 59 9 76v431q0 18 -9 76l-77 12l5 54q96 -5 116 -5zM182 890q28 0 43.5 -17t15.5 -48q0 -29 -15.5 -46.5t-43.5 -17.5t-43.5 17.5t-15.5 46.5t15.5 47t43.5 18z
" />
    <glyph glyph-name="dotlessi" unicode="&#x131;" horiz-adv-x="301" 
d="M288 54l-7 -59q-49 5 -129 5l-111 -5l-5 50l76 16q10 56 10 76v216l-10 76l-76 16l5 53q72 -4 92 -4h58l19 -18q-7 -103 -7 -153v-156l7 -106z" />
    <glyph glyph-name="IJ" unicode="&#x132;" horiz-adv-x="615" 
d="M581 710l4 -59l-78 -7q-7 -49 -7 -106v-548q0 -27 -137 -190l-34 22q80 169 80 189v557q0 18 -9 76l-83 12l-83 -12q-7 -49 -7 -106v-371q0 -57 7 -106l90 -7l-7 -59q-66 5 -146 5l-118 -5l-5 50l79 16q9 59 9 76v431q0 18 -9 76l-77 12l5 54q96 -5 116 -5h273z" />
    <glyph glyph-name="ij" unicode="&#x133;" horiz-adv-x="574" 
d="M320 445l5 53q72 -4 92 -4h58l19 -18q-7 -103 -7 -153v-333q0 -18 -30.5 -74t-60.5 -104l-30 -47l-36 21q82 196 82 236l-1 46q-52 -78 -149 -78q-96 0 -130 57t-34 170v136l-10 76l-76 16l5 53q72 -4 92 -4h58l19 -18q-7 -103 -7 -153v-140q0 -129 101 -129
q59 0 92.5 46t33.5 110v143l-10 76zM129 720q28 0 43.5 -17t15.5 -48q0 -29 -15.5 -46.5t-43.5 -17.5t-43.5 17.5t-15.5 46.5t15.5 47t43.5 18zM434 720q28 0 43.5 -17t15.5 -48q0 -29 -15.5 -46.5t-43.5 -17.5t-43.5 17.5t-15.5 46.5t15.5 47t43.5 18z" />
    <glyph glyph-name="Jcircumflex" unicode="&#x134;" horiz-adv-x="332" 
d="M302 651l-78 -7q-7 -49 -7 -106v-548q0 -27 -137 -190l-34 22q80 169 80 189v557q0 18 -9 76l-77 12l5 54q96 -5 116 -5l137 5zM166 893l174 -107l-23 -39l-88 41l-63 25l-63 -25l-88 -41l-23 39z" />
    <glyph glyph-name="jcircumflex" unicode="&#x135;" horiz-adv-x="278" 
d="M35 445l5 53q72 -4 92 -4h58l19 -18q-7 -103 -7 -153v-333q0 -18 -30 -74t-60 -104l-31 -47l-36 21q76 195 76 235v332l-10 76zM139 765l166 -169l-33 -32l-74 61l-59 43q-10 -7 -24.5 -17.5t-23 -16.5t-11.5 -9l-74 -61l-33 32z" />
    <glyph glyph-name="Kcommaaccent" unicode="&#x136;" horiz-adv-x="698" 
d="M688 54l-7 -59q-61 5 -141 5l-128 -5l-5 50l59 14q-44 71 -70 105l-165 189l182 224l39 68l-54 11l5 54q86 -5 106 -5l127 5l4 -59l-76 -7q-52 -48 -102 -98l-132 -176q24 -28 66.5 -76t78 -89t66.5 -76q16 -18 77 -68zM302 710l4 -59l-78 -7q-7 -49 -7 -106v-371
q0 -57 7 -106l90 -7l-7 -59q-66 5 -146 5l-118 -5l-5 50l79 16q9 59 9 76v431q0 18 -9 76l-77 12l5 54q96 -5 116 -5zM319 -116q0 27 15 42.5t35 15.5q52 0 52 -66q0 -24 -11.5 -58t-23.5 -56l-12 -21l-37 12q15 53 15 79q-33 13 -33 52z" />
    <glyph glyph-name="kcommaaccent" unicode="&#x137;" horiz-adv-x="572" 
d="M20 707l5 53q72 -4 92 -4h58l19 -18q-7 -72 -7 -153v-418q0 -58 6 -106l78 -7l-7 -59q-49 5 -129 5l-111 -5l-5 50l77 16q10 45 10 76v478l-10 76zM363 437l-43 8l5 52q67 -3 87 -3l127 5l3 -58l-75 -8q-74 -40 -99 -67l-81 -87l137 -150q2 -3 90 -69l63 -6l-7 -59
q-49 5 -129 5l-102 -2l-5 50l57 11l-51 56l-142 150zM250 -116q0 27 15 42.5t35 15.5q52 0 52 -66q0 -24 -12 -58t-24 -56l-11 -21l-37 12q15 53 15 79q-33 13 -33 52z" />
    <glyph glyph-name="kgreenlandic" unicode="&#x138;" horiz-adv-x="587" 
d="M378 437l-43 8l5 52q67 -3 87 -3l127 5l3 -58l-75 -8q-74 -40 -99 -67l-81 -87l137 -150q2 -3 90 -69l63 -6l-7 -59q-49 5 -129 5l-102 -2l-5 50l57 11l-51 56l-142 150zM288 54l-7 -59q-49 5 -129 5l-111 -5l-5 50l76 16q10 56 10 76v216l-10 76l-76 16l5 53
q72 -4 92 -4h58l19 -18q-7 -103 -7 -153v-156l7 -106z" />
    <glyph glyph-name="Lacute" unicode="&#x139;" horiz-adv-x="534" 
d="M302 710l4 -59l-78 -7q-7 -49 -7 -106v-371q0 -57 7 -110h118q38 0 87 9q20 28 21 37q12 47 15 67l55 -5l-15 -151l-19 -18q-94 4 -114 4h-211l-118 -5l-5 50l79 16q9 59 9 76v431q0 18 -9 76l-77 12l5 54q96 -5 116 -5zM297 898l30 -73q-132 -32 -151 -38l-88 -37
l-20 48z" />
    <glyph glyph-name="lacute" unicode="&#x13a;" horiz-adv-x="293" 
d="M20 707l5 53q72 -4 92 -4h58l19 -18q-7 -72 -7 -153v-418q0 -58 6 -106l78 -7l-7 -59q-49 5 -129 5l-111 -5l-5 50l77 16q10 45 10 76v478l-10 76zM260 949l30 -73q-132 -32 -151 -38l-88 -37l-20 48z" />
    <glyph glyph-name="Lcommaaccent" unicode="&#x13b;" horiz-adv-x="534" 
d="M302 710l4 -59l-78 -7q-7 -49 -7 -106v-371q0 -57 7 -110h118q38 0 87 9q20 28 21 37q12 47 15 67l55 -5l-15 -151l-19 -18q-94 4 -114 4h-211l-118 -5l-5 50l79 16q9 59 9 76v431q0 18 -9 76l-77 12l5 54q96 -5 116 -5zM239 -116q0 27 15 42.5t35 15.5q52 0 52 -66
q0 -24 -11.5 -58t-23.5 -56l-12 -21l-37 12q15 53 15 79q-33 13 -33 52z" />
    <glyph glyph-name="lcommaaccent" unicode="&#x13c;" horiz-adv-x="293" 
d="M20 707l5 53q72 -4 92 -4h58l19 -18q-7 -72 -7 -153v-418q0 -58 6 -106l78 -7l-7 -59q-49 5 -129 5l-111 -5l-5 50l77 16q10 45 10 76v478l-10 76zM97 -116q0 27 15 42.5t35 15.5q52 0 52 -66q0 -24 -11.5 -58t-23.5 -56l-12 -21l-37 12q15 53 15 79q-33 13 -33 52z" />
    <glyph glyph-name="Lcaron" unicode="&#x13d;" horiz-adv-x="534" 
d="M348 607h89l-13 -243l-58 3l1 94zM302 710l4 -59l-78 -7q-7 -49 -7 -106v-371q0 -57 7 -110h118q38 0 87 9q20 28 21 37q12 47 15 67l55 -5l-15 -151l-19 -18q-94 4 -114 4h-211l-118 -5l-5 50l79 16q9 59 9 76v431q0 18 -9 76l-77 12l5 54q96 -5 116 -5z" />
    <glyph glyph-name="lcaron" unicode="&#x13e;" horiz-adv-x="336" 
d="M247 756h79l-13 -243l-58 3l1 94zM20 707l5 53q72 -4 92 -4h58l19 -18q-7 -72 -7 -153v-418q0 -58 6 -106l78 -7l-7 -59q-49 5 -129 5l-111 -5l-5 50l77 16q10 45 10 76v478l-10 76z" />
    <glyph glyph-name="Ldot" unicode="&#x13f;" horiz-adv-x="534" 
d="M382 480q30 0 47 -18.5t17 -51.5q0 -31 -17 -50t-47 -19t-47 19t-17 50t17 50.5t47 19.5zM302 710l4 -59l-78 -7q-7 -49 -7 -106v-371q0 -57 7 -110h118q38 0 87 9q20 28 21 37q12 47 15 67l55 -5l-15 -151l-19 -18q-94 4 -114 4h-211l-118 -5l-5 50l79 16q9 59 9 76v431
q0 18 -9 76l-77 12l5 54q96 -5 116 -5z" />
    <glyph glyph-name="ldot" unicode="&#x140;" horiz-adv-x="358" 
d="M20 707l5 53q72 -4 92 -4h58l19 -18q-7 -72 -7 -153v-418q0 -58 6 -106l78 -7l-7 -59q-49 5 -129 5l-111 -5l-5 50l77 16q10 45 10 76v478l-10 76zM294 369q30 0 47 -18.5t17 -51.5q0 -31 -17 -50t-47 -19t-47 19t-17 50t17 50.5t47 19.5z" />
    <glyph glyph-name="Lslash" unicode="&#x141;" horiz-adv-x="534" 
d="M302 710l4 -59l-78 -7q-7 -49 -7 -106v-89l139 51l15 -41l-154 -56v-236q0 -57 7 -110h118q38 0 87 9q20 28 21 37q12 47 15 67l55 -5l-15 -151l-19 -18q-94 4 -114 4h-211l-118 -5l-5 50l79 16q9 59 9 76v233l-85 -31l-15 41l100 36v152q0 18 -9 76l-77 12l5 54
q96 -5 116 -5z" />
    <glyph glyph-name="lslash" unicode="&#x142;" horiz-adv-x="293" 
d="M20 707l5 53q72 -4 92 -4h58l19 -18q-7 -72 -7 -153v-118l92 33l15 -41l-107 -39v-253q0 -58 6 -106l78 -7l-7 -59q-49 5 -129 5l-111 -5l-5 50l77 16q10 45 10 76v254l-91 -33l-15 41l106 38v178l-10 76z" />
    <glyph glyph-name="Nacute" unicode="&#x143;" horiz-adv-x="761" 
d="M741 710l5 -53l-79 -16q-15 -71 -15 -113v-231l-1 -304h-60l-394 563v-389q0 -57 7 -106l81 -7l-7 -59q-43 5 -123 5l-108 -5l-5 50l79 16q9 59 9 76v431q0 8 -9 76l-80 12l5 54q96 -5 116 -5l44 1l20 -21q82 -133 97 -155l262 -367v395q0 29 -9 83l-79 6l6 60l82 -2z
M500 898l30 -73q-132 -32 -151 -38l-88 -37l-20 48z" />
    <glyph glyph-name="nacute" unicode="&#x144;" horiz-adv-x="610" 
d="M36 445l5 53q72 -4 92 -4h36l19 -18l6 -64q20 38 59.5 64.5t92.5 26.5q97 0 133 -56.5t36 -170.5v-109l7 -106l78 -7l-7 -59q-49 5 -129 5l-102 -5l-5 50l67 16q10 44 10 76v139q0 166 -103 166q-58 0 -92.5 -46.5t-35.5 -121.5v-107l7 -106l78 -7l-7 -59q-49 5 -129 5
l-111 -5l-5 50l76 16q8 48 10 71v221l-10 76zM421 755l47 -60q-106 -60 -121 -71l-73 -60l-33 41z" />
    <glyph glyph-name="Ncommaaccent" unicode="&#x145;" horiz-adv-x="761" 
d="M741 710l5 -53l-79 -16q-15 -71 -15 -113v-231l-1 -304h-60l-394 563v-389q0 -57 7 -106l81 -7l-7 -59q-43 5 -123 5l-108 -5l-5 50l79 16q9 59 9 76v431q0 8 -9 76l-80 12l5 54q96 -5 116 -5l44 1l20 -21q82 -133 97 -155l262 -367v395q0 29 -9 83l-79 6l6 60l82 -2z
M329 -116q0 27 15 42.5t35 15.5q52 0 52 -66q0 -24 -11.5 -58t-23.5 -56l-12 -21l-37 12q15 53 15 79q-33 13 -33 52z" />
    <glyph glyph-name="ncommaaccent" unicode="&#x146;" horiz-adv-x="610" 
d="M36 445l5 53q72 -4 92 -4h36l19 -18l6 -64q20 38 59.5 64.5t92.5 26.5q97 0 133 -56.5t36 -170.5v-109l7 -106l78 -7l-7 -59q-49 5 -129 5l-102 -5l-5 50l67 16q10 44 10 76v139q0 166 -103 166q-58 0 -92.5 -46.5t-35.5 -121.5v-107l7 -106l78 -7l-7 -59q-49 5 -129 5
l-111 -5l-5 50l76 16q8 48 10 71v221l-10 76zM275 -116q0 27 15 42.5t35 15.5q52 0 52 -66q0 -24 -11.5 -58t-23.5 -56l-12 -21l-37 12q15 53 15 79q-33 13 -33 52z" />
    <glyph glyph-name="Ncaron" unicode="&#x147;" horiz-adv-x="761" 
d="M741 710l5 -53l-79 -16q-15 -71 -15 -113v-231l-1 -304h-60l-394 563v-389q0 -57 7 -106l81 -7l-7 -59q-43 5 -123 5l-108 -5l-5 50l79 16q9 59 9 76v431q0 8 -9 76l-80 12l5 54q96 -5 116 -5l44 1l20 -21q82 -133 97 -155l262 -367v395q0 29 -9 83l-79 6l6 60l82 -2z
M532 893l23 -39l-174 -107l-174 107l23 39l88 -41l63 -25l63 25z" />
    <glyph glyph-name="ncaron" unicode="&#x148;" horiz-adv-x="610" 
d="M36 445l5 53q72 -4 92 -4h36l19 -18l6 -64q20 38 59.5 64.5t92.5 26.5q97 0 133 -56.5t36 -170.5v-109l7 -106l78 -7l-7 -59q-49 5 -129 5l-102 -5l-5 50l67 16q10 44 10 76v139q0 166 -103 166q-58 0 -92.5 -46.5t-35.5 -121.5v-107l7 -106l78 -7l-7 -59q-49 5 -129 5
l-111 -5l-5 50l76 16q8 48 10 71v221l-10 76zM202 765l74 -61q4 -3 59 -43l59 43l74 61l33 -32l-166 -169l-166 169z" />
    <glyph glyph-name="Eng" unicode="&#x14a;" horiz-adv-x="776" 
d="M741 710l5 -53l-79 -16q-15 -71 -15 -113v-231l-1 -304q1 -32 -112 -193l-34 22q67 144 78 182l-386 552v-389q0 -57 7 -106l81 -7l-7 -59q-43 5 -123 5l-108 -5l-5 50l79 16q9 59 9 76v431q0 8 -9 76l-80 12l5 54l116 -4h44l20 -21q82 -133 97 -155l262 -367v395
q0 29 -9 83l-79 6l6 60l82 -2z" />
    <glyph glyph-name="eng" unicode="&#x14b;" horiz-adv-x="594" 
d="M188 476l6 -64q20 38 59.5 64.5t92.5 26.5q97 0 133 -56.5t36 -170.5v-286q0 -18 -30.5 -74t-60.5 -104l-30 -47l-36 21q76 195 76 235v255q0 166 -103 166q-58 0 -92.5 -46.5t-35.5 -121.5v-107l7 -106l78 -7l-7 -59q-49 5 -129 5l-111 -5l-5 50l76 16q8 48 10 71v221
l-10 76l-76 16l5 53q72 -4 92 -4h36z" />
    <glyph glyph-name="Omacron" unicode="&#x14c;" horiz-adv-x="740" 
d="M698 352q0 -168 -84.5 -267.5t-243.5 -99.5t-243.5 99.5t-84.5 267.5t84.5 268t243.5 100t243.5 -100t84.5 -268zM149 352q0 -138 57 -226t164 -88t164 88t57 226t-57 226.5t-164 88.5t-164 -88.5t-57 -226.5zM526 771h-317v53h322z" />
    <glyph glyph-name="omacron" unicode="&#x14d;" horiz-adv-x="540" 
d="M500 246q0 -117 -59.5 -186.5t-170.5 -69.5t-170.5 69.5t-59.5 186.5q0 118 59.5 187.5t170.5 69.5q113 0 171.5 -69t58.5 -188zM406 246q0 87 -32 143.5t-104 56.5t-104 -56.5t-32 -143.5t32 -143t104 -56t104 56t32 143zM434 596h-317v53h322z" />
    <glyph glyph-name="Obreve" unicode="&#x14e;" horiz-adv-x="740" 
d="M698 352q0 -168 -84.5 -267.5t-243.5 -99.5t-243.5 99.5t-84.5 267.5t84.5 268t243.5 100t243.5 -100t84.5 -268zM149 352q0 -138 57 -226t164 -88t164 88t57 226t-57 226.5t-164 88.5t-164 -88.5t-57 -226.5zM453 898h56q0 -68 -36 -104t-103 -36t-103 36t-36 104h56
q0 -38 23 -61t60 -23t60 23t23 61z" />
    <glyph glyph-name="obreve" unicode="&#x14f;" horiz-adv-x="540" 
d="M500 246q0 -117 -59.5 -186.5t-170.5 -69.5t-170.5 69.5t-59.5 186.5q0 118 59.5 187.5t170.5 69.5q113 0 171.5 -69t58.5 -188zM406 246q0 87 -32 143.5t-104 56.5t-104 -56.5t-32 -143.5t32 -143t104 -56t104 56t32 143zM361 727h56q0 -68 -36 -104t-103 -36t-103 36
t-36 104h56q0 -38 23 -61t60 -23t60 23t23 61z" />
    <glyph glyph-name="Ohungarumlaut" unicode="&#x150;" horiz-adv-x="740" 
d="M698 352q0 -168 -84.5 -267.5t-243.5 -99.5t-243.5 99.5t-84.5 267.5t84.5 268t243.5 100t243.5 -100t84.5 -268zM149 352q0 -138 57 -226t164 -88t164 88t57 226t-57 226.5t-164 88.5t-164 -88.5t-57 -226.5zM398 913l41 -67q-124 -53 -143 -62l-82 -50l-27 43zM612 913
l41 -67q-124 -53 -143 -62l-81 -50l-27 43z" />
    <glyph glyph-name="ohungarumlaut" unicode="&#x151;" horiz-adv-x="540" 
d="M500 246q0 -117 -59.5 -186.5t-170.5 -69.5t-170.5 69.5t-59.5 186.5q0 118 59.5 187.5t170.5 69.5q113 0 171.5 -69t58.5 -188zM406 246q0 87 -32 143.5t-104 56.5t-104 -56.5t-32 -143.5t32 -143t104 -56t104 56t32 143zM494 765l49 -62q-118 -67 -134 -78l-74 -61
l-33 41zM293 765l49 -62q-118 -67 -134 -78l-74 -61l-33 41z" />
    <glyph glyph-name="OE" unicode="&#x152;" horiz-adv-x="981" 
d="M943 165l-15 -151l-19 -18q-94 4 -114 4h-237q-31 0 -91 -4q-47 -11 -97 -11q-159 0 -243.5 99.5t-84.5 267.5t84.5 268t243.5 100q50 0 97 -11q60 -4 91 -4h224l114 10l19 -18l7 -136l-58 -5q-3 24 -11 54q-1 10 -20 34q-55 5 -81 5h-131q-7 -67 -7 -111v-144
q34 -2 43 -2h73l60 9l9 66l46 -5q-1 -60 -1 -80l3 -109l-48 -6l-9 67q-60 6 -80 6h-53q-17 0 -43 -3v-170q0 -43 7 -110h144q37 0 87 9q19 26 21 37q1 4 7.5 31t7.5 36zM523 108v487q-61 72 -153 72q-107 0 -164 -88.5t-57 -226.5t57 -226t164 -88q96 0 153 70z" />
    <glyph glyph-name="oe" unicode="&#x153;" horiz-adv-x="829" 
d="M609 503q192 0 192 -233l-17 -33h-299q3 -75 38 -128.5t98 -53.5q38 0 75 10.5t56 20.5l18 10l28 -46q-7 -7 -21 -17t-60 -26.5t-96 -16.5q-114 0 -176 75q-61 -75 -175 -75q-111 0 -170.5 69.5t-59.5 186.5q0 118 59.5 187.5t170.5 69.5q114 0 175 -73q57 73 164 73z
M270 446q-72 0 -104 -56.5t-32 -143.5t32 -143t104 -56t104 56t32 143t-32 143.5t-104 56.5zM605 451q-105 0 -119 -163l222 16q1 15 1 20q0 56 -26.5 91.5t-77.5 35.5z" />
    <glyph glyph-name="Racute" unicode="&#x154;" horiz-adv-x="644" 
d="M332 715q105 0 163 -52.5t58 -154.5q0 -71 -40 -120.5t-106 -71.5q75 -143 106 -185q9 -15 49 -70l72 -7l-7 -59q-78 5 -158 5q-42 92 -55 116l-98 185h-7q-61 0 -88 1v-135q0 -57 7 -106l90 -7l-7 -59q-66 5 -146 5l-118 -5l-5 50l79 16q9 59 9 76v431q0 13 -9 76
l-77 12l5 54q67 -3 100 -5q21 1 89 5.5t94 4.5zM290 665q-11 0 -61 -6q-8 -50 -8 -121v-183q50 -4 68 -4q79 0 124.5 39.5t45.5 116.5t-45 117.5t-124 40.5zM431 898l30 -73q-132 -32 -151 -38l-88 -37l-20 48z" />
    <glyph glyph-name="racute" unicode="&#x155;" horiz-adv-x="422" 
d="M188 476l6 -66q57 93 161 93q16 0 33 -2.5t26 -4.5l9 -3l-10 -165l-58 3v53q0 8 -14 50h-4q-128 -1 -134 -150v-117l7 -106l98 -7l-7 -59q-69 5 -149 5l-111 -5l-5 50l76 16q10 56 10 76v216l-10 76l-76 16l5 53q72 -4 92 -4h36zM317 755l47 -60q-106 -60 -121 -71
l-73 -60l-33 41z" />
    <glyph glyph-name="Rcommaaccent" unicode="&#x156;" horiz-adv-x="644" 
d="M332 715q105 0 163 -52.5t58 -154.5q0 -71 -40 -120.5t-106 -71.5q75 -143 106 -185q9 -15 49 -70l72 -7l-7 -59q-78 5 -158 5q-42 92 -55 116l-98 185h-7q-61 0 -88 1v-135q0 -57 7 -106l90 -7l-7 -59q-66 5 -146 5l-118 -5l-5 50l79 16q9 59 9 76v431q0 13 -9 76
l-77 12l5 54q67 -3 100 -5q21 1 89 5.5t94 4.5zM290 665q-11 0 -61 -6q-8 -50 -8 -121v-183q50 -4 68 -4q79 0 124.5 39.5t45.5 116.5t-45 117.5t-124 40.5zM319 -116q0 27 15 42.5t35 15.5q52 0 52 -66q0 -24 -11.5 -58t-23.5 -56l-12 -21l-37 12q15 53 15 79
q-33 13 -33 52z" />
    <glyph glyph-name="rcommaaccent" unicode="&#x157;" horiz-adv-x="422" 
d="M188 476l6 -66q57 93 161 93q16 0 33 -2.5t26 -4.5l9 -3l-10 -165l-58 3v53q0 8 -14 50h-4q-128 -1 -134 -150v-117l7 -106l98 -7l-7 -59q-69 5 -149 5l-111 -5l-5 50l76 16q10 56 10 76v216l-10 76l-76 16l5 53q72 -4 92 -4h36zM115 -116q0 27 15 42.5t35 15.5
q52 0 52 -66q0 -24 -11.5 -58t-23.5 -56l-12 -21l-37 12q15 53 15 79q-33 13 -33 52z" />
    <glyph glyph-name="Rcaron" unicode="&#x158;" horiz-adv-x="644" 
d="M332 715q105 0 163 -52.5t58 -154.5q0 -71 -40 -120.5t-106 -71.5q75 -143 106 -185q9 -15 49 -70l72 -7l-7 -59q-78 5 -158 5q-42 92 -55 116l-98 185h-7q-61 0 -88 1v-135q0 -57 7 -106l90 -7l-7 -59q-66 5 -146 5l-118 -5l-5 50l79 16q9 59 9 76v431q0 13 -9 76
l-77 12l5 54q67 -3 100 -5q21 1 89 5.5t94 4.5zM290 665q-11 0 -61 -6q-8 -50 -8 -121v-183q50 -4 68 -4q79 0 124.5 39.5t45.5 116.5t-45 117.5t-124 40.5zM463 893l23 -39l-174 -107l-174 107l23 39l88 -41l63 -25l63 25z" />
    <glyph glyph-name="rcaron" unicode="&#x159;" horiz-adv-x="422" 
d="M188 476l6 -66q57 93 161 93q16 0 33 -2.5t26 -4.5l9 -3l-10 -165l-58 3v53q0 8 -14 50h-4q-128 -1 -134 -150v-117l7 -106l98 -7l-7 -59q-69 5 -149 5l-111 -5l-5 50l76 16q10 56 10 76v216l-10 76l-76 16l5 53q72 -4 92 -4h36zM98 765l74 -61q4 -3 59 -43l59 43l74 61
l33 -32l-166 -169l-166 169z" />
    <glyph glyph-name="Sacute" unicode="&#x15a;" horiz-adv-x="559" 
d="M65 192l66 -6v-48q0 -18 11 -66q68 -27 130 -27q61 0 96.5 32.5t35.5 92.5q0 38 -25.5 69t-63 50.5t-82 43.5t-82 47.5t-63 63.5t-25.5 91q0 87 60.5 136t156.5 49q74 0 202 -32l-14 -151l-59 6v44q0 6 -13 56q-51 22 -119 22q-49 0 -81.5 -29t-32.5 -82q0 -32 19 -58
t49.5 -45t67.5 -37.5t74 -39.5t67.5 -46t49.5 -62.5t19 -83.5q0 -96 -67 -146.5t-172 -50.5q-60 0 -115 13.5t-80 26.5l-25 13zM396 898l30 -73q-132 -32 -151 -38l-88 -37l-20 48z" />
    <glyph glyph-name="sacute" unicode="&#x15b;" horiz-adv-x="422" 
d="M210 503q68 0 150 -17l-12 -143l-58 3v36q0 11 -14 57q-28 12 -67 12q-37 0 -59 -17.5t-22 -47.5q0 -28 26.5 -49.5t63.5 -38t74.5 -35t64 -51t26.5 -76.5q0 -146 -176 -146q-44 0 -85.5 10t-60.5 20l-19 9l11 136l58 -3v-38q0 -16 15 -59q31 -24 84 -24q91 0 91 76
q0 29 -26 50.5t-63 38t-74.5 35t-63.5 51.5t-26 78q0 62 45.5 97.5t116.5 35.5zM297 755l47 -60q-106 -60 -121 -71l-73 -60l-33 41z" />
    <glyph glyph-name="Scircumflex" unicode="&#x15c;" horiz-adv-x="559" 
d="M65 192l66 -6v-48q0 -18 11 -66q68 -27 130 -27q61 0 96.5 32.5t35.5 92.5q0 38 -25.5 69t-63 50.5t-82 43.5t-82 47.5t-63 63.5t-25.5 91q0 87 60.5 136t156.5 49q74 0 202 -32l-14 -151l-59 6v44q0 6 -13 56q-51 22 -119 22q-49 0 -81.5 -29t-32.5 -82q0 -32 19 -58
t49.5 -45t67.5 -37.5t74 -39.5t67.5 -46t49.5 -62.5t19 -83.5q0 -96 -67 -146.5t-172 -50.5q-60 0 -115 13.5t-80 26.5l-25 13zM277 893l174 -107l-23 -39l-88 41l-63 25l-63 -25l-88 -41l-23 39z" />
    <glyph glyph-name="scircumflex" unicode="&#x15d;" horiz-adv-x="422" 
d="M210 503q68 0 150 -17l-12 -143l-58 3v36q0 11 -14 57q-28 12 -67 12q-37 0 -59 -17.5t-22 -47.5q0 -28 26.5 -49.5t63.5 -38t74.5 -35t64 -51t26.5 -76.5q0 -146 -176 -146q-44 0 -85.5 10t-60.5 20l-19 9l11 136l58 -3v-38q0 -16 15 -59q31 -24 84 -24q91 0 91 76
q0 29 -26 50.5t-63 38t-74.5 35t-63.5 51.5t-26 78q0 62 45.5 97.5t116.5 35.5zM211 765l166 -169l-33 -32l-74 61l-59 43q-10 -7 -24.5 -17.5t-23 -16.5t-11.5 -9l-74 -61l-33 32z" />
    <glyph glyph-name="Scedilla" unicode="&#x15e;" horiz-adv-x="559" 
d="M65 192l66 -6v-48q0 -18 11 -66q68 -27 130 -27q61 0 96.5 32.5t35.5 92.5q0 38 -25.5 69t-63 50.5t-82 43.5t-82 47.5t-63 63.5t-25.5 91q0 87 60.5 136t156.5 49q74 0 202 -32l-14 -151l-59 6v44q0 6 -13 56q-51 22 -119 22q-49 0 -81.5 -29t-32.5 -82q0 -32 19 -58
t49.5 -45t67.5 -37.5t74 -39.5t67.5 -46t49.5 -62.5t19 -83.5q0 -91 -61 -141t-159 -55l-9 -45q45 -1 73 -24t28 -63t-31 -64.5t-76 -24.5t-83 18l13 35q35 -11 58 -11q24 0 39 12.5t15 34.5q0 43 -47 43l-21 -1l-11 10l7 80q-53 3 -101.5 16t-70.5 24l-22 12z" />
    <glyph glyph-name="scedilla" unicode="&#x15f;" horiz-adv-x="422" 
d="M210 503q68 0 150 -17l-12 -143l-58 3v36q0 11 -14 57q-28 12 -67 12q-37 0 -59 -17.5t-22 -47.5q0 -28 26.5 -49.5t63.5 -38t74.5 -35t64 -51t26.5 -76.5q0 -135 -151 -145l-10 -50q45 -1 73 -24t28 -63t-31 -64.5t-76 -24.5t-83 18l13 35q35 -11 58 -11q24 0 39 12.5
t15 34.5q0 43 -47 43l-21 -1l-11 10l7 85q-39 2 -75 11.5t-53 17.5l-16 9l11 136l58 -3v-38q0 -16 15 -59q31 -24 84 -24q91 0 91 76q0 29 -26 50.5t-63 38t-74.5 35t-63.5 51.5t-26 78q0 62 45.5 97.5t116.5 35.5z" />
    <glyph glyph-name="Scaron" unicode="&#x160;" horiz-adv-x="559" 
d="M65 192l66 -6v-48q0 -18 11 -66q68 -27 130 -27q61 0 96.5 32.5t35.5 92.5q0 38 -25.5 69t-63 50.5t-82 43.5t-82 47.5t-63 63.5t-25.5 91q0 87 60.5 136t156.5 49q74 0 202 -32l-14 -151l-59 6v44q0 6 -13 56q-51 22 -119 22q-49 0 -81.5 -29t-32.5 -82q0 -32 19 -58
t49.5 -45t67.5 -37.5t74 -39.5t67.5 -46t49.5 -62.5t19 -83.5q0 -96 -67 -146.5t-172 -50.5q-60 0 -115 13.5t-80 26.5l-25 13zM428 893l23 -39l-174 -107l-174 107l23 39l88 -41l63 -25l63 25z" />
    <glyph glyph-name="scaron" unicode="&#x161;" horiz-adv-x="422" 
d="M210 503q68 0 150 -17l-12 -143l-58 3v36q0 11 -14 57q-28 12 -67 12q-37 0 -59 -17.5t-22 -47.5q0 -28 26.5 -49.5t63.5 -38t74.5 -35t64 -51t26.5 -76.5q0 -146 -176 -146q-44 0 -85.5 10t-60.5 20l-19 9l11 136l58 -3v-38q0 -16 15 -59q31 -24 84 -24q91 0 91 76
q0 29 -26 50.5t-63 38t-74.5 35t-63.5 51.5t-26 78q0 62 45.5 97.5t116.5 35.5zM78 765l74 -61q4 -3 59 -43l59 43l74 61l33 -32l-166 -169l-166 169z" />
    <glyph glyph-name="Tcedilla" unicode="&#x162;" horiz-adv-x="595" 
d="M585 553l-58 -5q-5 39 -11 62q-1 10 -20 34q-55 5 -81 5h-65q-7 -70 -7 -111v-371q0 -57 7 -106l90 -7l-7 -59q-50 4 -114 5l-12 -59q45 -1 73 -24t28 -63t-31 -64.5t-76 -24.5t-83 18l13 35q35 -11 58 -11q24 0 39 12.5t15 34.5q0 43 -47 43l-21 -1l-11 10l8 94l-103 -5
l-5 50l79 16q9 59 9 76v431q0 7 -1.5 22.5t-4 34t-3.5 24.5h-63q-26 0 -81 -5q-19 -24 -20 -34q-6 -23 -11 -62l-58 5l7 144l19 18q94 -10 114 -10h295l114 10l19 -18z" />
    <glyph glyph-name="tcedilla" unicode="&#x163;" horiz-adv-x="344" 
d="M314 83l28 -41q-56 -44 -96 -50l-10 -51q45 -1 73 -24t28 -63t-31 -64.5t-76 -24.5t-83 18l13 35q35 -11 58 -11q24 0 39 12.5t15 34.5q0 43 -47 43l-21 -1l-11 10l7 86q-55 6 -77.5 45.5t-22.5 118.5v284h-77l-3 42q9 3 28 8.5t30.5 10t21.5 10.5l46 90l35 -4v-103h140
l-5 -54h-135v-308q0 -78 54 -78q16 0 35.5 7t31.5 15z" />
    <glyph glyph-name="Tcaron" unicode="&#x164;" horiz-adv-x="595" 
d="M585 553l-58 -5q-5 39 -11 62q-1 10 -20 34q-55 5 -81 5h-65q-7 -70 -7 -111v-371q0 -57 7 -106l90 -7l-7 -59q-66 5 -146 5l-118 -5l-5 50l79 16q9 59 9 76v431q0 7 -1.5 22.5t-4 34t-3.5 24.5h-63q-26 0 -81 -5q-19 -24 -20 -34q-6 -23 -11 -62l-58 5l7 144l19 18
q94 -10 114 -10h295l114 10l19 -18zM449 893l23 -39l-174 -107l-174 107l23 39l88 -41l63 -25l63 25z" />
    <glyph glyph-name="tcaron" unicode="&#x165;" horiz-adv-x="344" 
d="M237 756h79l-13 -213l-58 3l1 82zM314 83l28 -41q-67 -52 -118 -52q-69 0 -96.5 40t-27.5 126v284h-77l-3 42q9 3 28 8.5t30.5 10t21.5 10.5l46 90l35 -4v-103h140l-5 -54h-135v-308q0 -78 54 -78q16 0 35.5 7t31.5 15z" />
    <glyph glyph-name="Tbar" unicode="&#x166;" horiz-adv-x="595" 
d="M585 553l-58 -5q-5 39 -11 62q-1 10 -20 34q-55 5 -81 5h-65q-7 -70 -7 -111v-141h154v-44h-154v-186q0 -57 7 -106l90 -7l-7 -59q-66 5 -146 5l-118 -5l-5 50l79 16q9 59 9 76v216h-155v44h155v171q0 7 -1.5 22.5t-4 34t-3.5 24.5h-63q-26 0 -81 -5q-19 -24 -20 -34
q-6 -23 -11 -62l-58 5l7 144l19 18q94 -10 114 -10h295l114 10l19 -18z" />
    <glyph glyph-name="tbar" unicode="&#x167;" horiz-adv-x="344" 
d="M314 83l28 -41q-67 -52 -118 -52q-69 0 -96.5 40t-27.5 126v140h-77v44h77v100h-77l-3 42q9 3 28 8.5t30.5 10t21.5 10.5l46 90l35 -4v-103h140l-5 -54h-135v-100h126v-44h-126v-164q0 -78 54 -78q16 0 35.5 7t31.5 15z" />
    <glyph glyph-name="Umacron" unicode="&#x16a;" horiz-adv-x="727" 
d="M704 710l4 -59l-79 -7q-7 -52 -7 -111v-267q0 -131 -66.5 -206t-192.5 -75t-192 75t-66 206v297q0 13 -9 81l-79 12l5 54q96 -5 116 -5l144 5l4 -59l-79 -7q-7 -52 -7 -111v-267q0 -99 44 -158t128 -59q87 0 132.5 59.5t45.5 157.5v297q0 11 -10 81l-78 12l5 54
q86 -5 106 -5zM521 771h-317v53h322z" />
    <glyph glyph-name="umacron" unicode="&#x16b;" horiz-adv-x="592" 
d="M324 445l5 53q67 -4 87 -4h58l19 -18q-7 -103 -7 -153v-156q0 -22 2.5 -48.5t5.5 -42.5l2 -15l69 -7l-7 -59q-49 5 -129 5l-13 78q-51 -88 -155 -88q-96 0 -129 56.5t-33 170.5v136l-10 76l-66 16l5 53q62 -4 82 -4h58l19 -18q-7 -103 -7 -153v-140q0 -129 99 -129
q59 0 92.5 46t33.5 110v143l-10 76zM430 596h-317v53h322z" />
    <glyph glyph-name="Ubreve" unicode="&#x16c;" horiz-adv-x="727" 
d="M704 710l4 -59l-79 -7q-7 -52 -7 -111v-267q0 -131 -66.5 -206t-192.5 -75t-192 75t-66 206v297q0 13 -9 81l-79 12l5 54q96 -5 116 -5l144 5l4 -59l-79 -7q-7 -52 -7 -111v-267q0 -99 44 -158t128 -59q87 0 132.5 59.5t45.5 157.5v297q0 11 -10 81l-78 12l5 54
q86 -5 106 -5zM448 898h56q0 -68 -36 -104t-103 -36t-103 36t-36 104h56q0 -38 23 -61t60 -23t60 23t23 61z" />
    <glyph glyph-name="ubreve" unicode="&#x16d;" horiz-adv-x="592" 
d="M324 445l5 53q67 -4 87 -4h58l19 -18q-7 -103 -7 -153v-156q0 -22 2.5 -48.5t5.5 -42.5l2 -15l69 -7l-7 -59q-49 5 -129 5l-13 78q-51 -88 -155 -88q-96 0 -129 56.5t-33 170.5v136l-10 76l-66 16l5 53q62 -4 82 -4h58l19 -18q-7 -103 -7 -153v-140q0 -129 99 -129
q59 0 92.5 46t33.5 110v143l-10 76zM357 727h56q0 -68 -36 -104t-103 -36t-103 36t-36 104h56q0 -38 23 -61t60 -23t60 23t23 61z" />
    <glyph glyph-name="Uring" unicode="&#x16e;" horiz-adv-x="727" 
d="M704 710l4 -59l-79 -7q-7 -52 -7 -111v-267q0 -131 -66.5 -206t-192.5 -75t-192 75t-66 206v297q0 13 -9 81l-79 12l5 54q96 -5 116 -5l144 5l4 -59l-79 -7q-7 -52 -7 -111v-267q0 -99 44 -158t128 -59q87 0 132.5 59.5t45.5 157.5v297q0 11 -10 81l-78 12l5 54
q86 -5 106 -5zM365 916q44 0 66.5 -23t22.5 -63q0 -39 -22.5 -62t-66.5 -23t-67 23t-23 62q0 40 23 63t67 23zM365 878q-41 0 -41 -48q0 -47 41 -47q42 0 42 47q0 48 -42 48z" />
    <glyph glyph-name="uring" unicode="&#x16f;" horiz-adv-x="592" 
d="M324 445l5 53q67 -4 87 -4h58l19 -18q-7 -103 -7 -153v-156q0 -22 2.5 -48.5t5.5 -42.5l2 -15l69 -7l-7 -59q-49 5 -129 5l-13 78q-51 -88 -155 -88q-96 0 -129 56.5t-33 170.5v136l-10 76l-66 16l5 53q62 -4 82 -4h58l19 -18q-7 -103 -7 -153v-140q0 -129 99 -129
q59 0 92.5 46t33.5 110v143l-10 76zM274 751q44 0 66.5 -23t22.5 -63q0 -39 -22.5 -62t-66.5 -23t-67 23t-23 62q0 40 23 63t67 23zM274 713q-41 0 -41 -48q0 -47 41 -47q42 0 42 47q0 48 -42 48z" />
    <glyph glyph-name="Uhungarumlaut" unicode="&#x170;" horiz-adv-x="727" 
d="M704 710l4 -59l-79 -7q-7 -52 -7 -111v-267q0 -131 -66.5 -206t-192.5 -75t-192 75t-66 206v297q0 13 -9 81l-79 12l5 54q96 -5 116 -5l144 5l4 -59l-79 -7q-7 -52 -7 -111v-267q0 -99 44 -158t128 -59q87 0 132.5 59.5t45.5 157.5v297q0 11 -10 81l-78 12l5 54
q86 -5 106 -5zM393 913l41 -67q-124 -53 -143 -62l-82 -50l-27 43zM607 913l41 -67q-124 -53 -143 -62l-81 -50l-27 43z" />
    <glyph glyph-name="uhungarumlaut" unicode="&#x171;" horiz-adv-x="592" 
d="M324 445l5 53q67 -4 87 -4h58l19 -18q-7 -103 -7 -153v-156q0 -22 2.5 -48.5t5.5 -42.5l2 -15l69 -7l-7 -59q-49 5 -129 5l-13 78q-51 -88 -155 -88q-96 0 -129 56.5t-33 170.5v136l-10 76l-66 16l5 53q62 -4 82 -4h58l19 -18q-7 -103 -7 -153v-140q0 -129 99 -129
q59 0 92.5 46t33.5 110v143l-10 76zM490 765l49 -62q-118 -67 -134 -78l-74 -61l-33 41zM289 765l49 -62q-118 -67 -134 -78l-74 -61l-33 41z" />
    <glyph glyph-name="Uogonek" unicode="&#x172;" horiz-adv-x="727" 
d="M704 710l4 -59l-79 -7q-7 -52 -7 -111v-267q0 -119 -55.5 -192t-160.5 -86q-41 -51 -41 -96q0 -47 55 -47q26 0 56 13l14 -33q-47 -22 -86 -22q-47 0 -75 22.5t-28 66.5q0 45 51 93q-121 4 -184 78t-63 203v297q0 13 -9 81l-79 12l5 54q96 -5 116 -5l144 5l4 -59l-79 -7
q-7 -52 -7 -111v-267q0 -99 44 -158t128 -59q87 0 132.5 59.5t45.5 157.5v297q0 11 -10 81l-78 12l5 54q86 -5 106 -5z" />
    <glyph glyph-name="uogonek" unicode="&#x173;" horiz-adv-x="592" 
d="M324 445l5 53q67 -4 87 -4h58l19 -18q-7 -103 -7 -153v-156q0 -22 2.5 -48.5t5.5 -42.5l2 -15l69 -7l-7 -59q-31 3 -82 5q-51 -58 -51 -108q0 -47 55 -47q26 0 56 13l14 -33q-47 -22 -86 -22q-47 0 -75 22.5t-28 66.5q0 29 15 52t53 56l-13 78q-51 -88 -155 -88
q-96 0 -129 56.5t-33 170.5v136l-10 76l-66 16l5 53q62 -4 82 -4h58l19 -18q-7 -103 -7 -153v-140q0 -129 99 -129q59 0 92.5 46t33.5 110v143l-10 76z" />
    <glyph glyph-name="Wcircumflex" unicode="&#x174;" horiz-adv-x="1011" 
d="M1009 661l-68 -17q-34 -60 -46 -99l-164 -545h-61l-167 506l-152 -506h-61l-183 556q-6 19 -16 40t-17 33l-7 12l-66 10l5 54h109l147 5l4 -49l-79 -20q12 -57 27 -108l115 -385l158 537h53l169 -537l123 430l11 63l-76 10l5 54h90l143 5zM506 893l174 -107l-23 -39
l-88 41l-63 25l-63 -25l-88 -41l-23 39z" />
    <glyph glyph-name="wcircumflex" unicode="&#x175;" horiz-adv-x="800" 
d="M796 441l-45 -6q-31 -69 -50 -116l-115 -319h-68l-118 335l-114 -335h-67q-123 322 -131 344q-15 43 -41 90l-41 11l5 52q49 -3 69 -3l150 5l3 -58l-80 -7q19 -72 24 -85l86 -246l127 391h39l134 -391l83 248q4 11 20 83l-85 11l5 52q74 -3 94 -3q36 0 64 1t38 3l11 1z
M400 765l166 -169l-33 -32l-74 61l-59 43q-10 -7 -24.5 -17.5t-23 -16.5t-11.5 -9l-74 -61l-33 32z" />
    <glyph glyph-name="Ycircumflex" unicode="&#x176;" horiz-adv-x="663" 
d="M645 661l-68 -17q-36 -47 -63 -99l-140 -272v-106q0 -57 7 -106l90 -7l-7 -59q-66 5 -146 5l-118 -5l-5 50l79 16q9 59 9 76v120l-155 299q-9 18 -23 39.5t-23 33.5l-10 12l-66 10l5 54h109l147 5l4 -49l-79 -20q11 -49 43 -108l101 -189l115 234l28 63l-76 10l5 54h90
l143 5zM332 893l174 -107l-23 -39l-88 41l-63 25l-63 -25l-88 -41l-23 39z" />
    <glyph glyph-name="ycircumflex" unicode="&#x177;" horiz-adv-x="539" 
d="M279 104l87 232q14 39 27 97l-73 12l5 52q67 -3 87 -3l115 5l3 -58l-53 -8q-36 -73 -52 -114l-206 -554l-161 11l8 58l40 -1q14 0 67 10q25 35 38 68l32 89l-143 333q-15 37 -51 100l-49 12l5 52q62 -3 82 -3l137 5l3 -58l-72 -7q13 -57 25 -85zM270 765l166 -169
l-33 -32l-74 61l-59 43q-10 -7 -24.5 -17.5t-23 -16.5t-11.5 -9l-74 -61l-33 32z" />
    <glyph glyph-name="Ydieresis" unicode="&#x178;" horiz-adv-x="663" 
d="M645 661l-68 -17q-36 -47 -63 -99l-140 -272v-106q0 -57 7 -106l90 -7l-7 -59q-66 5 -146 5l-118 -5l-5 50l79 16q9 59 9 76v120l-155 299q-9 18 -23 39.5t-23 33.5l-10 12l-66 10l5 54h109l147 5l4 -49l-79 -20q11 -49 43 -108l101 -189l115 234l28 63l-76 10l5 54h90
l143 5zM214 884q54 0 54 -60q0 -59 -54 -59t-54 59q0 28 14 44t40 16zM450 884q54 0 54 -60q0 -59 -54 -59t-54 59q0 28 14 44t40 16z" />
    <glyph glyph-name="Zacute" unicode="&#x179;" horiz-adv-x="557" 
d="M399 646h-183q-31 0 -86 -5l-16 -34q-9 -34 -13 -84l-58 5l7 169l19 18q94 -10 114 -10h331l7 -56l-108 -155l-191 -303l-73 -132h203q38 0 88 9q18 24 20 35q10 38 15 77l55 -5l-15 -161l-19 -18q-94 4 -114 4h-348l-7 57q82 114 112 162l190 301zM398 898l30 -73
q-132 -32 -151 -38l-88 -37l-20 48z" />
    <glyph glyph-name="zacute" unicode="&#x17a;" horiz-adv-x="460" 
d="M54 478l18 19q75 -3 95 -3h242l7 -58l-86 -109l-122 -185q-13 -20 -50 -90h125q11 0 59 6q15 30 22 51q0 1 1 6.5t2.5 15.5t2.5 18l58 -6l-9 -127l-18 -19q-90 3 -110 3h-243l-7 58q80 88 95 110l124 184q18 28 50 90h-122q-9 0 -53 -6q-22 -40 -24 -62l-4 -39l-58 4z
M316 755l47 -60q-106 -60 -121 -71l-73 -60l-33 41z" />
    <glyph glyph-name="Zdotaccent" unicode="&#x17b;" horiz-adv-x="557" 
d="M399 646h-183q-31 0 -86 -5l-16 -34q-9 -34 -13 -84l-58 5l7 169l19 18q94 -10 114 -10h331l7 -56l-108 -155l-191 -303l-73 -132h203q38 0 88 9q18 24 20 35q10 38 15 77l55 -5l-15 -161l-19 -18q-94 4 -114 4h-348l-7 57q82 114 112 162l190 301zM279 890
q28 0 43.5 -17t15.5 -48q0 -29 -15.5 -46.5t-43.5 -17.5t-43.5 17.5t-15.5 46.5t15.5 47t43.5 18z" />
    <glyph glyph-name="zdotaccent" unicode="&#x17c;" horiz-adv-x="460" 
d="M54 478l18 19q75 -3 95 -3h242l7 -58l-86 -109l-122 -185q-13 -20 -50 -90h125q11 0 59 6q15 30 22 51q0 1 1 6.5t2.5 15.5t2.5 18l58 -6l-9 -127l-18 -19q-90 3 -110 3h-243l-7 58q80 88 95 110l124 184q18 28 50 90h-122q-9 0 -53 -6q-22 -40 -24 -62l-4 -39l-58 4z
M230 720q28 0 43.5 -17t15.5 -48q0 -29 -15.5 -46.5t-43.5 -17.5t-43.5 17.5t-15.5 46.5t15.5 47t43.5 18z" />
    <glyph glyph-name="Zcaron" unicode="&#x17d;" horiz-adv-x="557" 
d="M399 646h-183q-31 0 -86 -5l-16 -34q-9 -34 -13 -84l-58 5l7 169l19 18q94 -10 114 -10h331l7 -56l-108 -155l-191 -303l-73 -132h203q38 0 88 9q18 24 20 35q10 38 15 77l55 -5l-15 -161l-19 -18q-94 4 -114 4h-348l-7 57q82 114 112 162l190 301zM430 893l23 -39
l-174 -107l-174 107l23 39l88 -41l63 -25l63 25z" />
    <glyph glyph-name="zcaron" unicode="&#x17e;" horiz-adv-x="460" 
d="M54 478l18 19q75 -3 95 -3h242l7 -58l-86 -109l-122 -185q-13 -20 -50 -90h125q11 0 59 6q15 30 22 51q0 1 1 6.5t2.5 15.5t2.5 18l58 -6l-9 -127l-18 -19q-90 3 -110 3h-243l-7 58q80 88 95 110l124 184q18 28 50 90h-122q-9 0 -53 -6q-22 -40 -24 -62l-4 -39l-58 4z
M97 765l74 -61q4 -3 59 -43l59 43l74 61l33 -32l-166 -169l-166 169z" />
    <glyph glyph-name="florin" unicode="&#x192;" horiz-adv-x="365" 
d="M96 10l15 430h-77l-2 42q9 3 23 7t22 6.5t18 6.5t18 9l3 86q3 80 50 126.5t132 46.5q18 0 44 -2.5t42 -5.5l17 -2l-16 -135l-53 3l2 36q0 17 -12 51q-14 2 -26 2q-26 0 -44.5 -7.5t-29 -19t-16 -33t-7.5 -40.5t-3 -51l-2 -72h140l-7 -54h-135l-16 -461q-3 -80 -50 -126.5
t-131 -46.5l2 53q61 0 78.5 35.5t20.5 115.5z" />
    <glyph glyph-name="Aringacute" unicode="&#x1fa;" horiz-adv-x="664" 
d="M660 54l-5 -54h-101l-143 -5l-4 49l73 20l-27 108l-21 60h-220l-32 -105l-10 -63l70 -10l-5 -54h-86l-135 -5l-4 49l63 17l43 99l179 545l58 10l206 -566l39 -85zM318 557l-88 -275l182 4zM327 874q37 0 56.5 -19.5t19.5 -53.5q0 -33 -19.5 -52.5t-56.5 -19.5t-57 19.5
t-20 52.5q0 34 20 53.5t57 19.5zM327 842q-35 0 -35 -41q0 -40 35 -40q36 0 36 40q0 41 -36 41zM413 997l27 -65q-119 -29 -136 -35l-79 -33l-18 43z" />
    <glyph glyph-name="aringacute" unicode="&#x1fb;" horiz-adv-x="516" 
d="M363 0l-14 79q-19 -38 -64.5 -63.5t-94.5 -25.5q-67 0 -106 34.5t-39 93.5q0 111 134 133l160 27v33q0 138 -94 138q-53 0 -95 -20l-7 -42v-41l-58 -3l-11 136q90 24 181 24q89 0 127 -48.5t38 -163.5v-124q0 -22 2.5 -48.5t5.5 -42.5l2 -15l69 -7l-7 -59q-49 5 -129 5z
M339 227l-143 -27q-30 -5 -46.5 -23t-16.5 -44q0 -38 19 -58.5t54 -20.5q50 0 87.5 32t45.5 81v60zM331 813l27 -65q-119 -29 -136 -35l-79 -33l-18 43zM245 690q37 0 56.5 -19.5t19.5 -53.5q0 -33 -19.5 -52.5t-56.5 -19.5t-57 19.5t-20 52.5q0 34 20 53.5t57 19.5z
M245 658q-35 0 -35 -41q0 -40 35 -40q36 0 36 40q0 41 -36 41z" />
    <glyph glyph-name="AEacute" unicode="&#x1fc;" horiz-adv-x="907" 
d="M820 697l7 -136l-58 -5q-3 24 -11 54q-1 9 -20 33q-55 5 -81 5h-181q7 -78 11 -107l24 -155q56 -4 76 -4h48l60 9l9 66l46 -5q-1 -60 -1 -80l3 -109l-48 -6l-9 67q-60 6 -80 6h-28q-15 0 -67 -4l24 -152l25 -117h122q37 0 87 9q17 24 21 37q12 47 15 67l55 -5l-15 -151
l-19 -18q-94 4 -114 4h-218l-118 -5l-5 50l82 16q0 36 -5 69l-18 118h-214l-69 -146q-2 -5 -6 -20t-6 -21l82 -7l-7 -59q-51 5 -131 5l-93 -5l-5 50l60 16q52 72 61 92l234 491l-78 12l5 54q96 -5 116 -5h299l114 10zM250 299l181 3l-39 254l-7 28zM623 898l30 -73
q-132 -32 -151 -38l-88 -37l-20 48z" />
    <glyph glyph-name="aeacute" unicode="&#x1fd;" horiz-adv-x="756" 
d="M80 344l-11 135q90 24 181 24q103 0 138 -65q59 64 150 64q176 0 190 -192l-15 -38l-299 -34q3 -82 43.5 -132.5t102.5 -50.5q35 0 70 10.5t52 20.5l17 10l28 -46q-8 -7 -23.5 -17t-61.5 -26.5t-92 -16.5q-134 0 -185 116q-68 -116 -180 -116q-67 0 -106 36t-39 97
q0 51 29.5 83t85.5 41l179 30v34q0 138 -94 138q-55 0 -93 -19l-9 -47v-36zM334 226l-143 -26q-34 -7 -48.5 -23.5t-14.5 -48.5q0 -35 19 -54.5t54 -19.5q56 0 94.5 46.5t38.5 114.5v11zM534 450q-51 0 -82 -42t-36 -119l222 31v2q0 61 -27.5 94.5t-76.5 33.5zM474 755
l47 -60q-106 -60 -121 -71l-73 -60l-33 41z" />
    <glyph glyph-name="Oslashacute" unicode="&#x1fe;" horiz-adv-x="740" 
d="M698 352q0 -168 -84.5 -267.5t-243.5 -99.5q-84 0 -150 30l-80 -151l-40 23l79 151q-137 93 -137 314q0 168 84.5 268t243.5 100q85 0 152 -31l78 149l42 -23l-79 -150q135 -96 135 -313zM149 352q0 -156 68 -242l272 517q-51 40 -119 40q-107 0 -164 -88.5t-57 -226.5z
M591 352q0 154 -67 240l-272 -516q51 -38 118 -38q107 0 164 88t57 226zM489 898l30 -73q-132 -32 -151 -38l-88 -37l-20 48z" />
    <glyph glyph-name="oslashacute" unicode="&#x1ff;" horiz-adv-x="540" 
d="M122 -99l-39 20l55 105q-98 65 -98 220q0 118 59.5 187.5t170.5 69.5q61 0 108 -22l62 117l40 -20l-64 -120q84 -66 84 -212q0 -117 -59.5 -186.5t-170.5 -69.5q-48 0 -93 15zM134 246q0 -101 39 -154l173 329q-30 25 -76 25q-72 0 -104 -56.5t-32 -143.5zM406 246
q0 83 -29 137l-170 -321q25 -15 63 -15q72 0 104 56t32 143zM360 755l47 -60q-106 -60 -121 -71l-73 -60l-33 41z" />
    <glyph glyph-name="Scommaaccent" unicode="&#x218;" horiz-adv-x="559" 
d="M65 192l66 -6v-48q0 -18 11 -66q68 -27 130 -27q61 0 96.5 32.5t35.5 92.5q0 38 -25.5 69t-63 50.5t-82 43.5t-82 47.5t-63 63.5t-25.5 91q0 87 60.5 136t156.5 49q74 0 202 -32l-14 -151l-59 6v44q0 6 -13 56q-51 22 -119 22q-49 0 -81.5 -29t-32.5 -82q0 -32 19 -58
t49.5 -45t67.5 -37.5t74 -39.5t67.5 -46t49.5 -62.5t19 -83.5q0 -96 -67 -146.5t-172 -50.5q-60 0 -115 13.5t-80 26.5l-25 13zM224 -116q0 27 15 42.5t35 15.5q52 0 52 -66q0 -24 -12 -58t-24 -56l-11 -21l-37 12q15 53 15 79q-33 13 -33 52z" />
    <glyph glyph-name="scommaaccent" unicode="&#x219;" horiz-adv-x="422" 
d="M210 503q68 0 150 -17l-12 -143l-58 3v36q0 11 -14 57q-28 12 -67 12q-37 0 -59 -17.5t-22 -47.5q0 -28 26.5 -49.5t63.5 -38t74.5 -35t64 -51t26.5 -76.5q0 -146 -176 -146q-44 0 -85.5 10t-60.5 20l-19 9l11 136l58 -3v-38q0 -16 15 -59q31 -24 84 -24q91 0 91 76
q0 29 -26 50.5t-63 38t-74.5 35t-63.5 51.5t-26 78q0 62 45.5 97.5t116.5 35.5zM163 -116q0 27 15 42.5t35 15.5q52 0 52 -66q0 -24 -11.5 -58t-23.5 -56l-12 -21l-37 12q15 53 15 79q-33 13 -33 52z" />
    <glyph glyph-name="uni021A" unicode="&#x21a;" horiz-adv-x="595" 
d="M585 553l-58 -5q-5 39 -11 62q-1 10 -20 34q-55 5 -81 5h-65q-7 -70 -7 -111v-371q0 -57 7 -106l90 -7l-7 -59q-66 5 -146 5l-118 -5l-5 50l79 16q9 59 9 76v431q0 7 -1.5 22.5t-4 34t-3.5 24.5h-63q-26 0 -81 -5q-19 -24 -20 -34q-6 -23 -11 -62l-58 5l7 144l19 18
q94 -10 114 -10h295l114 10l19 -18zM252 -116q0 27 15 42.5t35 15.5q52 0 52 -66q0 -24 -12 -58t-24 -56l-11 -21l-37 12q15 53 15 79q-33 13 -33 52z" />
    <glyph glyph-name="uni021B" unicode="&#x21b;" horiz-adv-x="344" 
d="M314 83l28 -41q-67 -52 -118 -52q-69 0 -96.5 40t-27.5 126v284h-77l-3 42q9 3 28 8.5t30.5 10t21.5 10.5l46 90l35 -4v-103h140l-5 -54h-135v-308q0 -78 54 -78q16 0 35.5 7t31.5 15zM158 -116q0 27 15 42.5t35 15.5q52 0 52 -66q0 -24 -12 -58t-24 -56l-11 -21l-37 12
q15 53 15 79q-33 13 -33 52z" />
    <glyph glyph-name="dotlessj" unicode="&#x237;" horiz-adv-x="278" 
d="M25 445l5 53q72 -4 92 -4h58l19 -18q-7 -103 -7 -153v-333q0 -18 -30 -74t-60 -104l-31 -47l-36 21q76 195 76 235v332l-10 76z" />
    <glyph glyph-name="circumflex" unicode="&#x2c6;" 
d="M180 765l166 -169l-33 -32l-74 61l-59 43q-10 -7 -24.5 -17.5t-23 -16.5t-11.5 -9l-74 -61l-33 32z" />
    <glyph glyph-name="caron" unicode="&#x2c7;" 
d="M47 765l74 -61q4 -3 59 -43l59 43l74 61l33 -32l-166 -169l-166 169z" />
    <glyph glyph-name="breve" unicode="&#x2d8;" 
d="M263 727h56q0 -68 -36 -104t-103 -36t-103 36t-36 104h56q0 -38 23 -61t60 -23t60 23t23 61z" />
    <glyph glyph-name="dotaccent" unicode="&#x2d9;" 
d="M180 720q28 0 43.5 -17t15.5 -48q0 -29 -15.5 -46.5t-43.5 -17.5t-43.5 17.5t-15.5 46.5t15.5 47t43.5 18z" />
    <glyph glyph-name="ring" unicode="&#x2da;" 
d="M180 751q44 0 66.5 -23t22.5 -63q0 -39 -22.5 -62t-66.5 -23t-67 23t-23 62q0 40 23 63t67 23zM180 713q-41 0 -41 -48q0 -47 41 -47q42 0 42 47q0 48 -42 48z" />
    <glyph glyph-name="ogonek" unicode="&#x2db;" 
d="M248 13h45q-28 -27 -46 -60.5t-18 -60.5q0 -47 55 -47q26 0 56 13l14 -33q-47 -22 -86 -22q-47 0 -75 22.5t-28 66.5q0 31 17.5 55.5t65.5 65.5z" />
    <glyph glyph-name="tilde" unicode="&#x2dc;" 
d="M307 723l36 -21q-5 -11 -13 -27.5t-30 -43.5t-40 -27q-20 0 -77 20.5t-77 20.5q-12 0 -25 -13.5t-21 -27.5l-7 -13l-36 21q5 11 13 28t29.5 45t39.5 28q20 0 77.5 -20.5t77.5 -20.5q12 0 25 13t21 25z" />
    <glyph glyph-name="hungarumlaut" unicode="&#x2dd;" 
d="M376 765l49 -62q-118 -67 -134 -78l-74 -61l-33 41zM175 765l49 -62q-118 -67 -134 -78l-74 -61l-33 41z" />
    <glyph glyph-name="tildecomb" unicode="&#x303;" 
d="M307 723l36 -21q-5 -11 -13 -27.5t-30 -43.5t-40 -27q-20 0 -77 20.5t-77 20.5q-12 0 -25 -13.5t-21 -27.5l-7 -13l-36 21q5 11 13 28t29.5 45t39.5 28q20 0 77.5 -20.5t77.5 -20.5q12 0 25 13t21 25z" />
    <glyph glyph-name="dotbelowcomb" unicode="&#x323;" 
d="M180 -71q28 0 43.5 -17t15.5 -48q0 -29 -15.5 -46.5t-43.5 -17.5t-43.5 17.5t-15.5 46.5t15.5 47t43.5 18z" />
    <glyph glyph-name="Delta" unicode="&#x394;" horiz-adv-x="680" 
d="M631 -15h-578l-28 65q57 88 66 116l216 537l54 13q240 -558 249 -580l45 -83zM513 134l-192 451l-184 -467q-12 -48 -19 -72q82 -2 122 -2q65 0 297 6q-15 60 -24 84z" />
    <glyph glyph-name="Delta" unicode="&#x2206;" horiz-adv-x="680" 
d="M631 -15h-578l-28 65q57 88 66 116l216 537l54 13q240 -558 249 -580l45 -83zM513 134l-192 451l-184 -467q-12 -48 -19 -72q82 -2 122 -2q65 0 297 6q-15 60 -24 84z" />
    <glyph glyph-name="Omega" unicode="&#x3a9;" horiz-adv-x="794" 
d="M203 57l77 -4v13q-201 80 -201 316q0 156 83 247t235 91t235 -91t83 -247q0 -236 -201 -316v-13l77 4q37 0 87 9q18 25 21 37q12 47 15 67l55 -5l-15 -158l-10 -11q-103 4 -123 4h-64l-94 -4l-10 97q81 36 118 106t37 183q0 79 -20.5 141t-69.5 103t-121 41t-121 -41
t-69.5 -103t-20.5 -141q0 -113 37 -183t118 -106l-10 -97q-54 4 -94 4h-64l-123 -4l-10 11l-15 158l55 5q3 -20 15 -67q3 -12 21 -37q50 -9 87 -9z" />
    <glyph glyph-name="Omega" unicode="&#x2126;" horiz-adv-x="794" 
d="M203 57l77 -4v13q-201 80 -201 316q0 156 83 247t235 91t235 -91t83 -247q0 -236 -201 -316v-13l77 4q37 0 87 9q18 25 21 37q12 47 15 67l55 -5l-15 -158l-10 -11q-103 4 -123 4h-64l-94 -4l-10 97q81 36 118 106t37 183q0 79 -20.5 141t-69.5 103t-121 41t-121 -41
t-69.5 -103t-20.5 -141q0 -113 37 -183t118 -106l-10 -97q-54 4 -94 4h-64l-123 -4l-10 11l-15 158l55 5q3 -20 15 -67q3 -12 21 -37q50 -9 87 -9z" />
    <glyph glyph-name="pi" unicode="&#x3c0;" horiz-adv-x="608" 
d="M527 27l-19 -42q-70 24 -91 41q-30 24 -30 62q6 175 9 323l-200 11v-255q0 -1 2 -72t1 -91l-9 -8q-33 4 -58 4h-22l-9 8q19 109 20 129q6 146 11 288q-13 1 -30 1q-11 0 -29 -12t-31 -24l-12 -13l-40 33q8 12 20.5 29t41.5 46t47 29q37 0 191 -8.5t179 -8.5q11 0 29 9.5
t30 18.5l13 9l35 -38q-7 -10 -19.5 -24t-40.5 -38.5t-46 -24.5q-4 -23 -4 -53l-2 -189q0 -69 10 -93.5t53 -46.5z" />
    <glyph glyph-name="Wgrave" unicode="&#x1e80;" horiz-adv-x="1011" 
d="M1009 661l-68 -17q-34 -60 -46 -99l-164 -545h-61l-167 506l-152 -506h-61l-183 556q-6 19 -16 40t-17 33l-7 12l-66 10l5 54h109l147 5l4 -49l-79 -20q12 -57 27 -108l115 -385l158 537h53l169 -537l123 430l11 63l-76 10l5 54h90l143 5zM356 825l30 73l229 -100
l-20 -48l-88 37z" />
    <glyph glyph-name="wgrave" unicode="&#x1e81;" horiz-adv-x="800" 
d="M796 441l-45 -6q-31 -69 -50 -116l-115 -319h-68l-118 335l-114 -335h-67q-123 322 -131 344q-15 43 -41 90l-41 11l5 52q49 -3 69 -3l150 5l3 -58l-80 -7q19 -72 24 -85l86 -246l127 391h39l134 -391l83 248q4 11 20 83l-85 11l5 52q74 -3 94 -3q36 0 64 1t38 3l11 1z
M493 605l-33 -41l-73 60l-121 71l47 60z" />
    <glyph glyph-name="Wacute" unicode="&#x1e82;" horiz-adv-x="1011" 
d="M1009 661l-68 -17q-34 -60 -46 -99l-164 -545h-61l-167 506l-152 -506h-61l-183 556q-6 19 -16 40t-17 33l-7 12l-66 10l5 54h109l147 5l4 -49l-79 -20q12 -57 27 -108l115 -385l158 537h53l169 -537l123 430l11 63l-76 10l5 54h90l143 5zM625 898l30 -73
q-132 -32 -151 -38l-88 -37l-20 48z" />
    <glyph glyph-name="wacute" unicode="&#x1e83;" horiz-adv-x="800" 
d="M796 441l-45 -6q-31 -69 -50 -116l-115 -319h-68l-118 335l-114 -335h-67q-123 322 -131 344q-15 43 -41 90l-41 11l5 52q49 -3 69 -3l150 5l3 -58l-80 -7q19 -72 24 -85l86 -246l127 391h39l134 -391l83 248q4 11 20 83l-85 11l5 52q74 -3 94 -3q36 0 64 1t38 3l11 1z
M486 755l47 -60q-106 -60 -121 -71l-73 -60l-33 41z" />
    <glyph glyph-name="Wdieresis" unicode="&#x1e84;" horiz-adv-x="1011" 
d="M1009 661l-68 -17q-34 -60 -46 -99l-164 -545h-61l-167 506l-152 -506h-61l-183 556q-6 19 -16 40t-17 33l-7 12l-66 10l5 54h109l147 5l4 -49l-79 -20q12 -57 27 -108l115 -385l158 537h53l169 -537l123 430l11 63l-76 10l5 54h90l143 5zM624 884q54 0 54 -60
q0 -59 -54 -59t-54 59q0 28 14 44t40 16zM388 884q54 0 54 -60q0 -59 -54 -59t-54 59q0 28 14 44t40 16z" />
    <glyph glyph-name="wdieresis" unicode="&#x1e85;" horiz-adv-x="800" 
d="M796 441l-45 -6q-31 -69 -50 -116l-115 -319h-68l-118 335l-114 -335h-67q-123 322 -131 344q-15 43 -41 90l-41 11l5 52q49 -3 69 -3l150 5l3 -58l-80 -7q19 -72 24 -85l86 -246l127 391h39l134 -391l83 248q4 11 20 83l-85 11l5 52q74 -3 94 -3q36 0 64 1t38 3l11 1z
M518 713q54 0 54 -60q0 -59 -54 -59t-54 59q0 28 14 44t40 16zM282 713q54 0 54 -60q0 -59 -54 -59t-54 59q0 28 14 44t40 16z" />
    <glyph glyph-name="Ygrave" unicode="&#x1ef2;" horiz-adv-x="663" 
d="M645 661l-68 -17q-36 -47 -63 -99l-140 -272v-106q0 -57 7 -106l90 -7l-7 -59q-66 5 -146 5l-118 -5l-5 50l79 16q9 59 9 76v120l-155 299q-9 18 -23 39.5t-23 33.5l-10 12l-66 10l5 54h109l147 5l4 -49l-79 -20q11 -49 43 -108l101 -189l115 234l28 63l-76 10l5 54h90
l143 5zM182 825l30 73l229 -100l-20 -48l-88 37z" />
    <glyph glyph-name="ygrave" unicode="&#x1ef3;" horiz-adv-x="539" 
d="M279 104l87 232q14 39 27 97l-73 12l5 52q67 -3 87 -3l115 5l3 -58l-53 -8q-36 -73 -52 -114l-206 -554l-161 11l8 58l40 -1q14 0 67 10q25 35 38 68l32 89l-143 333q-15 37 -51 100l-49 12l5 52q62 -3 82 -3l137 5l3 -58l-72 -7q13 -57 25 -85zM363 605l-33 -41l-73 60
l-121 71l47 60z" />
    <glyph glyph-name="endash" unicode="&#x2013;" horiz-adv-x="504" 
d="M2 216l-2 75h504l-5 -75h-497z" />
    <glyph glyph-name="emdash" unicode="&#x2014;" horiz-adv-x="1006" 
d="M2 216l-2 75h1006l-5 -75h-999z" />
    <glyph glyph-name="quoteleft" unicode="&#x2018;" horiz-adv-x="192" 
d="M97 651q27 0 44 -18t17 -45q0 -28 -18.5 -48.5t-45.5 -20.5q-31 0 -48 24.5t-17 59.5q0 56 35 105t95 62l7 -24q-69 -30 -69 -95z" />
    <glyph glyph-name="quoteright" unicode="&#x2019;" horiz-adv-x="192" 
d="M95 638q-27 0 -44 18t-17 45q0 28 18.5 48.5t45.5 20.5q31 0 48 -24.5t17 -59.5q0 -56 -35 -105t-95 -62l-7 24q69 30 69 95z" />
    <glyph glyph-name="quotesinglbase" unicode="&#x201a;" horiz-adv-x="216" 
d="M103 -10q-27 0 -44 18t-17 45q0 28 18.5 48.5t45.5 20.5q31 0 48 -24.5t17 -59.5q0 -56 -35 -105t-95 -62l-7 24q69 30 69 95z" />
    <glyph glyph-name="quotedblleft" unicode="&#x201c;" 
d="M103 651q27 0 44 -18t17 -45q0 -28 -18.5 -48.5t-45.5 -20.5q-31 0 -48 24.5t-17 59.5q0 56 35 105t95 62l7 -24q-69 -30 -69 -95zM263 651q27 0 44 -18t17 -45q0 -28 -18.5 -48.5t-45.5 -20.5q-31 0 -48 24.5t-17 59.5q0 56 35 105t95 62l7 -24q-69 -30 -69 -95z" />
    <glyph glyph-name="quotedblright" unicode="&#x201d;" horiz-adv-x="370" 
d="M105 633q-27 0 -44 18t-17 45q0 28 18.5 48.5t45.5 20.5q31 0 48 -24.5t17 -59.5q0 -56 -35 -105t-95 -62l-7 24q69 30 69 95zM266 633q-27 0 -44 18t-17 45q0 28 18.5 48.5t45.5 20.5q31 0 48 -24.5t17 -59.5q0 -56 -35 -105t-95 -62l-7 24q69 30 69 95z" />
    <glyph glyph-name="quotedblbase" unicode="&#x201e;" horiz-adv-x="377" 
d="M103 -10q-27 0 -44 18t-17 45q0 28 18.5 48.5t45.5 20.5q31 0 48 -24.5t17 -59.5q0 -56 -35 -105t-95 -62l-7 24q69 30 69 95zM264 -10q-27 0 -44 18t-17 45q0 28 18.5 48.5t45.5 20.5q31 0 48 -24.5t17 -59.5q0 -56 -35 -105t-95 -62l-7 24q69 30 69 95z" />
    <glyph glyph-name="dagger" unicode="&#x2020;" horiz-adv-x="504" 
d="M277 514h-50l-33 236l6 6l88 10l22 -18q-33 -184 -33 -234zM227 423h50l33 -507l-6 -6l-88 -10l-22 18q33 455 33 505zM207 494v-51l-170 -19l-6 6l-10 60l18 19q105 -11 168 -15zM297 443v51l170 19l6 -6l10 -60l-18 -19q-105 11 -168 15z" />
    <glyph glyph-name="daggerdbl" unicode="&#x2021;" horiz-adv-x="504" 
d="M227 223h50l33 -307l-6 -6l-88 -10l-22 18q33 255 33 305zM277 514h-50l-33 236l6 6l88 10l22 -18q-33 -184 -33 -234zM297 443v51l170 19l6 -6l10 -60l-18 -19q-105 11 -168 15zM207 494v-51l-170 -19l-6 6l-10 60l18 19q105 -11 168 -15zM297 243v51l130 19l6 -6
l10 -60l-18 -19q-65 11 -128 15zM207 294v-51l-130 -19l-6 6l-10 60l18 19q65 -11 128 -15zM277 313h-50v110h50v-110z" />
    <glyph glyph-name="bullet" unicode="&#x2022;" horiz-adv-x="230" 
d="M115 340q38 0 59 -23t21 -64q0 -39 -21 -62.5t-59 -23.5t-59 23.5t-21 62.5t21 63t59 24z" />
    <glyph glyph-name="onedotenleader" unicode="&#x2024;" horiz-adv-x="213" 
d="M104 129q30 0 47 -18.5t17 -51.5q0 -31 -17 -50t-47 -19t-47 19t-17 50t17 50.5t47 19.5z" />
    <glyph glyph-name="twodotenleader" unicode="&#x2025;" horiz-adv-x="405" 
d="M101 126q29 0 45 -18t16 -49q0 -30 -16 -48t-45 -18t-45 18t-16 48t16 48.5t45 18.5zM299 126q29 0 45 -18t16 -49q0 -30 -16 -48t-45 -18t-45 18t-16 48t16 48.5t45 18.5z" />
    <glyph glyph-name="ellipsis" unicode="&#x2026;" horiz-adv-x="603" 
d="M101 126q29 0 45 -18t16 -49q0 -30 -16 -48t-45 -18t-45 18t-16 48t16 48.5t45 18.5zM299 126q29 0 45 -18t16 -49q0 -30 -16 -48t-45 -18t-45 18t-16 48t16 48.5t45 18.5zM497 126q29 0 45 -18t16 -49q0 -30 -16 -48t-45 -18t-45 18t-16 48t16 48.5t45 18.5z" />
    <glyph glyph-name="perthousand" unicode="&#x2030;" horiz-adv-x="1125" 
d="M195 -49l-51 32l434 738l50 -32zM341 493v-1q0 -75 -39.5 -124t-110.5 -49t-110.5 49t-39.5 125q0 75 39.5 124t110.5 49t110.5 -49t39.5 -124zM116 492q0 -50 17.5 -85t57.5 -35t57.5 35t17.5 86q0 50 -17.5 85t-57.5 35t-57.5 -35t-17.5 -86zM723 163v-1
q0 -75 -39.5 -124t-110.5 -49t-110.5 49t-39.5 125q0 75 39.5 124t110.5 49t110.5 -49t39.5 -124zM498 162q0 -50 17.5 -85t57.5 -35t57.5 35t17.5 86q0 50 -17.5 85t-57.5 35t-57.5 -35t-17.5 -86zM1063 163v-1q0 -75 -39.5 -124t-110.5 -49t-110.5 49t-39.5 125
q0 75 39.5 124t110.5 49t110.5 -49t39.5 -124zM838 162q0 -50 17.5 -85t57.5 -35t57.5 35t17.5 86q0 50 -17.5 85t-57.5 35t-57.5 -35t-17.5 -86z" />
    <glyph glyph-name="guilsinglleft" unicode="&#x2039;" horiz-adv-x="257" 
d="M25 242l153 222l37 -25l-107 -197l107 -197l-37 -25z" />
    <glyph glyph-name="guilsinglright" unicode="&#x203a;" horiz-adv-x="257" 
d="M232 241l-153 -222l-37 25l106 197l-106 197l37 25z" />
    <glyph glyph-name="fraction" unicode="&#x2044;" horiz-adv-x="60" 
d="M212 721l50 -32l-433 -738l-51 32z" />
    <glyph glyph-name="zero.sups" unicode="&#x2070;" horiz-adv-x="365" 
d="M27 649q0 90 38 147.5t117 57.5q80 0 118 -57.5t38 -147.5t-38 -147.5t-118 -57.5q-79 0 -117 57.5t-38 147.5zM254 649q0 159 -72 159q-71 0 -71 -159q0 -160 71 -160q72 0 72 160z" />
    <glyph glyph-name="four.sups" unicode="&#x2074;" horiz-adv-x="348" 
d="M230 901l54 -43q-70 -70 -80 -84l-117 -162h107v71l66 24v-90l58 3v-54h-58v-17q0 -11 1 -23t2.5 -19.5t1.5 -8.5l46 -4l-4 -47q-43 3 -103 3l-78 -3l-3 42l65 9q6 18 6 44v24h-147l-38 46z" />
    <glyph glyph-name="five.sups" unicode="&#x2075;" horiz-adv-x="303" 
d="M107 848l151 6l4 -63q-93 -10 -112 -10h-50q-3 -57 -6 -109q19 4 52 4q61 0 96 -30t35 -85q0 -71 -61.5 -115.5t-172.5 -59.5l-12 39q169 31 169 126q0 36 -21.5 56t-61.5 20q-31 0 -60 -7l-24 21l13 196l12 11h49z" />
    <glyph glyph-name="six.sups" unicode="&#x2076;" horiz-adv-x="342" 
d="M194 699q62 0 94.5 -32t32.5 -93q0 -55 -42 -93t-102 -38q-71 0 -110.5 43.5t-39.5 113.5q0 105 71 194t201 112l8 -36q-103 -31 -151 -106.5t-48 -163.5q0 -46 17.5 -77.5t51.5 -31.5q30 0 47 24.5t17 58.5q0 82 -62 82l-29 -2l-4 38q21 7 48 7z" />
    <glyph glyph-name="seven.sups" unicode="&#x2077;" horiz-adv-x="323" 
d="M39 841l11 12q61 -5 75 -5h183l10 -35l-187 -427l-67 22l137 284q18 46 29 90h-99q-4 0 -43 -3l-9 -23l-4 -30l-43 3z" />
    <glyph glyph-name="eight.sups" unicode="&#x2078;" horiz-adv-x="338" 
d="M39 768q0 45 38 71.5t92 26.5q53 0 91.5 -26.5t38.5 -72.5q0 -56 -72 -104q85 -45 85 -114q0 -51 -41 -78t-102 -27t-102.5 27t-41.5 79q0 61 86 110q-72 42 -72 108zM101 550q0 -30 18.5 -48t49.5 -18q30 0 49 17t19 47q0 20 -13 37t-27.5 27t-41.5 24q-54 -39 -54 -86z
M226 767q0 26 -16.5 42.5t-40.5 16.5q-23 0 -40 -16.5t-17 -40.5q0 -30 18 -47t56 -38q40 40 40 83z" />
    <glyph glyph-name="nine.sups" unicode="&#x2079;" horiz-adv-x="343" 
d="M152 598q-60 0 -95.5 33t-35.5 91q0 56 42 94t102 38q72 0 111.5 -43.5t39.5 -114.5q0 -107 -69 -196.5t-199 -114.5l-11 38q74 21 120.5 68.5t61.5 97t15 107.5q0 46 -17.5 78.5t-51.5 32.5q-31 0 -46.5 -24.5t-15.5 -60.5q0 -34 17.5 -57.5t44.5 -23.5q18 0 28 2l4 -38
q-19 -7 -45 -7z" />
    <glyph glyph-name="n.sups" unicode="&#x207f;" horiz-adv-x="395" 
d="M20 716l4 40q46 -5 66 -5l26 1l13 -11l5 -42q39 58 99 58q104 0 104 -121v-75l5 -68l44 -4l-3 -42q-37 3 -98 3l-58 -3l-3 38l38 8q4 36 4 50v88q0 75 -53 75q-30 0 -49.5 -25t-20.5 -67v-53l6 -68l43 -4l-3 -42q-37 3 -98 3l-65 -3l-3 38l44 8q5 36 6 49v113l-7 51z" />
    <glyph glyph-name="zero.sinf" unicode="&#x2080;" horiz-adv-x="386" 
d="M33 105q0 93 39.5 152.5t120.5 59.5q82 0 121 -59.5t39 -152.5t-39 -152t-121 -59q-81 0 -120.5 59.5t-39.5 151.5zM269 105q0 166 -76 166q-75 0 -75 -166q0 -165 75 -165q76 0 76 165z" />
    <glyph glyph-name="one.sinf" unicode="&#x2081;" horiz-adv-x="279" 
d="M248 -56l-4 -47q-43 3 -105 3l-81 -3l-3 43l62 8l3 22q2 21 2 28v223l-73 -35l-20 33q76 59 88 69l30 35l49 -7q-5 -113 -5 -143v-157q0 -50 6 -68z" />
    <glyph glyph-name="two.sinf" unicode="&#x2082;" horiz-adv-x="358" 
d="M165 317q64 0 99.5 -28t35.5 -78q0 -52 -37 -101t-149 -149h95q5 0 14.5 1t22 2.5t19.5 2.5q8 19 8 26l4 25l42 -3l-5 -105l-16 -12q-57 2 -70 2h-192l-9 54q121 116 157 162t36 87q0 30 -17.5 47.5t-46.5 17.5q-33 0 -61 -16q-6 -16 -6 -36l1 -27l-43 -3l-6 109
q58 22 124 22z" />
    <glyph glyph-name="three.sinf" unicode="&#x2083;" horiz-adv-x="326" 
d="M25 299q55 18 108 18q66 0 101 -27.5t35 -79.5q0 -65 -74 -100q41 -10 66.5 -37.5t25.5 -64.5q0 -66 -71.5 -115t-183.5 -59l-12 39q83 12 133 48t50 83q0 34 -20 53t-56 19l-42 -2l-9 38q114 16 114 96q0 31 -15.5 47.5t-44.5 16.5q-25 0 -49 -11q-6 -25 -6 -30l1 -29
l-43 -2z" />
    <glyph glyph-name="four.sinf" unicode="&#x2084;" horiz-adv-x="367" 
d="M242 366l54 -43q-69 -70 -79 -84l-125 -173h114v71l66 24v-90l59 3v-54h-59v-21q0 -11 1 -23t2.5 -19.5t1.5 -8.5l48 -4l-4 -47q-45 3 -105 3l-81 -3l-3 42l68 9q6 18 6 44v28h-154l-38 46z" />
    <glyph glyph-name="five.sinf" unicode="&#x2085;" horiz-adv-x="322" 
d="M114 311l155 6l4 -63q-93 -10 -112 -10h-54q-3 -59 -6 -113q23 5 56 5q61 0 96 -31t35 -88q0 -73 -63 -120.5t-172 -62.5l-16 39q83 11 128.5 45.5t45.5 86.5q0 37 -21.5 57.5t-61.5 20.5q-35 0 -64 -7l-24 22l13 202l12 11h49z" />
    <glyph glyph-name="six.sinf" unicode="&#x2086;" horiz-adv-x="362" 
d="M204 156q62 0 96 -32t34 -93q0 -57 -41 -97.5t-106 -40.5q-73 0 -113 44.5t-40 115.5q0 48 16 96.5t48 93.5t87.5 79.5t127.5 48.5l9 -36q-57 -17 -99 -49.5t-64.5 -72.5t-33 -80.5t-10.5 -82.5q0 -45 18.5 -77t53.5 -32q33 0 50 27t17 63q0 82 -65 82l-29 -2l-4 38
q21 7 48 7z" />
    <glyph glyph-name="seven.sinf" unicode="&#x2087;" horiz-adv-x="344" 
d="M46 304l12 12q62 -5 77 -5h187l11 -35l-193 -442l-67 22l141 296q17 35 29 93h-102q-6 0 -45 -3q-9 -20 -10 -24l-4 -30l-43 2z" />
    <glyph glyph-name="eight.sinf" unicode="&#x2088;" horiz-adv-x="358" 
d="M45 228q0 46 39.5 74t94.5 28q54 0 93.5 -28t39.5 -75q0 -59 -76 -107q90 -48 90 -118q0 -53 -42.5 -80.5t-104.5 -27.5q-63 0 -105.5 27.5t-42.5 81.5q0 63 89 113q-75 44 -75 112zM107 3q0 -31 20 -50t52 -19q31 0 51 18.5t20 48.5q0 16 -6 29t-21 25t-26 19t-34 19
q-56 -43 -56 -90zM239 227q0 27 -17 44.5t-43 17.5q-24 0 -42 -17t-18 -43q0 -30 19 -49t58 -39q43 41 43 86z" />
    <glyph glyph-name="nine.sinf" unicode="&#x2089;" horiz-adv-x="363" 
d="M162 53q-61 0 -98 34.5t-37 93.5q0 58 42.5 97t104.5 39q74 0 115 -45t41 -118q0 -110 -71 -203t-205 -118l-11 38q59 17 100.5 48.5t63 71.5t31 79.5t9.5 83.5q0 47 -18.5 81.5t-54.5 34.5q-32 0 -48.5 -26t-16.5 -63q0 -35 18 -59.5t47 -24.5q17 0 31 2l4 -38
q-19 -8 -47 -8z" />
    <glyph glyph-name="Euro" unicode="&#x20ac;" horiz-adv-x="689" 
d="M52 237l-2 35l93 4q-2 15 -2 47v24l-94 -4l-2 35l99 4q15 130 92 205t209 75q70 0 200 -34l-11 -148l-61 6v45q0 10 -10 50q-65 23 -117 23q-83 0 -132.5 -59.5t-61.5 -157.5l203 9l2 -34l-209 -10v-28q0 -16 2 -44l210 10l2 -34l-208 -10q14 -93 63.5 -148t129.5 -55
q59 0 125 22q13 43 13 56l2 47l61 2l6 -151q-132 -34 -209 -34q-127 0 -203 68t-95 188z" />
    <glyph glyph-name="trademark" unicode="&#x2122;" horiz-adv-x="522" 
d="M427 706h35l43 1l1 -25l-21 -4v-18l10 -144q4 -15 5 -18l20 -3l-1 -25q-24 2 -60 2l-34 -2l-1 23l21 5q2 14 2 28l-6 115l-59 -169h-32l-57 169l-7 -115q0 -4 0.5 -14t0.5 -14l22 -3l-2 -25q-14 2 -52 2l-33 -2l-1 23l22 5l5 18l8 144q0 8 -2 18l-21 4l1 25q19 -1 35 -3
h49l7 -5q10 -37 14 -51l33 -101l35 107l13 45zM205 646l-24 -1q0 8 -3 23q-2 2 -3 7q-10 2 -24 2h-17q-3 -18 -3 -25v-115q0 -26 3 -38l21 -2l-2 -27q-27 2 -66 2l-32 -2l-2 24l21 5q3 9 3 28v111q0 21 -3 39h-14q-13 0 -27 -2q-1 -2 -1 -5l-1 -2q-3 -15 -3 -23l-25 1l3 56
l6 7q31 -3 38 -3h109l37 3l7 -7z" />
    <glyph glyph-name="estimated" unicode="&#x212e;" horiz-adv-x="797" 
d="M180 311q-5 0 -5 -4v-181q0 -10 9 -21q91 -97 226 -97q144 0 237 109h54q-51 -60 -128 -94.5t-164 -34.5q-152 0 -260.5 97t-108.5 234q0 138 108 235t261 97q152 0 260 -97t108 -235v-8h-597zM643 516q0 12 -10 22q-93 93 -223 93q-132 0 -225 -96q-10 -10 -10 -23v-178
q0 -5 5 -5h458q5 0 5 5v182z" />
    <glyph glyph-name="partialdiff" unicode="&#x2202;" horiz-adv-x="552" 
d="M259 403q49 0 99 -19l-6 -48q-56 8 -84 8q-54 0 -88.5 -43.5t-34.5 -102.5q0 -64 30.5 -108t87.5 -44q43 0 73 28.5t45 76.5t21 97t6 104q0 56 -6.5 105.5t-21.5 98t-45 77.5t-73 29q-18 0 -36.5 -3t-28.5 -6t-28.5 -9t-23.5 -8l-16 44q71 40 133 40q64 0 112 -30
t75 -82.5t40 -116.5t13 -139t-12.5 -138t-39.5 -115t-75 -81t-112 -29q-92 0 -152.5 59t-60.5 150q0 92 58 148.5t151 56.5z" />
    <glyph glyph-name="product" unicode="&#x220f;" horiz-adv-x="560" 
d="M141 630l5 -858h-75v857h-81v75h579v-70l-80 -1v-861h-70l-5 860z" />
    <glyph glyph-name="summation" unicode="&#x2211;" horiz-adv-x="560" 
d="M410 244l-278 -407l382 5v-70h-475l-10 57l291 414l-281 406l10 56h438v-70l-345 5z" />
    <glyph glyph-name="minus" unicode="&#x2212;" horiz-adv-x="560" 
d="M508 223l-455 -5v76h455v-71z" />
    <glyph glyph-name="radical" unicode="&#x221a;" horiz-adv-x="646" 
d="M378 39l180 682l73 -21l-223 -790h-60l-146 514l-183 -52l-19 74l256 67z" />
    <glyph glyph-name="infinity" unicode="&#x221e;" horiz-adv-x="750" 
d="M201 138q-74 0 -117.5 58t-43.5 140q0 81 44 139.5t119 58.5q96 0 171 -123q33 59 72 90.5t103 31.5q74 0 117.5 -58t43.5 -140q0 -81 -44 -139.5t-119 -58.5q-97 0 -172 123q-33 -59 -71.5 -90.5t-102.5 -31.5zM203 447q-49 0 -82.5 -32t-33.5 -79q0 -44 33.5 -77.5
t78.5 -33.5q28 0 50 10t41 32.5t30.5 42t29.5 54.5v1q-68 82 -147 82zM400 307q0 -1 -0.5 -1t-0.5 -1q67 -81 148 -81q49 0 82.5 32t33.5 79q0 44 -33.5 77.5t-78.5 33.5q-28 0 -50 -10t-41 -33t-30 -41.5t-30 -54.5z" />
    <glyph glyph-name="integral" unicode="&#x222b;" horiz-adv-x="560" 
d="M309 544q0 -66 21.5 -292.5t21.5 -315.5q0 -78 -41 -124.5t-116 -46.5q-28 0 -52 9l11 53q19 -7 41 -7q86 0 86 116q0 66 -21.5 292.5t-21.5 315.5q0 78 41 124.5t116 46.5q28 0 52 -9l-11 -53q-19 7 -41 7q-86 0 -86 -116z" />
    <glyph glyph-name="approxequal" unicode="&#x2248;" horiz-adv-x="560" 
d="M473 231l40 -33q-2 -4 -6.5 -11t-17.5 -25t-25.5 -32t-29 -25t-30.5 -11q-31 0 -125 30t-120 30q-13 0 -31 -14t-30 -28l-11 -13l-40 33q2 4 6.5 11t17.5 25t25.5 32t29 25t30.5 11q37 0 128.5 -30t116.5 -30q13 0 31 14t30 28zM473 401l40 -33q-2 -4 -6.5 -11t-17.5 -25
t-25.5 -32t-29 -25t-30.5 -11q-31 0 -125 30t-120 30q-13 0 -31 -14t-30 -28l-11 -13l-40 33q2 4 6.5 11t17.5 25t25.5 32t29 25t30.5 11q37 0 128.5 -30t116.5 -30q13 0 31 14t30 28z" />
    <glyph glyph-name="notequal" unicode="&#x2260;" horiz-adv-x="560" 
d="M287 187l220 3v-71h-252l-63 -136l-70 12l57 124h-127v66l159 1l57 123l-216 -2v71h248l62 134l70 -12l-57 -122h132v-66l-163 -2z" />
    <glyph glyph-name="lessequal" unicode="&#x2264;" horiz-adv-x="560" 
d="M52 66l455 5v-71h-455v66zM100 335l310 235l45 -61l-236 -174l237 -174l-46 -61z" />
    <glyph glyph-name="greaterequal" unicode="&#x2265;" horiz-adv-x="560" 
d="M52 66l455 5v-71h-455v66zM456 335l-310 -235l-45 61l236 174l-237 174l46 61z" />
    <glyph glyph-name="lozenge" unicode="&#x25ca;" horiz-adv-x="560" 
d="M280 570l262 -286l-262 -282l-262 282zM280 110l163 175l-163 177l-163 -177z" />
    <glyph glyph-name="a.sups" horiz-adv-x="331" 
d="M214 450l-6 46q-28 -52 -91 -52q-42 0 -66.5 22.5t-24.5 60.5q0 70 82 83l93 15v19q0 68 -51 68q-32 0 -54 -11l-5 -25l1 -28l-42 -2l-9 95q59 16 113 16q118 0 118 -118v-78l6 -68l40 -4l-4 -42q-31 3 -100 3zM201 589l-64 -11q-36 -8 -36 -39q0 -42 39 -42q22 0 39 14
t22 37v41z" />
    <glyph glyph-name="b.sups" horiz-adv-x="356" 
d="M1 876l5 40q45 -5 65 -5l47 1l12 -11q-5 -74 -5 -104v-84q33 44 87 44q60 0 90 -42t30 -110q0 -72 -39.5 -116.5t-110.5 -44.5q-62 0 -134 22q6 65 6 77v272l-6 50zM189 701q-31 0 -47 -25.5t-17 -63.5v-51q0 -25 3 -61q24 -8 48 -8q76 0 76 108q0 101 -63 101z" />
    <glyph glyph-name="c.sups" horiz-adv-x="297" 
d="M171 757q47 0 105 -18l-8 -94l-46 1l1 29q-3 18 -4 22q-20 17 -44 17q-70 0 -70 -114q0 -107 78 -107q20 0 40 5.5t29 10.5l10 5l20 -33q-44 -39 -109 -39q-73 0 -111 41.5t-38 116.5q0 73 38.5 115t108.5 42z" />
    <glyph glyph-name="d.sups" horiz-adv-x="365" 
d="M346 489l-4 -42q-30 3 -99 3l-6 47q-32 -53 -93 -53q-57 0 -89 40.5t-32 113.5q0 75 38.5 117t106.5 42q30 0 62 -8v66l-6 50l-50 11l4 40q49 -5 69 -5l47 1l12 -11q-5 -74 -5 -104v-236l6 -68zM230 586v108q-29 13 -55 13q-71 0 -71 -105q0 -102 61 -102q62 0 65 86z
" />
    <glyph glyph-name="e.sups" horiz-adv-x="314" 
d="M167 757q64 0 95.5 -38.5t29.5 -107.5l-12 -22h-175q6 -96 80 -96q22 0 42.5 5.5t30.5 11.5l10 5l20 -32q-43 -41 -117 -41q-70 0 -108.5 41.5t-38.5 114.5q0 74 38 116.5t105 42.5zM162 715q-52 0 -57 -88l106 8q1 6 1 8q0 72 -50 72z" />
    <glyph glyph-name="f.sups" horiz-adv-x="229" 
d="M183 920q16 0 35.5 -2t31.5 -4l12 -2l-8 -94l-40 2v25q0 4 -5 29q-7 3 -20 3q-29 0 -37.5 -18.5t-8.5 -61.5v-46h76l-4 -40h-72v-150l5 -68l56 -4l-4 -42q-45 3 -106 3l-65 -3l-3 38l40 8q6 38 6 50v168h-41l-2 33q4 2 20 6t23 8v50q0 50 29.5 81t81.5 31z" />
    <glyph glyph-name="g.sups" horiz-adv-x="328" 
d="M309 711l-43 1q22 -25 22 -65q0 -50 -35 -80.5t-92 -30.5q-21 0 -43 5q-12 -15 -12 -20q0 -10 11.5 -14.5t43.5 -8.5q101 -11 124 -18q30 -11 30 -55q0 -49 -47 -83.5t-115 -34.5q-131 0 -131 87q0 21 57 57q-29 17 -29 52q0 13 41 48q-56 30 -56 95q0 50 35 80.5
t92 30.5q37 0 67 -14l78 13zM110 440q-18 -22 -18 -37q0 -53 84 -53q33 0 53 13t20 35q0 21 -22 24l-80 11q-25 3 -37 7zM162 720q-51 0 -51 -75q0 -73 50 -73t50 76q0 72 -49 72z" />
    <glyph glyph-name="h.sups" horiz-adv-x="389" 
d="M14 876l4 40q46 -5 66 -5l46 1l13 -11q-6 -72 -6 -104v-84q35 44 87 44q107 0 107 -121v-75l5 -68l44 -4l-4 -42q-36 3 -97 3l-58 -3l-3 38l38 8q4 36 4 50v88q0 75 -53 75q-30 0 -49.5 -25t-20.5 -67v-53q0 -13 1.5 -29.5l2.5 -27.5l1 -11l44 -4l-4 -42q-36 3 -97 3
l-65 -3l-3 38l44 8q6 36 6 50v272l-7 50z" />
    <glyph glyph-name="i.sups" horiz-adv-x="205" 
d="M192 489l-3 -42q-37 3 -98 3l-65 -3l-3 38l44 8q6 38 6 50v112l-7 51l-46 10l4 40q46 -5 66 -5l46 1l13 -11q-6 -73 -6 -104v-76l6 -68zM107 895q20 0 32 -12t12 -33t-11.5 -33t-32.5 -12t-32 12t-11 33q0 20 11.5 32.5t31.5 12.5z" />
    <glyph glyph-name="j.sups" horiz-adv-x="191" 
d="M13 716l4 40q46 -5 66 -5l46 1l13 -11q-6 -73 -6 -104v-193q0 -11 -23 -45.5t-45 -62.5l-23 -29l-26 14q46 117 46 142v192l-6 51zM95 895q20 0 31.5 -12t11.5 -33t-11 -33t-32 -12t-32.5 12t-11.5 33q0 20 11.5 32.5t32.5 12.5z" />
    <glyph glyph-name="k.sups" horiz-adv-x="376" 
d="M14 876l4 40q46 -5 66 -5l46 1l13 -11q-6 -72 -6 -104v-236q0 -13 1.5 -29.5l2.5 -27.5l1 -11l44 -4l-4 -42q-36 3 -97 3l-65 -3l-3 38l44 8q6 36 6 50v272l-7 50zM233 711l-31 4l3 39q49 -3 79 -3l75 3v-40l-39 -3q-45 -26 -55 -38l-45 -52l63 -80q2 -3 52 -48l38 -4
l-4 -42q-33 3 -74 3l-62 -1l-12 35l14 5l-21 29l-70 94z" />
    <glyph glyph-name="l.sups" horiz-adv-x="202" 
d="M14 876l4 40q46 -5 66 -5l46 1l13 -11q-6 -72 -6 -104v-236q0 -13 1.5 -29.5l2.5 -27.5l1 -11l44 -4l-4 -42q-36 3 -97 3l-65 -3l-3 38l44 8q6 36 6 50v272l-7 50z" />
    <glyph glyph-name="m.sups" horiz-adv-x="569" 
d="M230 757q68 0 88 -57q36 57 96 57q97 0 97 -121v-75l5 -68l44 -4l-4 -42q-36 3 -97 3l-58 -3l-3 38l38 8q4 36 4 50v88q0 75 -47 75q-28 0 -46.5 -25t-19.5 -67v-53l5 -68l44 -4l-3 -42q-37 3 -98 3l-58 -3l-3 38l38 8q5 45 5 50v88q0 75 -48 75q-27 0 -46 -24t-20 -64
v-57l6 -68l43 -4l-3 -42q-37 3 -98 3l-65 -3l-3 38l44 8q5 36 6 49v113l-7 51l-46 10l4 40q46 -5 66 -5l26 1l13 -11l5 -42q37 58 96 58z" />
    <glyph glyph-name="o.sups" horiz-adv-x="345" 
d="M321 599q0 -74 -38.5 -115.5t-110.5 -41.5t-110 41.5t-38 115.5q0 75 38 116.5t110 41.5t110.5 -41.5t38.5 -116.5zM240 599q0 113 -68 113q-67 0 -67 -113q0 -112 67 -112q68 0 68 112z" />
    <glyph glyph-name="p.sups" horiz-adv-x="366" 
d="M220 757q58 0 90 -39.5t32 -112.5q0 -74 -41 -117.5t-109 -43.5q-26 0 -58 8v-30l6 -70l54 -4l-4 -40q-41 3 -102 3l-63 -3l-3 35l35 9q6 37 6 50v253l-6 51l-46 10l4 40q43 -5 66 -5l26 1l13 -11l5 -43q31 59 95 59zM199 701q-29 0 -46 -22.5t-19 -63.5v-108
q30 -14 52 -14q76 0 76 107q0 101 -63 101z" />
    <glyph glyph-name="q.sups" horiz-adv-x="355" 
d="M342 347l-4 -40q-41 3 -103 3l-62 -3l-3 36l54 8q6 40 6 52v84q-34 -43 -86 -43q-57 0 -88.5 40t-31.5 113q0 74 38.5 116.5t105.5 42.5q61 0 139 -21q-6 -66 -6 -86v-228l5 -70zM165 500q62 0 65 85v61q0 25 -2 53q-32 8 -53 8q-71 0 -71 -105q0 -102 61 -102z" />
    <glyph glyph-name="r.sups" horiz-adv-x="283" 
d="M129 741l5 -41q36 57 93 57l47 -6l-8 -114l-42 2v33q0 4 -6 31q-1 1 -4 1q-32 -1 -51 -23.5t-20 -64.5v-55l6 -68l55 -4l-4 -42q-45 3 -106 3l-68 -3l-4 38l45 8q6 38 6 50v112l-7 51l-46 10l4 40q46 -5 66 -5l26 1z" />
    <glyph glyph-name="s.sups" horiz-adv-x="269" 
d="M136 757q45 0 95 -13l-7 -93l-39 3v24q0 4 -8 28q-22 9 -42 9q-45 0 -45 -30q0 -17 24 -30.5t53.5 -23t53.5 -34t24 -60.5q0 -46 -30 -69.5t-84 -23.5q-23 0 -49.5 4.5t-41.5 9.5l-15 4l8 93l40 -2v-26q0 -11 7 -28q23 -14 53 -14q46 0 46 35q0 17 -23.5 31t-52 23.5
t-52 34t-23.5 61.5q0 42 29 64.5t79 22.5z" />
    <glyph glyph-name="t.sups" horiz-adv-x="226" 
d="M203 507l21 -31q-40 -32 -79 -32q-46 0 -66 24.5t-20 76.5v166h-43l-2 33q52 19 56 22l32 54l28 -2v-67h80l-5 -40h-75v-177q0 -42 33 -42q8 0 18 4t16 8z" />
    <glyph glyph-name="u.sups" horiz-adv-x="385" 
d="M199 716l5 40q44 -5 64 -5l47 1l12 -11q-5 -73 -5 -104v-76l6 -68l39 -4l-4 -42q-30 3 -99 3l-7 48q-33 -52 -92 -52q-106 0 -106 121v88l-6 52l-37 9l5 40q41 -5 61 -5l41 1l13 -11q-6 -73 -6 -104v-74q0 -65 53 -65q30 0 49 25t19 64v68l-6 51z" />
    <glyph glyph-name="v.sups" horiz-adv-x="347" 
d="M338 714l-31 -3q-24 -50 -30 -66l-73 -195h-63q-72 196 -77 210q-10 28 -22 51l-39 7l3 37q47 -4 76 -4l72 3l3 -40l-32 -3q3 -23 10 -46l43 -136l46 136q3 8 12 46l-36 4l3 39q38 -3 68 -3l64 3z" />
    <glyph glyph-name="w.sups" horiz-adv-x="516" 
d="M509 714l-27 -3q-24 -50 -30 -66l-72 -195h-64l-58 171l-59 -171h-63q-73 196 -78 210q-10 26 -21 51l-31 7l3 37q38 -4 68 -4l83 3l3 -40l-45 -3l11 -47l43 -135l72 222h41l69 -222l45 137q3 7 12 45l-44 4l3 39q46 -3 76 -3l60 3z" />
    <glyph glyph-name="x.sups" horiz-adv-x="356" 
d="M137 712l16 -27l29 -44l28 43l16 27l-29 5l3 38q36 -3 65 -3l65 3l2 -39l-29 -4l-52 -61l-31 -44l43 -57l55 -57l31 -5l-3 -41q-46 4 -91 4l-63 -3l-3 39l31 5l-13 22l-37 52l-37 -54l-11 -19l28 -3l-4 -42q-28 3 -74 3l-57 -3l-3 39l30 7l54 60l36 49l-38 53l-53 57
l-23 6l3 37q47 -4 76 -4l70 3l2 -39z" />
    <glyph glyph-name="y.sups" horiz-adv-x="353" 
d="M185 533l45 130q8 23 11 48l-35 4l3 39q37 -3 65 -3l70 3l2 -40l-32 -3q-21 -42 -28 -63l-132 -341l-113 7l6 43l30 -1q16 0 34 5q14 17 21 37l19 52l-82 200q-13 33 -28 61l-36 7l4 37q42 -4 71 -4l76 3l2 -40l-34 -3q6 -32 12 -46z" />
    <glyph glyph-name="z.sups" horiz-adv-x="293" 
d="M28 741l13 12q45 -2 57 -2h166l5 -39l-51 -63l-75 -112l-24 -45h62q3 0 41 5q9 19 12 28q0 6 4 26l39 -4l-6 -87l-12 -12q-50 2 -62 2h-168l-7 40q47 49 55 62l77 113q8 12 25 45h-61q-2 0 -8 -1t-14.5 -2.5t-14.5 -2.5q-11 -22 -11 -31l-2 -30l-43 2z" />
    <glyph glyph-name="zero.tf" horiz-adv-x="510" 
d="M34 320q0 149 56 245.5t171 96.5q112 0 166.5 -92.5t54.5 -237.5q0 -149 -56 -245.5t-171 -96.5q-112 0 -166.5 92.5t-54.5 237.5zM384 335q0 267 -123 267q-129 0 -129 -285q0 -267 123 -267q129 0 129 285z" />
    <glyph glyph-name="one.tf" horiz-adv-x="510" 
d="M409 54l-8 -59q-56 5 -142 5l-156 -5l-7 50l114 16q9 39 9 76l-8 387l-136 -59l-31 42q135 92 159 108q5 4 18.5 18.5t24.5 26.5l10 12l42 -12l-3 -234l6 -259q2 -67 10 -106z" />
    <glyph glyph-name="two.tf" horiz-adv-x="510" 
d="M234 662q93 0 146 -42.5t53 -118.5q0 -88 -61.5 -170.5t-250.5 -257.5h186q11 0 84 8l14 35l5 47l54 -4l-9 -142l-19 -20q-96 3 -120 3h-274l-14 73q145 147 205.5 216t82.5 110t22 87q0 53 -32 86.5t-82 33.5q-53 0 -99 -28q-10 -32 -10 -51l2 -45l-55 -3l-13 147
q91 36 185 36z" />
    <glyph glyph-name="three.tf" horiz-adv-x="510" 
d="M203 662q101 0 154 -42t53 -121q0 -55 -33 -97.5t-93 -66.5q75 -20 116 -63t41 -104q0 -102 -111 -178t-288 -95l-18 53q144 22 233 83t89 135q0 55 -40.5 89t-106.5 34l-74 -3l-14 48q205 24 205 151q0 59 -30 91t-85 32q-47 0 -84 -22q-12 -42 -12 -50l2 -45l-55 -3
l-13 145q87 29 164 29z" />
    <glyph glyph-name="four.tf" horiz-adv-x="510" 
d="M355 739l68 -51q-121 -131 -135 -154l-183 -280l192 3l1 142l78 27l-1 -164l90 6v-67h-90v-34q0 -57 7 -106l80 -7l-7 -59q-50 5 -129 5l-134 -5l-4 50l100 16q9 63 9 76v64h-251l-43 53z" />
    <glyph glyph-name="five.tf" horiz-adv-x="510" 
d="M169 652l260 10l6 -67q-195 -23 -225 -23h-65q-8 -127 -11 -217q45 9 87 9q110 0 174 -48.5t64 -139.5q0 -119 -107 -191.5t-280 -89.5l-18 53q140 19 225 73t85 145q0 64 -40.5 97.5t-117.5 33.5q-46 0 -104 -13l-37 21l15 329l19 18h70z" />
    <glyph glyph-name="six.tf" horiz-adv-x="510" 
d="M285 403q95 0 149.5 -53.5t54.5 -149.5q0 -91 -63.5 -151t-155.5 -60q-108 0 -168 70.5t-60 186.5q0 81 26 160t76 149t132.5 121t185.5 71l12 -51q-76 -22 -135.5 -59.5t-96.5 -82t-61.5 -98t-34.5 -105t-10 -105.5q0 -51 13.5 -95t44.5 -74.5t76 -30.5q57 0 90.5 45.5
t33.5 108.5t-31 103.5t-88 40.5l-63 -5l-6 48q46 16 79 16z" />
    <glyph glyph-name="seven.tf" horiz-adv-x="510" 
d="M69 641l19 20q99 -9 123 -9h269l16 -39l-287 -718l-78 25l215 502q8 17 44 157h-170q-20 0 -86 -6q-12 -25 -14 -34l-5 -50l-55 4z" />
    <glyph glyph-name="eight.tf" horiz-adv-x="510" 
d="M60 521q0 74 57.5 117.5t138.5 43.5q80 0 138 -44t58 -119q0 -96 -121 -171q66 -36 104 -79t38 -107q0 -82 -62.5 -127t-155.5 -45t-155 44.5t-62 129.5q0 102 139 183q-55 32 -86 72.5t-31 101.5zM128 164q0 -57 36 -92t91 -35q53 0 90 34.5t37 88.5q0 27 -10.5 49
t-35.5 42.5t-43.5 32t-55.5 32.5l-8 3q-101 -70 -101 -155zM365 519q0 49 -31 82.5t-78 33.5q-43 0 -76 -33.5t-33 -78.5q0 -28 9.5 -49.5t34 -41t40 -29.5t53.5 -31q0 -1 1 -1q80 66 80 148z" />
    <glyph glyph-name="nine.tf" horiz-adv-x="510" 
d="M237 248q-95 0 -154.5 54.5t-59.5 146.5t62.5 152.5t154.5 60.5q109 0 169.5 -72t60.5 -189q0 -84 -24 -162.5t-72 -148.5t-129 -122.5t-185 -74.5l-14 52q93 30 159.5 81.5t101.5 115t50 127t15 132.5q0 81 -34.5 142.5t-99.5 61.5q-56 0 -87 -45.5t-31 -110.5
q0 -60 35 -101t91 -41q28 0 56 4l7 -49q-33 -14 -72 -14z" />
    <glyph glyph-name="zero.dnom" horiz-adv-x="386" 
d="M33 205q0 93 39.5 152.5t120.5 59.5q82 0 121 -59.5t39 -152.5t-39 -152t-121 -59q-81 0 -120.5 59.5t-39.5 151.5zM269 205q0 166 -76 166q-75 0 -75 -166q0 -165 75 -165q76 0 76 165z" />
    <glyph glyph-name="one.dnom" horiz-adv-x="279" 
d="M248 44l-4 -47q-43 3 -105 3l-81 -3l-3 43l62 8l3 22q2 21 2 28v223l-73 -35l-20 33q76 59 88 69l30 35l49 -7q-5 -113 -5 -143v-157q0 -50 6 -68z" />
    <glyph glyph-name="two.dnom" horiz-adv-x="358" 
d="M165 417q64 0 99.5 -28t35.5 -78q0 -52 -36.5 -101.5t-146.5 -148.5h92q5 0 14.5 1t22 2.5t19.5 2.5q8 19 8 26l4 25l42 -3l-5 -105l-16 -12q-57 2 -70 2h-189l-9 54q119 114 154.5 160.5t35.5 88.5q0 30 -17.5 47.5t-46.5 17.5q-33 0 -61 -16q-6 -16 -6 -36l1 -27
l-43 -3l-6 109q58 22 124 22z" />
    <glyph glyph-name="three.dnom" horiz-adv-x="326" 
d="M133 417q66 0 101 -27.5t35 -79.5q0 -65 -74 -100q41 -10 66.5 -37.5t25.5 -64.5q0 -66 -71.5 -115t-183.5 -59l-12 39q83 12 133 48t50 83q0 34 -20 53t-56 19l-42 -2l-9 38q114 16 114 96q0 31 -15.5 47.5t-44.5 16.5q-25 0 -49 -11q-6 -25 -6 -30l1 -29l-43 -2l-8 99
q55 18 108 18z" />
    <glyph glyph-name="four.dnom" horiz-adv-x="367" 
d="M242 466l54 -43q-69 -70 -79 -84l-125 -173h114v71l66 24v-90l59 3v-54h-59v-21q0 -11 1 -23t2.5 -19.5t1.5 -8.5l48 -4l-4 -47q-45 3 -105 3l-81 -3l-3 42l68 9q6 18 6 44v28h-154l-38 46z" />
    <glyph glyph-name="five.dnom" horiz-adv-x="322" 
d="M113 411l155 6l4 -63q-93 -10 -112 -10h-54q-3 -59 -6 -113q23 5 56 5q61 0 96 -31t35 -88q0 -73 -63 -119.5t-172 -61.5l-16 39q83 11 128.5 45t45.5 85q0 37 -21.5 57.5t-61.5 20.5q-35 0 -64 -7l-24 22l13 202l12 11h49z" />
    <glyph glyph-name="six.dnom" horiz-adv-x="362" 
d="M204 256q62 0 96 -32t34 -93q0 -57 -41 -97.5t-106 -40.5q-73 0 -113 44.5t-40 115.5q0 48 16 96.5t48 93.5t87.5 79.5t127.5 48.5l9 -36q-57 -17 -99 -49.5t-64.5 -72.5t-33 -80.5t-10.5 -82.5q0 -45 18.5 -77t53.5 -32q33 0 50 27t17 63q0 82 -65 82l-29 -2l-4 38
q21 7 48 7z" />
    <glyph glyph-name="seven.dnom" horiz-adv-x="344" 
d="M46 404l12 12q62 -5 77 -5h187l11 -35l-193 -442l-67 22l141 296q17 35 29 93h-102q-6 0 -45 -3q-9 -20 -10 -24l-4 -30l-43 2z" />
    <glyph glyph-name="eight.dnom" horiz-adv-x="358" 
d="M45 328q0 46 39.5 74t94.5 28q54 0 93.5 -28t39.5 -75q0 -59 -76 -107q90 -48 90 -118q0 -53 -42.5 -80.5t-104.5 -27.5q-63 0 -105.5 27.5t-42.5 81.5q0 63 89 113q-75 44 -75 112zM107 103q0 -31 20 -50t52 -19q31 0 51 18.5t20 48.5q0 16 -6 29t-21 25t-26 19t-34 19
q-56 -43 -56 -90zM239 327q0 27 -17 44.5t-43 17.5q-24 0 -42 -17t-18 -43q0 -30 19 -49t58 -39q43 41 43 86z" />
    <glyph glyph-name="nine.dnom" horiz-adv-x="363" 
d="M162 153q-61 0 -98 34.5t-37 93.5q0 58 42.5 97t104.5 39q74 0 115 -45t41 -118q0 -110 -71 -203t-205 -118l-11 38q59 17 100.5 48.5t63 71.5t31 79.5t9.5 83.5q0 47 -18.5 81.5t-54.5 34.5q-32 0 -48.5 -26t-16.5 -63q0 -35 18 -59.5t47 -24.5q17 0 31 2l4 -38
q-19 -8 -47 -8z" />
    <glyph glyph-name="zero.numr" horiz-adv-x="365" 
d="M27 499q0 90 38 147.5t117 57.5q80 0 118 -57.5t38 -147.5t-38 -147.5t-118 -57.5q-79 0 -117 57.5t-38 147.5zM254 499q0 159 -72 159q-71 0 -71 -159q0 -160 71 -160q72 0 72 160z" />
    <glyph glyph-name="one.numr" horiz-adv-x="262" 
d="M238 344l-4 -47q-41 3 -103 3l-79 -3l-3 43l60 8l3 22q2 21 2 28v210l-71 -32l-20 33q74 56 86 66l30 35l49 -7q-5 -113 -5 -143v-144q0 -50 6 -68z" />
    <glyph glyph-name="two.numr" horiz-adv-x="338" 
d="M155 704q64 0 99.5 -27t35.5 -75q0 -51 -36.5 -98.5t-146.5 -142.5h92q5 0 14.5 1t22 2.5t19.5 2.5q8 19 8 26l4 25l42 -3l-5 -105l-16 -12q-57 2 -70 2h-189l-9 54q119 109 154.5 153.5t35.5 85.5q0 29 -17.5 45.5t-46.5 16.5q-30 0 -58 -16q-6 -17 -6 -26l1 -27l-43 -3
l-6 99q58 22 121 22z" />
    <glyph glyph-name="three.numr" horiz-adv-x="307" 
d="M19 686q54 18 105 18q133 0 133 -104q0 -64 -71 -97q40 -9 64 -36t24 -62q0 -64 -69.5 -111.5t-177.5 -57.5l-12 39q79 11 127.5 45.5t48.5 79.5q0 33 -19 51t-53 18l-41 -2l-9 39q109 15 109 93q0 60 -57 60q-23 0 -46 -10q-6 -25 -6 -30l1 -29l-43 -2z" />
    <glyph glyph-name="four.numr" horiz-adv-x="348" 
d="M230 751l54 -43q-70 -70 -80 -84l-117 -162h107v71l66 24v-90l58 3v-54h-58v-17q0 -11 1 -23t2.5 -19.5t1.5 -8.5l46 -4l-4 -47q-43 3 -103 3l-78 -3l-3 42l65 9q6 18 6 44v24h-147l-38 46z" />
    <glyph glyph-name="five.numr" horiz-adv-x="303" 
d="M107 698l151 6l4 -63q-93 -10 -112 -10h-50q-3 -57 -6 -109q19 4 52 4q61 0 96 -30t35 -85q0 -71 -61.5 -115.5t-172.5 -59.5l-12 39q169 31 169 126q0 36 -21.5 56t-61.5 20q-31 0 -60 -7l-24 21l13 196l12 11h49z" />
    <glyph glyph-name="six.numr" horiz-adv-x="342" 
d="M194 549q62 0 94.5 -32t32.5 -93q0 -55 -42 -93t-102 -38q-71 0 -110.5 43.5t-39.5 113.5q0 105 71 194t201 112l8 -36q-103 -31 -151 -106.5t-48 -163.5q0 -46 17.5 -77.5t51.5 -31.5q30 0 47 24.5t17 58.5q0 82 -62 82l-29 -2l-4 38q21 7 48 7z" />
    <glyph glyph-name="seven.numr" horiz-adv-x="323" 
d="M39 691l11 12q61 -5 75 -5h183l10 -35l-187 -427l-67 22l137 284q18 46 29 90h-99q-4 0 -43 -3l-9 -23l-4 -30l-43 3z" />
    <glyph glyph-name="eight.numr" horiz-adv-x="338" 
d="M39 618q0 45 38 71.5t92 26.5q53 0 91.5 -26.5t38.5 -72.5q0 -56 -72 -104q85 -45 85 -114q0 -51 -41 -78t-102 -27t-102.5 27t-41.5 79q0 61 86 110q-72 42 -72 108zM101 400q0 -30 18.5 -48t49.5 -18q30 0 49 17t19 47q0 20 -13 37t-27.5 27t-41.5 24q-54 -39 -54 -86z
M226 617q0 26 -16.5 42.5t-40.5 16.5q-23 0 -40 -16.5t-17 -40.5q0 -30 18 -47t56 -38q40 40 40 83z" />
    <glyph glyph-name="nine.numr" horiz-adv-x="343" 
d="M152 448q-60 0 -95.5 33t-35.5 91q0 56 42 94t102 38q72 0 111.5 -43.5t39.5 -114.5q0 -107 -69 -196.5t-199 -114.5l-11 38q74 21 120.5 68.5t61.5 97t15 107.5q0 46 -17.5 78.5t-51.5 32.5q-31 0 -46.5 -24.5t-15.5 -60.5q0 -34 17.5 -57.5t44.5 -23.5q18 0 28 2l4 -38
q-19 -7 -45 -7z" />
    <glyph glyph-name="acute.cap" 
d="M279 687l30 -73q-132 -32 -151 -38l-88 -37l-20 48z" />
    <glyph glyph-name="caron.cap" 
d="M331 682l23 -39l-174 -107l-174 107l23 39l88 -41l63 -25l63 25z" />
    <glyph glyph-name="circumflex.cap" 
d="M180 682l174 -107l-23 -39l-88 41l-63 25l-63 -25l-88 -41l-23 39z" />
    <glyph glyph-name="grave.cap" 
d="M51 614l30 73l229 -100l-20 -48l-88 37z" />
    <glyph glyph-name="hungarumlaut.cap" 
d="M188 702l41 -67q-124 -53 -143 -62l-82 -50l-27 43zM402 702l41 -67q-124 -53 -143 -62l-81 -50l-27 43z" />
    <glyph glyph-name="tilde.cap" 
d="M312 671l36 -21q-5 -11 -13 -27.5t-30 -43.5t-40 -27q-20 0 -82 20.5t-82 20.5q-12 0 -25 -13.5t-20 -27.5l-8 -13l-36 21q5 11 13 28t29.5 45t39.5 28q20 0 82.5 -20.5t82.5 -20.5q12 0 25.5 13t20.5 25z" />
    <glyph glyph-name="foundryicon" horiz-adv-x="724" 
d="M591 61h-423q-80 0 -80 80v423q0 80 80 80h423q80 0 80 -80v-423q0 -80 -80 -80zM316 464l-48 -28q-6 -4 -9 -4q-6 0 -6 9v116h-74v-344h74v180q0 12 24 12q43 0 43 -56v-136h74v178q0 32 -22 52.5t-56 20.5zM423 422h26q10 0 10 -10v-132q0 -32 22 -52.5t56 -20.5l63 37
v25q-12 -4 -26 -4q-41 0 -41 57v90q0 10 10 10h58v36h-58q-10 0 -10 10v28h-21l-89 -56v-18z" />
    <glyph glyph-name="idotaccent" horiz-adv-x="301" 
d="M288 54l-7 -59q-49 5 -129 5l-111 -5l-5 50l76 16q10 56 10 76v216l-10 76l-76 16l5 53q72 -4 92 -4h58l19 -18q-7 -103 -7 -153v-156l7 -106zM163 720q28 0 43.5 -17t15.5 -48q0 -29 -15.5 -46.5t-43.5 -17.5t-43.5 17.5t-15.5 46.5t15.5 47t43.5 18z" />
    <glyph glyph-name="dotaccent.cap" 
d="M180 680q28 0 43.5 -17t15.5 -48q0 -29 -15.5 -46.5t-43.5 -17.5t-43.5 17.5t-15.5 46.5t15.5 47t43.5 18z" />
    <glyph glyph-name="dieresis.cap" 
d="M298 673q54 0 54 -60q0 -59 -54 -59t-54 59q0 28 14 44t40 16zM62 673q54 0 54 -60q0 -59 -54 -59t-54 59q0 28 14 44t40 16z" />
    <glyph glyph-name="breve.cap" 
d="M263 687h56q0 -68 -36 -104t-103 -36t-103 36t-36 104h56q0 -38 23 -61t60 -23t60 23t23 61z" />
    <glyph glyph-name="macron.cap" 
d="M336 576h-317v53h322z" />
    <glyph glyph-name="ring.cap" 
d="M180 711q44 0 66.5 -23t22.5 -63q0 -39 -22.5 -62t-66.5 -23t-67 23t-23 62q0 40 23 63t67 23zM180 673q-41 0 -41 -48q0 -47 41 -47q42 0 42 47q0 48 -42 48z" />
    <glyph glyph-name="zero.tosf" horiz-adv-x="510" 
d="M34 260q0 121 55.5 198.5t170.5 77.5q113 0 167 -75t54 -193q0 -121 -55.5 -198.5t-170.5 -77.5q-113 0 -167 75t-54 193zM400 268q0 201 -141 201q-144 0 -144 -209q0 -201 141 -201q144 0 144 209z" />
    <glyph glyph-name="one.tosf" horiz-adv-x="510" 
d="M448 533l4 -59l-148 -7q-7 -49 -7 -106v-194q0 -57 7 -106l158 -7l-7 -59q-124 5 -204 5l-197 -5l-5 50l158 16q9 59 9 76v254q0 17 -9 76l-148 12l5 54q167 -5 187 -5z" />
    <glyph glyph-name="two.tosf" horiz-adv-x="510" 
d="M237 536q89 0 139.5 -35.5t50.5 -98.5q0 -69 -56 -135t-226 -194h170q1 0 9 1t26.5 3t43.5 3q4 6 6.5 12.5t4 12t2.5 6.5l5 35l53 -4l-8 -128l-18 -16q-91 2 -113 2h-263l-15 68q128 105 187 161.5t78.5 90t19.5 70.5q0 41 -29.5 65.5t-77.5 24.5q-46 0 -93 -22
q-9 -23 -9 -43l1 -41l-53 -3l-12 136q88 29 177 29z" />
    <glyph glyph-name="three.tosf" horiz-adv-x="510" 
d="M203 538q101 0 154 -42t53 -121q0 -55 -33 -97.5t-93 -66.5q75 -20 116 -63t41 -104q0 -102 -111 -178t-288 -95l-18 53q144 22 233 83t89 135q0 55 -40.5 89t-106.5 34l-74 -3l-14 48q205 24 205 151q0 59 -30 91t-85 32q-47 0 -84 -22q-12 -42 -12 -50l2 -45l-55 -3
l-13 145q87 29 164 29z" />
    <glyph glyph-name="four.tosf" horiz-adv-x="510" 
d="M347 569l70 -52q-110 -130 -125 -153l-188 -311l203 3v162l78 27v-184l80 6l-1 -67h-79v-204l-79 -26v230h-260l-44 53z" />
    <glyph glyph-name="five.tosf" horiz-adv-x="510" 
d="M170 528l260 10l6 -67q-195 -23 -225 -23h-65q-8 -127 -11 -217q45 9 87 9q110 0 174 -48.5t64 -139.5q0 -119 -107 -191.5t-280 -89.5l-18 53q140 19 225 73t85 145q0 64 -40.5 97.5t-117.5 33.5q-45 0 -104 -13l-37 21l15 329l19 18h70z" />
    <glyph glyph-name="six.tosf" horiz-adv-x="510" 
d="M285 403q95 0 149.5 -53.5t54.5 -149.5q0 -91 -63.5 -151t-155.5 -60q-108 0 -168 70.5t-60 186.5q0 81 26 160t76 149t132.5 121t185.5 71l12 -51q-76 -22 -135.5 -59.5t-96.5 -82t-61.5 -98t-34.5 -105t-10 -105.5q0 -51 13.5 -95t44.5 -74.5t76 -30.5q57 0 90.5 45.5
t33.5 108.5t-31 103.5t-88 40.5l-63 -5l-6 48q46 16 79 16z" />
    <glyph glyph-name="seven.tosf" horiz-adv-x="510" 
d="M69 517l19 20q99 -9 123 -9h269l16 -39l-287 -718l-78 25l215 502q8 17 44 157h-169q-23 0 -86 -6q-14 -28 -14 -34l-5 -50l-56 4z" />
    <glyph glyph-name="eight.tosf" horiz-adv-x="510" 
d="M60 521q0 74 57.5 117.5t138.5 43.5q80 0 138 -44t58 -119q0 -96 -121 -171q66 -36 104 -79t38 -107q0 -82 -62.5 -127t-155.5 -45t-155 44.5t-62 129.5q0 102 139 183q-55 32 -86 72.5t-31 101.5zM128 164q0 -57 36 -92t91 -35q53 0 90 34.5t37 88.5q0 27 -10.5 49
t-35.5 42.5t-43.5 32t-55.5 32.5l-8 3q-101 -70 -101 -155zM365 519q0 49 -31 82.5t-78 33.5q-43 0 -76 -33.5t-33 -78.5q0 -28 9.5 -49.5t34 -41t40 -29.5t53.5 -31q0 -1 1 -1q80 66 80 148z" />
    <glyph glyph-name="nine.tosf" horiz-adv-x="510" 
d="M237 124q-95 0 -154.5 54.5t-59.5 146.5t62.5 152.5t154.5 60.5q109 0 169.5 -72t60.5 -189q0 -84 -24 -162.5t-72 -148.5t-129 -122.5t-185 -74.5l-14 52q93 30 159.5 81.5t101.5 115t50 127t15 132.5q0 81 -34.5 142.5t-99.5 61.5q-56 0 -87 -45.5t-31 -110.5
q0 -60 35 -101t91 -41q28 0 56 4l7 -49q-33 -14 -72 -14z" />
    <glyph glyph-name="zero.osf" horiz-adv-x="580" 
d="M50 264q0 119 59 195.5t181 76.5t181 -76.5t59 -195.5t-59 -195.5t-181 -76.5t-181 76.5t-59 195.5zM448 264q0 205 -158 205t-158 -205t158 -205t158 205z" />
    <glyph glyph-name="one.osf" horiz-adv-x="411" 
d="M393 533l4 -59l-143 -7q-7 -49 -7 -106v-194q0 -57 7 -106l148 -7l-7 -59q-114 5 -194 5l-187 -5l-5 50l148 16q9 59 9 76v254q0 17 -9 76l-143 12l5 54q162 -5 182 -5z" />
    <glyph glyph-name="two.osf" horiz-adv-x="485" 
d="M226 536q87 0 136 -35t49 -98q0 -70 -53.5 -135.5t-218.5 -194.5h161q2 0 10.5 1t26.5 3t40 3q4 8 9 20l4 11l5 35l52 -4l-8 -128l-18 -16q-88 2 -109 2h-257l-14 68q124 106 181 162.5t76 89.5t19 71q0 40 -28.5 64.5t-73.5 24.5t-89 -22q-9 -23 -9 -43l1 -41l-53 -3
l-11 136q86 29 172 29z" />
    <glyph glyph-name="three.osf" horiz-adv-x="470" 
d="M188 538q97 0 148 -42t51 -121q0 -55 -31 -97.5t-88 -66.5q71 -20 109 -63t38 -104q0 -102 -106.5 -178t-277.5 -95l-18 53q138 22 222.5 83t84.5 135q0 55 -37.5 89t-99.5 34l-69 -3l-14 48q193 24 193 151q0 59 -28 91t-80 32q-45 0 -79 -22q-10 -40 -10 -50l2 -45
l-55 -3l-13 145q84 29 158 29z" />
    <glyph glyph-name="four.osf" horiz-adv-x="529" 
d="M357 569l70 -52q-110 -130 -125 -153l-188 -311l203 3v162l78 27v-184l80 6l-1 -67h-79v-204l-79 -26v230h-260l-44 53z" />
    <glyph glyph-name="five.osf" horiz-adv-x="462" 
d="M157 528l243 10l6 -67q-178 -23 -208 -23h-64q-9 -127 -12 -217q41 9 82 9q104 0 163.5 -48.5t59.5 -139.5q0 -119 -101.5 -191.5t-265.5 -89.5l-18 53q131 19 210.5 73t79.5 145q0 64 -37.5 97.5t-108.5 33.5q-41 0 -96 -13l-37 21l17 329l19 18h68z" />
    <glyph glyph-name="six.osf" horiz-adv-x="522" 
d="M289 403q97 0 152.5 -53.5t55.5 -149.5q0 -91 -64 -151t-157 -60q-110 0 -170.5 70.5t-60.5 186.5q0 81 26.5 160t77.5 149t134 121t187 71l12 -51q-94 -27 -163.5 -77.5t-107 -113t-55 -127t-17.5 -132.5q0 -80 35 -140t102 -60q58 0 92 45.5t34 108.5t-31.5 103.5
t-90.5 40.5l-65 -5l-6 48q47 16 80 16z" />
    <glyph glyph-name="seven.osf" horiz-adv-x="506" 
d="M69 517l19 20q98 -9 122 -9h267l16 -39l-286 -718l-78 25l214 502q8 17 44 157h-168q-22 0 -85 -6q-12 -25 -14 -34l-5 -50l-55 4z" />
    <glyph glyph-name="eight.osf" horiz-adv-x="520" 
d="M62 521q0 74 58 117.5t140 43.5q81 0 139.5 -44t58.5 -119q0 -96 -122 -171q67 -36 105.5 -79t38.5 -107q0 -82 -63 -127t-157 -45t-157 44.5t-63 129.5q0 102 141 183q-56 32 -87.5 72.5t-31.5 101.5zM131 164q0 -57 36.5 -92t92.5 -35q54 0 91.5 34.5t37.5 88.5
q0 27 -10.5 49t-36 42.5t-44 32t-56.5 32.5q-6 2 -9 4q-102 -72 -102 -156zM371 519q0 49 -32 82.5t-79 33.5q-44 0 -77.5 -33.5t-33.5 -78.5q0 -22 8.5 -42t18 -32.5t33 -29t36 -23.5t43.5 -24l1 -1q82 68 82 148z" />
    <glyph glyph-name="nine.osf" horiz-adv-x="525" 
d="M239 124q-94 0 -154 55t-60 146q0 92 63.5 152.5t157.5 60.5q111 0 172.5 -72t61.5 -189q0 -84 -24.5 -162.5t-73.5 -148.5t-131.5 -122.5t-188.5 -74.5l-14 52q95 30 163 81.5t104 115t51.5 127t15.5 132.5q0 81 -35.5 142.5t-102.5 61.5q-58 0 -90 -45t-32 -111
q0 -58 35.5 -100t90.5 -42q41 0 62 3l7 -47q-35 -15 -78 -15z" />
    <glyph glyph-name="f.f" horiz-adv-x="351" 
d="M298 750q18 0 44 -2.5t42 -5.5l17 -2l-11 -135l-53 3v36q0 10 -12 52q-4 0 -14 0.5t-13 0.5q-26 0 -44 -7.5t-28 -19t-15.5 -33t-6.5 -40.5t-1 -51v-52h240l-5 -54h-235v-273l7 -106l98 -7l-7 -59q-69 5 -149 5l-111 -5l-5 50l76 16q10 56 10 76v303h-77l-3 42
q9 3 28 8.5t30.5 10t21.5 10.5v66q0 80 45.5 126.5t130.5 46.5z" />
    <glyph glyph-name="f.t" horiz-adv-x="351" 
d="M298 770q18 0 44 -2.5t42 -5.5l17 -2l-11 -135l-53 3v36q0 10 -12 52q-4 0 -14 0.5t-13 0.5q-26 0 -44 -7.5t-28 -19t-15.5 -33t-6.5 -40.5t-1 -51v-72h220l-5 -54h-215v-273l7 -106l98 -7l-7 -59q-69 5 -149 5l-111 -5l-5 50l76 16q10 56 10 76v303h-77l-3 42
q9 3 28 8.5t30.5 10t21.5 10.5v86q0 80 45.5 126.5t130.5 46.5z" />
    <glyph glyph-name="f.l" horiz-adv-x="314" 
d="M298 770q36 0 80.5 -7t71.5 -13l26 -7l-13 -75q-20 6 -52.5 15.5t-44 12.5t-29.5 7.5t-28.5 6t-20.5 1.5q-24 0 -40 -7t-25 -17.5t-13.5 -31t-5.5 -39t-1 -50.5v-72h140l-5 -54h-135v-273l7 -106l98 -7l-7 -59q-69 5 -149 5l-111 -5l-5 50l76 16q10 56 10 76v303h-77
l-3 42q9 3 28 8.5t30.5 10t21.5 10.5v86q0 80 45.5 126.5t130.5 46.5z" />
    <glyph glyph-name="Gdieresis" horiz-adv-x="664" 
d="M376 720q78 0 220 -34l-11 -148l-58 6v45q0 9 -12 49q-81 24 -142 24q-112 0 -171 -86.5t-59 -222.5q0 -137 59 -223.5t171 -86.5q65 0 140 20q12 52 12 65v68l-10 71l-106 8l5 58h111l71 3l18 -17q-9 -103 -9 -153v-147q-142 -34 -229 -34q-162 0 -248 99.5t-86 267.5
t86 268t248 100zM498 874q54 0 54 -60q0 -59 -54 -59t-54 59q0 28 14 44t40 16zM262 874q54 0 54 -60q0 -59 -54 -59t-54 59q0 28 14 44t40 16z" />
    <glyph glyph-name="gdieresis" horiz-adv-x="505" 
d="M474 440l-80 6q46 -48 46 -124q0 -82 -53 -131.5t-140 -49.5q-37 0 -68 9q-27 -31 -27 -42q0 -15 18.5 -21.5t75.5 -13.5q169 -22 193 -30q45 -14 45 -87q0 -79 -74.5 -135t-179.5 -56q-198 0 -198 145q0 29 91 101q-51 21 -51 73q0 20 72 80q-90 48 -90 158
q0 82 53 131.5t140 49.5q57 0 105 -24l122 19v-58zM161 -1q-43 -53 -43 -78q0 -51 34 -75t106 -24q62 0 101.5 28.5t39.5 74.5q0 23 -8.5 32.5t-30.5 12.5l-130 17q-40 5 -69 12zM247 452q-106 0 -106 -130t106 -130t106 130t-106 130zM371 713q54 0 54 -60q0 -59 -54 -59
t-54 59q0 28 14 44t40 16zM135 713q54 0 54 -60q0 -59 -54 -59t-54 59q0 28 14 44t40 16z" />
    <glyph glyph-name="t.i" horiz-adv-x="344" 
d="M314 83l28 -41q-67 -52 -118 -52q-69 0 -96.5 40t-27.5 126v284h-77l-3 42q9 3 28 8.5t30.5 10t21.5 10.5l46 90l35 -4v-103h140l-5 -54h-135v-308q0 -78 54 -78q16 0 35.5 7t31.5 15z" />
    <glyph glyph-name="puso" horiz-adv-x="192" 
d="M95 638q-27 0 -44 18t-17 45q0 28 18.5 48.5t45.5 20.5q31 0 48 -24.5t17 -59.5q0 -56 -35 -105t-95 -62l-7 24q69 30 69 95z" />
    </font>
</defs>
</svg>
